<?xml version="1.0" standalone="no"?>
<!DOCTYPE svg PUBLIC "-//W3C//DTD SVG 1.1//EN" "http://www.w3.org/Graphics/SVG/1.1/DTD/svg11.dtd" >
<svg xmlns="http://www.w3.org/2000/svg">
<metadata></metadata>
<defs>
<font id="dialogregular" horiz-adv-x="1034" >
<font-face units-per-em="2048" ascent="1638" descent="-410" />
<missing-glyph horiz-adv-x="417" />
<glyph horiz-adv-x="2048" />
<glyph horiz-adv-x="2048" />
<glyph unicode="&#xd;" horiz-adv-x="417" />
<glyph unicode=" "  horiz-adv-x="417" />
<glyph unicode="&#x09;" horiz-adv-x="417" />
<glyph unicode="&#xa0;" horiz-adv-x="417" />
<glyph unicode="!" horiz-adv-x="473" d="M100 96q0 55 40 92t96 37q55 0 95 -37t40 -92t-40 -92t-95 -37t-95.5 37t-40.5 92zM123 1311h223l-37 -914h-149z" />
<glyph unicode="&#x22;" horiz-adv-x="696" d="M96 1356h185l-23 -426h-139zM406 1356h184l-23 -426h-139z" />
<glyph unicode="#" horiz-adv-x="1368" d="M49 418l19 110h276l92 332h-330l17 113h342l129 442h117l-129 -442h358l129 442h117l-129 -442h258l-19 -113h-268l-90 -332h319l-18 -110h-332l-125 -441h-118l127 441h-359l-127 -441h-119l127 441h-264zM461 528h360l90 332h-358z" />
<glyph unicode="$" horiz-adv-x="960" d="M18 72v178q172 -113 379 -113q37 0 56 2v420q-389 147 -390 412q0 156 119 260q113 98 271 110v117h51v-115q186 -6 346 -79v-140q-106 51 -256 52q-49 0 -90 -7v-395q193 -92 250 -133q157 -116 157 -274q0 -174 -118 -283q-111 -102 -289 -115v-159h-51v157 q-260 4 -435 105zM279 983q0 -104 174 -186v362q-174 -53 -174 -176zM504 145q194 40 194 177q0 135 -194 217v-394z" />
<glyph unicode="%" horiz-adv-x="1409" d="M61 995q0 147 64 234q72 98 213 98q272 0 272 -332q0 -143 -63 -235q-72 -106 -209 -107q-137 0 -211 107q-66 92 -66 235zM166 -8l956 1358l107 -27l-959 -1358zM205 995q0 -225 133 -225q127 0 127 225q0 213 -127 213q-133 0 -133 -213zM793 322q0 336 274 335 q274 1 274 -335q0 -141 -65 -234q-74 -104 -209 -104q-137 0 -211 104q-63 92 -63 234zM936 322q0 -221 131 -222q129 1 129 222q0 213 -129 213q-131 0 -131 -213z" />
<glyph unicode="&#x26;" horiz-adv-x="1216" d="M29 346q0 131 90 242q80 98 209 157q-125 150 -125 304q0 137 106 219q96 76 238 75q137 0 229 -63q102 -74 103 -207q0 -209 -289 -346q100 -141 158 -217q127 -174 149 -186q49 49 92 104l84 -41q-57 -104 -102 -158q68 -77 207 -229h-279q-18 18 -72 86 q-170 -119 -391 -119q-170 0 -288.5 104.5t-118.5 274.5zM244 391q0 -106 104 -186q98 -76 209 -76q82 0 182 66q-225 291 -333 438q-162 -90 -162 -242zM414 1065q0 -86 98 -240q170 125 170 244q0 139 -129 139q-59 0 -99 -42t-40 -101z" />
<glyph unicode="'" horiz-adv-x="401" d="M92 1356h207l-33 -447h-137z" />
<glyph unicode="(" horiz-adv-x="548" d="M66 612q0 217 77 408q84 209 242 334l90 -41q-209 -190 -209 -701q0 -510 209 -700l-90 -41q-145 117 -235 336q-84 205 -84 405z" />
<glyph unicode=")" horiz-adv-x="548" d="M66 -88q209 190 208 700q0 510 -208 701l90 41q158 -125 241 -334q78 -191 78 -408q0 -201 -84 -405q-90 -219 -235 -336z" />
<glyph unicode="*" horiz-adv-x="606" d="M51 1149l187 70l-181 69l56 92q51 -37 147 -112l-22 180h118l-28 -170l145 102l55 -92l-186 -69l193 -70l-56 -94l-155 106l32 -180h-118l22 186l-154 -112z" />
<glyph unicode="+" horiz-adv-x="1183" d="M61 535v112h474v477h110v-477h477v-112h-475v-478h-112v478h-474z" />
<glyph unicode="," horiz-adv-x="473" d="M139 195h217q0 -143 -24 -234q-31 -113 -113 -207l-76 39q35 143 35 211q0 74 -39 191z" />
<glyph unicode="-" horiz-adv-x="608" d="M80 473v170h446v-170h-446z" />
<glyph unicode="." horiz-adv-x="473" d="M100 96q0 55 40 92t96 37q55 0 95 -37t40 -92t-40 -92t-95 -37t-95.5 37t-40.5 92z" />
<glyph unicode="/" horiz-adv-x="884" d="M-41 -100l809 1470l152 -45l-814 -1470z" />
<glyph unicode="0" d="M37 655q0 291 92 463q119 225 383 225q479 0 479 -688q0 -283 -96 -460q-123 -227 -383 -228q-260 0 -381 228q-94 176 -94 460zM248 655q0 -528 264 -528q266 0 266 528q0 514 -266 514q-264 0 -264 -514z" />
<glyph unicode="1" d="M117 981v98q109 80 332 232h219v-1311h-224v1102z" />
<glyph unicode="2" d="M80 1073v113q195 158 403 157q186 0 305 -86q131 -98 132 -278q0 -172 -117 -320q-61 -78 -250 -235q-168 -139 -227 -236l594 -2v-186h-830v143q109 137 133 166q78 94 144 158q154 147 206 215q117 145 117 262q0 111 -76.5 172.5t-191.5 61.5q-70 0 -176 -31 q-117 -35 -166 -74z" />
<glyph unicode="3" d="M92 68v125q131 -72 328 -72q119 0 198.5 68.5t79.5 185.5q0 133 -112 203q-94 59 -236 59q-51 0 -108 -10l-13 102q403 137 404 309q0 74 -66 117q-57 39 -133 39q-57 0 -162 -27q-113 -29 -151 -59v115q172 121 362 120q160 0 254 -67q106 -78 107 -229q0 -111 -94 -201 q-84 -78 -201 -111l2 -8q168 -8 266 -88q111 -90 111 -252q0 -197 -140 -311q-129 -109 -329 -109q-115 0 -195 23q-68 20 -172 78z" />
<glyph unicode="4" d="M6 315v162l549 844h268v-852h154v-154h-154v-315h-217l-2 315h-598zM174 469h430l2 659z" />
<glyph unicode="5" d="M82 68v125q55 -29 160 -52q96 -20 168 -20q119 0 198.5 68.5t79.5 185.5q0 145 -104 227q-94 72 -244 72q-117 0 -188 -33v670h718v-195h-561v-319q88 20 111 20q199 0 340 -96q160 -109 160 -299q0 -207 -131.5 -331t-342.5 -124q-115 0 -189.5 21.5t-174.5 79.5z" />
<glyph unicode="6" d="M53 618q0 725 525 725q143 0 305 -90v-112q-160 39 -287 39q-317 0 -328 -518q51 78 140.5 128t181.5 50q180 0 282.5 -118t102.5 -300q0 -199 -124 -327t-321 -128q-262 0 -380 207q-96 164 -97 444zM281 444q0 -123 63 -219q74 -109 191 -108q111 0 176 90 q59 81 59 196q0 123 -57 203q-63 92 -183 92q-106 0 -177.5 -73.5t-71.5 -180.5z" />
<glyph unicode="7" d="M98 1100v211h885v-209q-297 -498 -309 -520q-229 -416 -242 -582l-237 -10q33 168 264 583q45 80 309 527h-670z" />
<glyph unicode="8" d="M49 326q0 276 293 362v6q-252 70 -252 307q0 166 139 261q121 82 295 81q174 0 285 -69q131 -84 131 -250q0 -123 -78 -209t-203 -115l-2 -6q318 -84 318 -356q0 -172 -152 -277q-135 -94 -315 -94q-182 0 -311 86q-147 98 -148 273zM256 352q0 -111 70.5 -173t183.5 -62 q109 0 180 53q80 60 80 164q0 106 -100 180q-25 18 -107 55t-102 37q-6 0 -62 -18q-143 -63 -143 -236zM291 997q0 -166 248 -241q88 25 144 89t56 152q0 92 -67 144q-61 45 -158 45q-90 0 -154 -49q-70 -53 -69 -140z" />
<glyph unicode="9" d="M51 889q0 199 125 326.5t322 127.5q260 0 379 -206q96 -164 96 -445q0 -725 -524 -725q-162 0 -306 90v113q160 -39 289 -39q180 0 262 180q61 131 66 338q-39 -84 -137 -133q-88 -45 -187 -45q-178 0 -281.5 119t-103.5 299zM258 907q0 -123 55 -202q66 -92 183 -93 q106 0 177.5 74t71.5 180q0 125 -61 219q-72 109 -192 109q-111 0 -175 -90q-59 -82 -59 -197z" />
<glyph unicode=":" horiz-adv-x="473" d="M100 96q0 55 40 92t96 37q55 0 95 -37t40 -92t-40 -92t-95 -37t-95.5 37t-40.5 92zM100 829q0 55 40 92t96 37q55 0 95 -37t40 -92t-40 -93t-95 -38t-95.5 38t-40.5 93z" />
<glyph unicode=";" horiz-adv-x="473" d="M100 829q0 55 40 92t96 37q55 0 95 -37t40 -92t-40 -93t-95 -38t-95.5 38t-40.5 93zM139 195h217q0 -143 -24 -234q-31 -113 -113 -207l-76 39q35 143 35 211q0 74 -39 191z" />
<glyph unicode="&#x3c;" horiz-adv-x="1196" d="M61 537v106l1057 475v-125l-907 -407l907 -398v-118z" />
<glyph unicode="=" horiz-adv-x="1124" d="M61 356v105h990v-105h-990zM61 715v106h990v-106h-990z" />
<glyph unicode="&#x3e;" horiz-adv-x="1220" d="M82 70v118l909 396l-909 409v125l1059 -477v-106z" />
<glyph unicode="?" horiz-adv-x="913" d="M68 1137v102q137 104 368 104q160 0 271 -79q124 -88 124 -242q0 -119 -81 -213q-31 -39 -175 -158q-121 -100 -120 -221q0 -33 6 -86h-176q-6 47 -6 92q0 111 90 209q82 78 166 156q90 92 90 188q0 104 -109 158q-86 43 -201 43q-129 0 -247 -53zM231 98q0 55 40 92 t96 37q55 0 95 -37t40 -92t-40 -92t-95 -37t-95.5 37t-40.5 92z" />
<glyph unicode="@" horiz-adv-x="1941" d="M121 489q0 397 280.5 673t677.5 276q324 0 527 -181q211 -186 211 -505q0 -240 -136 -445q-152 -229 -381 -229q-176 0 -176 176q0 29 4 68l-2 4q-170 -250 -364 -250q-102 0 -157.5 73.5t-55.5 178.5q2 225 143 430q158 227 373 227q162 0 199 -166l4 4l24 92l148 3 l-156 -556q-16 -59 -16 -106q0 -37 16 -74q23 -47 59 -47q111 0 228 139q92 111 141 239t49 255q0 276 -196 451q-188 168 -469 167q-381 0 -629 -274q-242 -266 -242 -651q0 -346 230 -559q223 -207 571 -207q449 0 711 381l41 -19q-121 -199 -324 -309t-436 -110 q-383 0 -637 231q-260 240 -260 620zM700 334q0 -162 134 -162q158 0 280 221q109 195 109 369q0 70 -39 124t-107 54q-141 0 -266 -238q-111 -211 -111 -368z" />
<glyph unicode="A" horiz-adv-x="1214" d="M-18 0l485 1321h270l482 -1321h-250l-127 360h-533l-129 -360h-198zM367 524h421l-210 604z" />
<glyph unicode="B" horiz-adv-x="1124" d="M131 0v1311h520q150 0 250 -74q113 -82 113 -225t-105 -232q-90 -76 -239 -98v-6q381 -27 381 -326q0 -186 -160 -276q-129 -74 -330 -74h-430zM356 158q215 -6 213 -6q104 0 178 57.5t74 157.5q0 113 -90 176q-80 57 -196 57l-179 -6v-436zM356 745q160 -6 162 -6 q111 0 189.5 59t78.5 165q0 198 -237 198h-2l-191 -12v-404z" />
<glyph unicode="C" horiz-adv-x="1157" d="M47 664q0 274 175 468.5t444 210.5q20 1 40 1q168 0 353 -89v-129q-43 12 -86 23q-104 23 -193 25h-12q-215 0 -352 -140q-147 -147 -148 -397q0 -213 111 -354q121 -154 328 -154q213 0 411 84v-131q-86 -49 -220 -82t-228 -33q-285 0 -459 209q-164 197 -164 488z" />
<glyph unicode="D" horiz-adv-x="1327" d="M131 0v1311h559q254 0 416 -181q156 -174 156 -432q0 -301 -186.5 -499.5t-485.5 -198.5h-459zM356 180q195 -10 232 -10q209 0 332 158q112 143 112 358q0 203 -136 330t-343 129q-31 0 -197 -10v-955z" />
<glyph unicode="E" horiz-adv-x="1032" d="M131 0v1311h860v-170h-635v-387h555v-162h-555v-420l635 -2v-170h-860z" />
<glyph unicode="F" horiz-adv-x="1019" d="M131 0v1311h860v-170h-635v-387h555v-162h-555l-2 -592h-223z" />
<glyph unicode="G" horiz-adv-x="1236" d="M47 664q0 285 166 477q171 202 450 202h3q211 0 393 -88v-149q-156 68 -277 68q-514 0 -514 -537q0 -213 111 -354q121 -154 328 -154q94 0 176 21l2 440h223v-553q-299 -70 -469 -70q-262 0 -434 221q-158 205 -158 476z" />
<glyph unicode="H" horiz-adv-x="1333" d="M131 0v1311h223l2 -545h596v545h224v-1311h-224v588h-596l-2 -588h-223z" />
<glyph unicode="I" horiz-adv-x="493" d="M131 0v1311h223v-1311h-223z" />
<glyph unicode="J" horiz-adv-x="735" d="M20 -315q68 -23 177 -23q168 0 168 295v1354h223v-1317q0 -213 -92 -336q-104 -139 -312 -139q-74 0 -164 43v123z" />
<glyph unicode="K" horiz-adv-x="1193" d="M131 0v1311h223v-1311h-223zM356 672l500 639h215l-487 -592l565 -719h-266z" />
<glyph unicode="L" horiz-adv-x="923" d="M131 0v1311h223v-1139h561v-172h-784z" />
<glyph unicode="M" horiz-adv-x="1568" d="M131 0v1311h342l313 -963l328 963h303v-1311h-194v1104l-369 -1055h-172l-358 1002v-1051h-193z" />
<glyph unicode="N" horiz-adv-x="1312" d="M131 0v1311h279q51 -90 563 -971v971h192v-1319h-250l-591 1026v-1018h-193z" />
<glyph unicode="O" horiz-adv-x="1339" d="M49 670q0 301 156 481q163 192 458 192h3q301 0 462 -190q152 -178 152 -483q0 -297 -156 -492q-168 -211 -456 -211q-295 0 -463 209q-156 193 -156 494zM272 670q0 -223 82 -369q102 -178 310 -178q209 0 309 178q82 144 82 369q0 213 -86 344q-99 155 -300 155h-3 q-205 0 -308 -153q-86 -131 -86 -346z" />
<glyph unicode="P" horiz-adv-x="1089" d="M131 0v1311h500q424 0 424 -383q0 -205 -172 -330q-154 -109 -369 -111l-158 -2l-2 -485h-223zM356 651q57 -4 172 -10h6q117 0 203 78q88 80 88 201q0 129 -80 182q-63 43 -198 43q-63 0 -191 -8v-486z" />
<glyph unicode="Q" horiz-adv-x="1339" d="M49 670q0 301 156 481q163 192 458 192h3q301 0 462 -190q152 -178 152 -483q0 -236 -100 -412q-111 -199 -322 -264q47 -55 172 -111q113 -49 197 -63l-232 -47q-145 23 -317 194q-303 0 -471 203q-158 190 -158 500zM272 670q0 -219 84 -367q104 -180 308 -180 q205 0 307 180q84 146 84 367q0 211 -86 344q-101 155 -300 155h-3q-201 0 -306 -155q-88 -133 -88 -344z" />
<glyph unicode="R" horiz-adv-x="1177" d="M131 0v1311h518q164 0 275 -86q121 -92 120 -252q0 -164 -94 -261.5t-260 -117.5l440 -594h-286l-398 575l-90 7l-2 -582h-223zM356 707q139 -10 166 -11q119 0 203 64q92 67 92 184q0 205 -246 205q-72 0 -215 -8v-434z" />
<glyph unicode="S" horiz-adv-x="960" d="M18 72v178q172 -113 383 -113q111 0 191 37q106 49 106 148q0 119 -163 200q-154 76 -308 150q-164 111 -164 301q0 164 134 272q123 98 290 98q217 0 363 -79v-140q-80 23 -240 54q-20 2 -41 2q-109 0 -192 -47q-98 -55 -98 -152q0 -98 163 -180q152 -78 306 -156 q163 -110 163 -278q0 -186 -135 -297q-127 -102 -317 -103q-262 0 -441 105z" />
<glyph unicode="T" horiz-adv-x="1085" d="M-4 1143v168h1083v-168l-428 -2l-2 -1141h-223l-2 1141z" />
<glyph unicode="U" horiz-adv-x="1282" d="M127 502v809h221v-752q0 -215 43 -301q63 -131 256 -131q190 0 254 121q43 82 43 293v770h203v-783q0 -274 -113 -411q-123 -150 -393 -150q-514 0 -514 535z" />
<glyph unicode="V" horiz-adv-x="1196" d="M6 1311h250l365 -1049l366 1049h199l-486 -1321h-213z" />
<glyph unicode="W" horiz-adv-x="1726" d="M6 1311h250l246 -1008h8l233 1008h248l244 -1008h8l234 1008h200l-354 -1321h-213l-264 934h-8l-250 -934h-213z" />
<glyph unicode="X" horiz-adv-x="1144" d="M-4 0l432 657l-397 654h262l299 -506l321 506h213l-415 -637l417 -674h-266l-311 524l-336 -524h-219z" />
<glyph unicode="Y" horiz-adv-x="1161" d="M8 1311h250l342 -594l385 594h199l-498 -748v-563h-223v518z" />
<glyph unicode="Z" horiz-adv-x="1046" d="M51 0v168l656 967l-639 2v174h901v-174l-654 -963l658 -4v-170h-922z" />
<glyph unicode="[" horiz-adv-x="548" d="M119 -131v1487h364v-107l-172 -2v-1270l172 -2v-106h-364z" />
<glyph unicode="\" horiz-adv-x="884" d="M-41 1325l147 45l814 -1470l-152 -45z" />
<glyph unicode="]" horiz-adv-x="548" d="M57 -25l170 2v1270l-170 2v107h363v-1487h-363v106z" />
<glyph unicode="^" horiz-adv-x="1077" d="M45 406l449 870l92 -2l434 -868h-166l-322 626l-317 -626h-170z" />
<glyph unicode="_" horiz-adv-x="856" d="M-43 -76h934v-90h-934v90z" />
<glyph unicode="`" horiz-adv-x="768" d="M143 1413h236l176 -242h-129z" />
<glyph unicode="a" horiz-adv-x="1017" d="M33 258q0 356 629 383v64q0 84 -57.5 138t-143.5 54q-143 0 -279 -41l2 107q137 94 320 94q162 0 266 -78q117 -86 117 -242v-393q0 -223 20 -246q12 -12 54 -12v-86q-170 -16 -195 -16q-86 0 -86 129q0 16 2 34q-53 -80 -149.5 -127t-194.5 -47q-127 0 -213 78 q-92 82 -92 207zM256 299q0 -76 48 -127t124 -51q90 0 165 69.5t75 159.5v164q-137 -6 -252 -49q-160 -61 -160 -166z" />
<glyph unicode="b" horiz-adv-x="1146" d="M111 0v1427h225v-559q143 188 366 189q203 0 302 -170q79 -138 79 -357q0 -221 -98 -376q-117 -180 -326 -181q-135 0 -321 58l-2 -31h-225zM336 186q139 -51 250 -51q137 0 213 117q65 101 65 248q0 139 -59 241q-72 123 -201 123q-100 0 -182 -63q-86 -70 -86 -168 v-447z" />
<glyph unicode="c" horiz-adv-x="944" d="M53 510q0 227 125 381q135 166 359 166q156 0 299 -66v-127q-100 47 -242 47q-156 0 -244 -125q-78 -111 -78 -270q0 -379 344 -381h14q184 0 275 51v-135q-158 -71 -349 -71h-5q-233 0 -369 151q-129 143 -129 379z" />
<glyph unicode="d" horiz-adv-x="1169" d="M55 498q0 233 95 383q113 176 333 176q217 0 320 -168v538h223v-1427h-223v90q-203 -117 -350 -117q-211 0 -314 164q-84 137 -84 361zM272 502q0 -141 64 -244q76 -121 209 -121q115 0 258 80v416q0 100 -84 165.5t-187 65.5q-127 0 -200 -123q-59 -104 -60 -239z" />
<glyph unicode="e" horiz-adv-x="1019" d="M49 524q0 231 123 377q131 156 358 156q213 0 322 -148q98 -131 98 -350q0 -25 -4 -74h-672q4 -160 99.5 -256t255.5 -96q174 0 276 53v-135q-143 -78 -348 -78q-244 0 -379 156q-129 147 -129 395zM281 629h485q-4 119 -59 198q-66 90 -179 91q-104 0 -176 -95 q-66 -84 -71 -194z" />
<glyph unicode="f" horiz-adv-x="718" d="M8 881v149l172 2l2 12v14q0 379 330 380q102 0 203 -35v-103q-66 10 -115 11q-192 0 -192 -197q0 -14 2 -41v-41l280 -2v-149l-280 -2l-2 -879h-226l-2 879z" />
<glyph unicode="g" horiz-adv-x="1114" d="M74 -238q150 -75 353 -75h5q121 0 236 37q157 51 157 142q0 93 -180 109q-168 8 -338 17q-182 20 -182 119q0 80 145 225q-190 106 -190 342q0 379 432 379q94 0 170 -23l334 31v-150q-51 4 -150 5q90 -100 90 -242q0 -176 -147 -291q-135 -104 -315 -104q-63 0 -134 16 q-37 -53 -36 -82q0 -63 145 -63q242 0 344 -31q195 -59 195 -242q0 -190 -207 -284q-158 -72 -375 -72q-178 0 -352 96v141zM295 674q0 -111 53 -187q59 -88 166 -88q106 0 168 86q55 78 55 189q0 106 -59.5 177t-163.5 71q-102 0 -160.5 -72t-58.5 -176z" />
<glyph unicode="h" horiz-adv-x="1161" d="M131 0v1427h223v-530q211 160 371 160q156 0 238 -107q72 -96 71 -256v-694h-223v618q0 127 -25 177q-38 75 -150 75h-3q-104 0 -279 -94v-776h-223z" />
<glyph unicode="i" horiz-adv-x="493" d="M119 1294q0 51 38 86t89 35t88 -35t37 -86q0 -49 -38 -83.5t-87 -34.5q-51 0 -89 34.5t-38 83.5zM131 0v1030h223v-1030h-223z" />
<glyph unicode="j" horiz-adv-x="518" d="M-145 -442l2 104q61 -14 112 -14h3q196 0 196 223v1159h223q-2 -369 -2 -1102q0 -405 -330 -405h-2q-102 0 -202 35zM158 1294q0 51 36.5 86t88.5 35q51 0 88 -35t37 -86q0 -49 -38 -83.5t-87 -34.5t-87 34.5t-38 83.5z" />
<glyph unicode="k" horiz-adv-x="993" d="M131 0v1427h223v-1427h-223zM354 520l426 510h221l-411 -479l440 -551h-274z" />
<glyph unicode="l" horiz-adv-x="493" d="M131 0v1427h223v-1427h-223z" />
<glyph unicode="m" horiz-adv-x="1769" d="M131 0v1030h223v-92q199 119 359 119q162 0 237 -135q246 135 391 135q156 0 238 -107q72 -96 72 -256v-694h-224v618q0 272 -196 273q-102 0 -242 -74q12 -61 12 -123v-694h-223v618q0 131 -24 187q-39 86 -152 86q-104 0 -248 -74v-817h-223z" />
<glyph unicode="n" horiz-adv-x="1161" d="M131 0v1030h223v-92q211 119 371 119q156 0 238 -107q72 -96 71 -256v-694h-223v618q0 131 -25 187q-39 86 -151 86q-111 0 -281 -74v-817h-223z" />
<glyph unicode="o" horiz-adv-x="1132" d="M51 524q0 254 129 393.5t381 139.5t381 -139.5t129 -393.5q0 -256 -125 -399q-133 -152 -385 -152q-250 0 -383 154q-127 143 -127 397zM268 518q0 -162 64 -268q78 -129 229 -129q152 0 230 129q63 106 63 268q0 158 -66 264q-80 127 -227 127t-225 -127 q-68 -106 -68 -264z" />
<glyph unicode="p" horiz-adv-x="1169" d="M135 -397v1427h223v-90q203 117 351 117q211 0 313 -164q84 -138 84 -361q0 -233 -94 -382q-113 -176 -334 -177q-217 0 -320 168v-538h-223zM358 397q0 -100 84 -165.5t187 -65.5q127 0 200 125q60 102 60 239q0 141 -64 244q-76 119 -209 119q-115 0 -258 -80v-416z " />
<glyph unicode="q" horiz-adv-x="1146" d="M53 500q0 221 101 377q115 180 325 180q135 0 320 -58l2 31h225v-1427h-225l-2 559q-143 -188 -365 -189q-203 0 -301 170q-80 137 -80 357zM272 530q0 -139 60 -241q72 -123 200 -123q100 0 184.5 66.5t84.5 164.5v447q-139 51 -250 51q-137 0 -213 -117 q-66 -100 -66 -248z" />
<glyph unicode="r" horiz-adv-x="737" d="M131 0v1030h223v-158l8 -2q94 186 359 187v-199q-35 12 -86 12q-137 0 -281 -155v-715h-223z" />
<glyph unicode="s" horiz-adv-x="882" d="M78 741q0 145 117 236q109 80 258 80q150 0 303 -68v-127q-111 53 -232 53q-90 0 -155 -30q-86 -39 -86 -117q0 -82 137 -135q240 -92 258 -103q137 -81 137 -235t-125 -244q-113 -78 -272 -78q-176 0 -330 97v163q57 -49 158 -81q94 -31 174 -31q74 0 127 37 q61 39 61 108q0 84 -137 137q-242 94 -256 103q-137 82 -137 235z" />
<glyph unicode="t" horiz-adv-x="712" d="M27 881v90q119 51 172 107.5t92 174.5l106 23l-2 -246h295v-149h-305v-533q0 -96 51 -162q54 -71 145 -71h3q66 0 135 16v-92q-84 -66 -242 -66q-154 0 -235 107q-74 96 -74 254l-2 393q0 90 2 154h-141z" />
<glyph unicode="u" horiz-adv-x="1161" d="M113 336v694h223v-618q0 -127 24 -176q39 -76 154 -76q104 0 279 94v776h223v-1030h-223v133q-211 -160 -371 -160q-156 0 -238 107q-72 96 -71 256z" />
<glyph unicode="v" horiz-adv-x="1056" d="M8 1030h252l285 -782l323 782h185l-430 -1036h-207z" />
<glyph unicode="w" horiz-adv-x="1513" d="M8 1030h252l215 -768l221 768h185l215 -768l221 768h184l-336 -1036h-188l-219 657l-213 -657h-191z" />
<glyph unicode="x" horiz-adv-x="1032" d="M-2 0l381 508l-371 522h277l254 -373l276 373h197l-361 -487l375 -543h-274l-263 387l-282 -387h-209z" />
<glyph unicode="y" horiz-adv-x="1060" d="M8 1030h252l285 -780l319 780h193l-625 -1511h-246l226 483z" />
<glyph unicode="z" horiz-adv-x="1019" d="M86 0v170l586 704l-576 3v153h817v-180l-583 -698l594 -2v-150h-838z" />
<glyph unicode="{" horiz-adv-x="536" d="M90 639v14q76 31 76 119v604q0 115 141 115h160v-98q-80 0 -102 -17q-29 -20 -29 -98v-494q0 -53 -36 -90t-89 -45v-8q53 -6 89 -45t36 -92v-492q0 -78 29 -98q23 -16 102 -16v-101h-160q-141 0 -141 117v602q0 92 -76 123z" />
<glyph unicode="|" horiz-adv-x="692" d="M313 -279v1885h66v-1885h-66z" />
<glyph unicode="}" horiz-adv-x="487" d="M51 -102q80 0 105.5 18t25.5 96v492q0 53 36 92t89 45v8q-53 8 -89 45t-36 90v494q0 78 -25.5 96.5t-105.5 18.5v98h160q141 0 141 -115v-606q0 -88 76 -119v-12q-76 -31 -76 -123v-602q0 -117 -141 -117h-160v101z" />
<glyph unicode="~" horiz-adv-x="1175" d="M164 672q84 55 237 55q68 0 196 -34t194 -34q127 0 210 68v-154q-82 -55 -239 -55q-66 0 -194 33t-195 33q-135 0 -207 -68z" />
<glyph unicode="&#xa1;" horiz-adv-x="430" d="M70 922q0 55 40 92t95 37t95 -37t40 -92t-40 -92t-95 -37t-95 36.5t-40 92.5zM94 -293l39 916h148l36 -916h-223z" />
<glyph unicode="&#xa2;" horiz-adv-x="944" d="M55 510q0 225 123 379q131 166 350 168v131h52v-131q143 -10 256 -86v-137q-92 76 -238 75h-18v-772h34q217 0 291 49v-114q-141 -82 -325 -92v-136h-52v136q-225 8 -352 157q-121 143 -121 373zM272 516q0 -326 256 -373v760q-256 -61 -256 -387z" />
<glyph unicode="&#xa3;" d="M127 150q121 59 149 186q10 45 13 248l-109 2v133l99 2q-10 156 2 270q18 156 120.5 254t257.5 98q147 0 291 -96l-49 -88q-102 33 -178 33q-98 0 -166 -69.5t-68 -168.5q0 -117 7 -233l262 -2v-133l-266 -2q-8 -293 -168 -410l2 -8q102 18 176 18q35 0 104.5 -7 t104.5 -7q109 0 258 63v-198q-84 -35 -252 -35q-51 0 -154.5 10t-156.5 10q-158 0 -230 -34z" />
<glyph unicode="&#xa5;" horiz-adv-x="1161" d="M8 1311h250l342 -594l385 594h199l-391 -592l217 -4v-86h-281l-43 -66l2 -164l322 -2v-84l-322 -2l-2 -311h-223l-2 311l-352 2v84l352 2l2 119l-66 111h-288v86l235 4z" />
<glyph unicode="&#xa6;" horiz-adv-x="489" d="M184 -33v602h121v-602h-121zM184 803v602h121v-602h-121z" />
<glyph unicode="&#xa7;" horiz-adv-x="1046" d="M160 606q0 174 162 264q-162 84 -162 248q0 145 116 236q109 80 259 80t303 -68v-127q-111 53 -232 53q-90 0 -155 -30q-86 -39 -86 -117q0 -82 137 -135q240 -92 258 -103q137 -82 137 -235q0 -174 -160 -266q160 -78 160 -246q0 -154 -125 -244q-113 -78 -272 -78 q-176 0 -330 96v164q57 -49 158 -82q94 -31 174 -30q74 0 127 37q61 39 61 108q0 84 -137 137q-242 94 -256 103q-137 82 -137 235zM365 631q0 -82 131 -133h6q74 0 127 37q61 40 61 110q0 84 -127 133q-199 -18 -198 -147z" />
<glyph unicode="&#xa8;" horiz-adv-x="768" d="M90 1280q0 39 30 66.5t70 27.5q41 0 73 -28.5t32 -69.5q0 -39 -29.5 -66.5t-72.5 -27.5q-41 0 -72 27.5t-31 70.5zM463 1280q0 39 29.5 65.5t70.5 26.5t72 -28.5t31 -69.5q0 -39 -30 -65.5t-71 -26.5t-71.5 28.5t-30.5 69.5z" />
<glyph unicode="&#xa9;" horiz-adv-x="1587" d="M86 678q0 293 208 499.5t501 206.5t500.5 -206.5t207.5 -499.5t-208 -501t-500 -208q-293 0 -501 208t-208 501zM158 678q0 -264 186 -450.5t451 -186.5q262 0 449.5 187.5t187.5 449.5t-187.5 448.5t-449.5 186.5t-449.5 -186.5t-187.5 -448.5zM401 657q0 190 122 314.5 t313 126.5q35 0 101.5 -15.5t98.5 -15.5q39 0 47 31h39l15 -271l-41 -2q-27 96 -92 156q-72 61 -168 61q-135 0 -215 -135q-70 -115 -70 -260q0 -141 63 -229q74 -102 209 -103q170 0 281 125l43 -18q-135 -174 -338 -172q-182 0 -295 113.5t-113 293.5z" />
<glyph unicode="&#xaa;" horiz-adv-x="632" d="M2 983q0 88 76 135q59 37 168 56q84 10 166 20v31q0 47 -39 75.5t-88 28.5q-76 0 -164 -20l-21 57q125 53 211 53q98 0 164 -39q80 -45 80 -137v-237q0 -66 2 -72q6 -41 45 -43v-47q-78 -8 -119 -8q-68 0 -59 96h-2q-74 -104 -219 -105q-76 0 -133 39q-68 43 -68 117z M152 1004q0 -43 32.5 -67t75.5 -24q53 0 98 29q54 31 54 82v94q-113 -14 -154 -26q-106 -29 -106 -88z" />
<glyph unicode="&#xab;" horiz-adv-x="854" d="M63 559l250 354l127 -26l-190 -328l190 -330l-127 -26zM406 559l249 354l129 -26l-188 -328l188 -330l-129 -26z" />
<glyph unicode="&#xad;" horiz-adv-x="608" d="M80 473v170h446v-170h-446z" />
<glyph unicode="&#xae;" horiz-adv-x="1587" d="M86 672q0 293 207 500.5t500 207.5t500.5 -207.5t207.5 -500.5t-208 -500t-500 -207q-293 0 -500 207t-207 500zM158 672q0 -264 185 -450.5t450 -186.5q264 0 450.5 186.5t186.5 450.5t-186.5 450.5t-450.5 186.5t-449.5 -186.5t-185.5 -450.5zM422 279v32 q57 0 79.5 21.5t22.5 77.5v555q0 66 -14 83t-76 17v37h363q111 0 188 -53q90 -61 90 -168q0 -82 -57 -136.5t-144 -66.5l228 -305q43 -57 98 -60v-34h-190l-283 383h-65v-287q0 -61 108 -62v-34h-348zM659 707q281 27 281 170q0 156 -240 155q-27 0 -38 -2z" />
<glyph unicode="&#xaf;" horiz-adv-x="768" d="M94 1202v127h572v-127h-572z" />
<glyph unicode="&#xb0;" horiz-adv-x="657" d="M88 1214q0 102 72.5 174t173.5 72q98 0 169.5 -72.5t71.5 -170.5q0 -102 -69.5 -176t-171.5 -74t-174 72.5t-72 174.5zM156 1210q0 -74 52 -127t126 -53t124 54t50 130q0 72 -52.5 125.5t-123.5 53.5q-74 0 -125 -54.5t-51 -128.5z" />
<glyph unicode="&#xb2;" horiz-adv-x="569" d="M33 1124v111q119 92 241 92q111 0 181 -49q82 -57 82 -162q0 -88 -54 -162q-37 -47 -123 -116q-96 -76 -129 -113h306v-137h-500v102q51 61 160 176q172 156 172 234q0 100 -127 100q-109 0 -209 -76z" />
<glyph unicode="&#xb3;" horiz-adv-x="569" d="M33 631v110q98 -51 203 -51q57 0 94 31t37 82q0 115 -170 115q-25 0 -78 -9l-13 92q223 72 224 146q0 61 -86 61q-104 0 -195 -65v110q109 74 221 74q219 0 219 -176q1 -97 -112 -156q160 -39 160 -186q0 -113 -81 -176.5t-200 -63.5q-106 0 -223 62z" />
<glyph unicode="&#xb4;" horiz-adv-x="768" d="M203 1171l178 242h233l-280 -242h-131z" />
<glyph unicode="&#xb6;" horiz-adv-x="962" d="M49 1038q0 340 373 340q39 0 116.5 -3t114.5 -3t109 4t106 4v-22q-43 -25 -43 -121v-1262q0 -100 43 -120v-23l-141 6v1448h-70v-1448q-74 0 -151 -6v23q43 20 43 120v1311q-39 8 -88 8q-211 0 -211 -268q0 -133 63 -215q37 -47 117 -90q63 -35 64 -57q0 -37 -41 -37 q-29 0 -105 26q-299 104 -299 385z" />
<glyph unicode="&#xb7;" horiz-adv-x="473" d="M102 524q0 55 39 91t95 36q53 0 92 -36t39 -89q0 -55 -39 -90t-95 -35q-53 0 -92 36t-39 87z" />
<glyph unicode="&#xb8;" horiz-adv-x="768" d="M256 -260q10 -2 35 -2q102 0 102 78q0 25 -26.5 48t-55.5 30l49 102h74l-45 -90q43 -10 74 -44t31 -77q0 -49 -54 -76q-41 -20 -98 -20q-51 0 -86 16v35z" />
<glyph unicode="&#xb9;" horiz-adv-x="569" d="M111 1087v93l198 129h148v-721h-166v563z" />
<glyph unicode="&#xba;" horiz-adv-x="706" d="M12 1126q0 147 97 224q86 70 239 69q334 0 334 -293q0 -150 -94 -227q-86 -72 -240 -72t-242 72q-94 78 -94 227zM160 1124q0 -94 47 -149q49 -61 141 -62q90 0 138.5 59.5t48.5 151.5q0 90 -49.5 144.5t-137.5 54.5t-138 -54.5t-50 -144.5z" />
<glyph unicode="&#xbb;" horiz-adv-x="854" d="M63 229l189 330l-189 328l127 26l250 -354l-250 -356zM406 229l190 330l-190 328l126 26l252 -354l-252 -356z" />
<glyph unicode="&#xbc;" horiz-adv-x="1409" d="M98 1087v93q66 43 199 129h147v-721h-165v563zM160 -8l956 1358l107 -27l-959 -1358zM733 164v110l314 453h180v-442h84v-121h-84v-164h-162l-2 164h-330zM887 285h176v254z" />
<glyph unicode="&#xbd;" horiz-adv-x="1409" d="M84 1087v93q63 43 197 129h149v-721h-166v563zM145 -8l957 1358l106 -27l-958 -1358zM821 537v110q121 92 244 92q109 0 180 -49q80 -57 80 -162q0 -88 -53 -161q-37 -47 -123 -117q-96 -76 -129 -113h305v-137h-498v102q49 61 158 177q172 156 172 233q0 100 -127 100 q-109 0 -209 -75z" />
<glyph unicode="&#xbe;" horiz-adv-x="1409" d="M74 631v110q98 -51 200 -51q59 0 96.5 31t37.5 82q0 115 -172 115q-23 0 -78 -9l-11 92q223 72 224 146q0 61 -88 61q-104 0 -195 -65v110q111 74 221 74q221 0 221 -176q1 -97 -112 -156q158 -39 157 -186q0 -113 -80.5 -176.5t-197.5 -63.5q-106 0 -223 62zM184 -8 l957 1358l106 -27l-958 -1358zM760 164v110l311 453h180v-442h84v-121h-84v-164h-161l-3 164h-327zM913 285h174l3 254z" />
<glyph unicode="&#xbf;" horiz-adv-x="913" d="M82 -2q0 119 82 215q33 39 174 156q121 98 121 219q0 35 -6 88h176q6 -45 6 -92q0 -111 -90 -209q-82 -78 -166 -156q-90 -92 -90 -188q0 -104 108 -158q86 -43 201 -43q129 0 248 53v-102q-137 -104 -369 -105q-160 0 -270 80q-125 88 -125 242zM412 924q0 55 40 92 t95 37t95 -37t40 -92t-40 -92t-95 -37t-95 36.5t-40 92.5z" />
<glyph unicode="&#xc0;" horiz-adv-x="1214" d="M-18 0l485 1321h270l482 -1321h-250l-127 360h-533l-129 -360h-198zM342 1669h233l179 -242h-129zM367 524h421l-210 604z" />
<glyph unicode="&#xc1;" horiz-adv-x="1214" d="M-18 0l485 1321h270l482 -1321h-250l-127 360h-533l-129 -360h-198zM367 524h421l-210 604zM461 1427l178 242h233l-280 -242h-131z" />
<glyph unicode="&#xc2;" horiz-adv-x="1214" d="M-18 0l485 1321h270l482 -1321h-250l-127 360h-533l-129 -360h-198zM346 1427l133 242h254l129 -242h-112l-144 172l-149 -172h-111zM367 524h421l-210 604z" />
<glyph unicode="&#xc3;" horiz-adv-x="1214" d="M-20 0l485 1321h270l482 -1321h-250l-127 360h-533l-129 -360h-198zM322 1444v151q55 55 159 56q47 0 133 -35t129 -35q78 0 142 64v-152q-59 -51 -162 -51q-45 0 -131 32.5t-131 32.5q-86 0 -139 -63zM365 524h421l-211 604z" />
<glyph unicode="&#xc4;" horiz-adv-x="1214" d="M-18 4l485 1321h270l482 -1321h-250l-127 361h-533l-129 -361h-198zM313 1536q0 39 31 66.5t70 27.5q43 0 73.5 -27.5t30.5 -70.5q0 -39 -29.5 -65.5t-70.5 -26.5t-73 27.5t-32 68.5zM367 528h421l-210 605zM686 1532q0 41 29.5 68.5t70.5 27.5t72 -27.5t31 -68.5 q0 -39 -30 -67.5t-71 -28.5t-71.5 27.5t-30.5 68.5z" />
<glyph unicode="&#xc5;" horiz-adv-x="1214" d="M-18 0l485 1321h270l482 -1321h-250l-127 360h-533l-129 -360h-198zM367 524h421l-210 604zM432 1591q0 70 50 117t120 47t122 -47t52 -117t-52 -117t-122 -47q-68 0 -119 48.5t-51 115.5zM502 1591q0 -39 30.5 -67.5t69.5 -28.5q41 0 72 27.5t31 68.5t-31 69t-72 28 q-39 0 -69.5 -29t-30.5 -68z" />
<glyph unicode="&#xc6;" horiz-adv-x="1658" d="M-109 0l719 1311h983v-170l-635 -2v-383l558 -2v-162l-558 -2v-418l635 -2v-170h-860l-2 358l-448 2l-193 -360h-199zM371 524l360 -2l2 641l-8 2z" />
<glyph unicode="&#xc7;" horiz-adv-x="1157" d="M47 664q0 274 175 468.5t444 210.5q186 12 393 -88v-129q-43 12 -86 23q-104 23 -193 25q-223 4 -364 -140q-147 -147 -148 -397q0 -213 111 -354q121 -154 328 -154q213 0 411 84v-131q-80 -47 -213 -80q-121 -31 -219 -35l-31 -61q43 -10 74 -44t31 -77q0 -49 -53 -76 q-41 -20 -99 -20q-51 0 -86 16v35q10 -2 35 -2q102 0 102 78q0 25 -26.5 48t-54.5 30l36 75q-262 20 -417 226q-150 195 -150 469z" />
<glyph unicode="&#xc8;" horiz-adv-x="1032" d="M131 0v1311h860v-170l-635 -2v-383l555 -2v-162l-555 -2v-418l635 -2v-170h-860zM250 1669h233l179 -242h-130z" />
<glyph unicode="&#xc9;" horiz-adv-x="1032" d="M131 0v1311h860v-170l-635 -2v-383l555 -2v-162l-555 -2v-418l635 -2v-170h-860zM465 1427l178 242h234l-281 -242h-131z" />
<glyph unicode="&#xca;" horiz-adv-x="1032" d="M131 0v1311h860v-170l-635 -2v-383l555 -2v-162l-555 -2v-418l635 -2v-170h-860zM256 1427l133 242h254l129 -242h-113l-143 172l-149 -172h-111z" />
<glyph unicode="&#xcb;" horiz-adv-x="1032" d="M131 4v1311h860v-170l-635 -2v-383l555 -2v-162l-555 -2v-418l635 -2v-170h-860zM225 1538q0 39 30 65.5t71 26.5t71.5 -28.5t30.5 -69.5q0 -39 -29.5 -65.5t-70.5 -26.5t-72 28.5t-31 69.5zM596 1534q0 39 29.5 66.5t70.5 27.5q43 0 73 -27.5t30 -70.5q0 -39 -30 -65.5 t-71 -26.5t-71.5 27.5t-30.5 68.5z" />
<glyph unicode="&#xcc;" horiz-adv-x="493" d="M-31 1669h234l178 -242h-131zM131 0v1311h223v-1311h-223z" />
<glyph unicode="&#xcd;" horiz-adv-x="493" d="M100 1427l179 242h235l-283 -242h-131zM131 0v1311h223v-1311h-223z" />
<glyph unicode="&#xce;" horiz-adv-x="493" d="M-14 1427l133 242h254l129 -242h-111l-143 172l-150 -172h-112zM131 0v1311h223v-1311h-223z" />
<glyph unicode="&#xcf;" horiz-adv-x="493" d="M-45 1536q0 39 29.5 66.5t70.5 27.5t72 -27.5t31 -68.5q0 -39 -30 -66.5t-71 -27.5t-71.5 27.5t-30.5 68.5zM131 4v1311h223v-1311h-223zM326 1534q0 39 29.5 66.5t70.5 27.5t72.5 -28.5t31.5 -69.5q0 -39 -29.5 -66.5t-72.5 -27.5q-41 0 -71.5 27.5t-30.5 70.5z" />
<glyph unicode="&#xd0;" horiz-adv-x="1327" d="M80 616v170h51v525h559q254 0 416 -181q156 -174 156 -432q0 -301 -186.5 -499.5t-485.5 -198.5h-459v616h-51zM356 180q195 -10 232 -10q209 0 332 158q113 143 112 358q0 203 -136 330t-343 129q-31 0 -197 -10v-349h170v-170h-170v-436z" />
<glyph unicode="&#xd1;" horiz-adv-x="1312" d="M131 0v1311h281l561 -971v971h192v-1319h-250l-591 1026v-1018h-193zM371 1444v151q55 55 159 56q47 0 133.5 -35t129.5 -35q78 0 141 64v-152q-57 -51 -164 -51q-45 0 -130 32.5t-130 32.5q-86 0 -139 -63z" />
<glyph unicode="&#xd2;" horiz-adv-x="1339" d="M49 670q0 301 156 481q164 193 461 192q301 0 462 -190q152 -178 152 -483q0 -297 -156 -492q-168 -211 -456 -211q-295 0 -463 209q-156 193 -156 494zM272 670q0 -223 82 -369q102 -178 310 -178q209 0 309 178q82 144 82 369q0 213 -86 344q-100 156 -303 155 q-205 0 -308 -153q-86 -131 -86 -346zM401 1669h236l176 -242h-129z" />
<glyph unicode="&#xd3;" horiz-adv-x="1339" d="M49 670q0 301 156 481q164 193 461 192q301 0 462 -190q152 -178 152 -483q0 -297 -156 -492q-168 -211 -456 -211q-295 0 -463 209q-156 193 -156 494zM272 670q0 -223 82 -369q102 -178 310 -178q209 0 309 178q82 144 82 369q0 213 -86 344q-100 156 -303 155 q-205 0 -308 -153q-86 -131 -86 -346zM522 1427l178 242h236l-283 -242h-131z" />
<glyph unicode="&#xd4;" horiz-adv-x="1339" d="M49 670q0 301 156 481q164 193 461 192q301 0 462 -190q152 -178 152 -483q0 -297 -156 -492q-168 -211 -456 -211q-295 0 -463 209q-156 193 -156 494zM272 670q0 -223 82 -369q102 -178 310 -178q209 0 309 178q82 144 82 369q0 213 -86 344q-100 156 -303 155 q-205 0 -308 -153q-86 -131 -86 -346zM408 1427l133 242h254l129 -242h-111l-143 172l-150 -172h-112z" />
<glyph unicode="&#xd5;" horiz-adv-x="1339" d="M49 670q0 301 156 481q164 193 461 192q301 0 462 -190q152 -178 152 -483q0 -297 -156 -492q-168 -211 -456 -211q-295 0 -463 209q-156 193 -156 494zM272 670q0 -223 82 -369q102 -178 310 -178q209 0 309 178q82 144 82 369q0 213 -86 344q-100 156 -303 155 q-205 0 -308 -153q-86 -131 -86 -346zM385 1444v151q55 55 158 56q47 0 134 -35t130 -35q78 0 141 64v-152q-63 -51 -164 -51q-45 0 -130 32.5t-130 32.5q-86 0 -139 -63z" />
<glyph unicode="&#xd6;" horiz-adv-x="1339" d="M49 674q0 301 156 481q164 193 461 193q301 0 462 -191q152 -178 152 -483q0 -297 -156 -492q-168 -211 -456 -211q-295 0 -463 209q-156 193 -156 494zM272 674q0 -223 82 -369q102 -178 310 -178q209 0 309 178q82 144 82 369q0 213 -86 344q-100 156 -303 156 q-205 0 -308 -154q-86 -131 -86 -346zM377 1536q0 39 29.5 66.5t70.5 27.5t72 -27.5t31 -68.5q0 -39 -30 -66.5t-71 -27.5t-71.5 27.5t-30.5 68.5zM748 1534q0 39 29.5 66.5t70.5 27.5q43 0 73.5 -27.5t30.5 -70.5q0 -39 -29.5 -65.5t-70.5 -26.5t-72.5 27.5t-31.5 68.5z " />
<glyph unicode="&#xd7;" horiz-adv-x="1024" d="M133 102l301 306l-301 301l76 79l303 -303l305 308l76 -78l-303 -307l303 -306l-76 -79l-305 307l-303 -307z" />
<glyph unicode="&#xd8;" horiz-adv-x="1339" d="M49 666q0 303 154 485q164 193 463 192q195 0 327 -79l103 159l78 -43l-109 -166q215 -182 215 -540q0 -299 -154 -494q-168 -213 -460 -213q-195 0 -336 92l-97 -151l-77 47l102 160q-209 201 -209 551zM272 676q0 -246 95 -393l522 815q-90 70 -223 69 q-201 0 -304 -149q-90 -131 -90 -342zM426 211q94 -88 238 -88q205 0 307 174q84 143 84 362q0 240 -101 377z" />
<glyph unicode="&#xd9;" horiz-adv-x="1282" d="M127 502v809h221v-752q0 -215 43 -301q63 -131 256 -131q190 0 254 121q43 82 43 293v770h203v-783q0 -274 -113 -411q-123 -150 -393 -150q-514 0 -514 535zM375 1669h233l176 -242h-129z" />
<glyph unicode="&#xda;" horiz-adv-x="1282" d="M127 502v809h221v-752q0 -215 43 -301q63 -131 256 -131q190 0 254 121q43 82 43 293v770h203v-783q0 -274 -113 -411q-123 -150 -393 -150q-514 0 -514 535zM494 1427l180 242h233l-282 -242h-131z" />
<glyph unicode="&#xdb;" horiz-adv-x="1282" d="M127 502v809h221v-752q0 -215 43 -301q63 -131 256 -131q190 0 254 121q43 82 43 293v770h203v-783q0 -274 -113 -411q-123 -150 -393 -150q-514 0 -514 535zM379 1427l133 242h254l131 -242h-113l-143 172l-149 -172h-113z" />
<glyph unicode="&#xdc;" horiz-adv-x="1282" d="M127 506v809h221v-752q0 -215 43 -301q63 -131 256 -131q190 0 254 121q43 82 43 293v770h203v-783q0 -274 -113 -411q-123 -150 -393 -150q-514 0 -514 535zM348 1536q0 39 30 66.5t71 27.5q43 0 73.5 -27.5t30.5 -70.5q0 -39 -29.5 -65.5t-72.5 -26.5q-41 0 -72 27.5 t-31 68.5zM721 1536q0 39 29.5 65.5t70.5 26.5t72 -28.5t31 -69.5q0 -39 -30 -65.5t-71 -26.5t-71.5 28.5t-30.5 69.5z" />
<glyph unicode="&#xdd;" horiz-adv-x="1161" d="M8 1311h250l342 -594l385 594h199l-498 -748v-563h-223v518zM530 1427l179 242h235l-282 -242h-132z" />
<glyph unicode="&#xde;" horiz-adv-x="1089" d="M131 0v1311h223v-205h277q424 0 424 -383q0 -205 -172 -330q-154 -109 -369 -110l-158 -2l-2 -281h-223zM356 446q57 -4 172 -10q121 -2 209 78t88 201q0 129 -80 182q-63 43 -198 43q-63 0 -191 -8v-486z" />
<glyph unicode="&#xdf;" horiz-adv-x="1091" d="M133 0v936q0 201 103 326q111 135 309 135q154 0 256 -64q125 -76 125 -221q0 -100 -68 -180q-23 -27 -129 -115q-68 -57 -67 -100q0 -23 102 -70q129 -59 188 -112q103 -91 103 -218q0 -154 -97.5 -249t-250.5 -95q-117 0 -256 78v107q141 -47 221 -47q84 0 136 52 t52 136q0 88 -102 156q-96 53 -193 108q-102 63 -102 139q0 74 65 132q59 49 121 98q66 61 66 143q0 72 -51.5 114t-122.5 42q-184 0 -185 -266v-965h-223z" />
<glyph unicode="&#xe0;" horiz-adv-x="1017" d="M33 258q0 356 629 383v64q0 84 -57.5 138t-143.5 54q-143 0 -279 -41l2 107q137 94 320 94q162 0 266 -78q117 -86 117 -242v-393q0 -223 20 -246q12 -12 54 -12v-86q-170 -16 -195 -16q-86 0 -86 129q0 16 2 34q-53 -80 -149.5 -127t-194.5 -47q-127 0 -213 78 q-92 82 -92 207zM252 1397h233l179 -242h-132zM256 299q0 -76 48 -127t124 -51q90 0 165 69.5t75 159.5v164q-137 -6 -252 -49q-160 -61 -160 -166z" />
<glyph unicode="&#xe1;" horiz-adv-x="1017" d="M33 258q0 356 629 383v64q0 84 -57.5 138t-143.5 54q-143 0 -279 -41l2 107q137 94 320 94q162 0 266 -78q117 -86 117 -242v-393q0 -223 20 -246q12 -12 54 -12v-86q-170 -16 -195 -16q-86 0 -86 129q0 16 2 34q-53 -80 -149.5 -127t-194.5 -47q-127 0 -213 78 q-92 82 -92 207zM256 299q0 -76 48 -127t124 -51q90 0 165 69.5t75 159.5v164q-137 -6 -252 -49q-160 -61 -160 -166zM385 1155l178 242h236l-283 -242h-131z" />
<glyph unicode="&#xe2;" horiz-adv-x="1017" d="M33 258q0 356 629 383v64q0 84 -57.5 138t-143.5 54q-143 0 -279 -41l2 107q137 94 320 94q162 0 266 -78q117 -86 117 -242v-393q0 -223 20 -246q12 -12 54 -12v-86q-170 -16 -195 -16q-86 0 -86 129q0 16 2 34q-53 -80 -149.5 -127t-194.5 -47q-127 0 -213 78 q-92 82 -92 207zM248 1155l133 242h254l129 -242h-113l-145 172l-146 -172h-112zM256 299q0 -76 48 -127t124 -51q90 0 165 69.5t75 159.5v164q-137 -6 -252 -49q-160 -61 -160 -166z" />
<glyph unicode="&#xe3;" horiz-adv-x="1017" d="M31 258q0 356 628 383v64q0 84 -57 138t-143 54q-143 0 -279 -41l2 107q137 94 320 94q162 0 266 -78q117 -86 117 -242v-393q0 -223 20 -246q12 -12 53 -12v-86q-170 -16 -194 -16q-86 0 -86 129q0 16 2 34q-53 -80 -149.5 -127t-194.5 -47q-127 0 -213 78 q-92 82 -92 207zM223 1325q59 53 160 53q47 0 134 -34.5t130 -34.5q80 0 139 63v-151q-59 -51 -161 -52q-45 0 -130 33t-130 33q-86 0 -140 -64zM254 299q0 -76 48 -127t124 -51q90 0 165 69.5t75 159.5v164q-137 -6 -252 -49q-160 -61 -160 -166z" />
<glyph unicode="&#xe4;" horiz-adv-x="1017" d="M33 262q0 356 629 383v64q0 84 -57.5 138t-143.5 54q-143 0 -279 -41l2 107q137 94 320 94q162 0 266 -78q117 -86 117 -242v-393q0 -223 20 -246q12 -12 54 -12v-86q-170 -16 -195 -16q-86 0 -86 129q0 16 2 35q-53 -80 -149.5 -127.5t-194.5 -47.5q-127 0 -213 78 q-92 82 -92 207zM217 1264q0 39 29.5 66.5t70.5 27.5q43 0 73 -27.5t30 -70.5q0 -39 -30 -66t-71 -27t-71.5 28t-30.5 69zM256 303q0 -76 48 -127t124 -51q90 0 165 69.5t75 159.5v164q-137 -6 -252 -49q-160 -61 -160 -166zM588 1262q0 39 29.5 66.5t70.5 27.5t72 -27.5 t31 -68.5q0 -39 -30 -67t-71 -28t-71.5 28t-30.5 69z" />
<glyph unicode="&#xe5;" horiz-adv-x="1017" d="M33 258q0 356 629 383v64q0 84 -57.5 138t-143.5 54q-143 0 -279 -41l2 107q137 94 320 94q162 0 266 -78q117 -86 117 -242v-393q0 -223 20 -246q12 -12 54 -12v-86q-170 -16 -195 -16q-86 0 -86 129q0 16 2 34q-53 -80 -149.5 -127t-194.5 -47q-127 0 -213 78 q-92 82 -92 207zM256 299q0 -76 48 -127t124 -51q90 0 165 69.5t75 159.5v164q-137 -6 -252 -49q-160 -61 -160 -166zM334 1337q0 68 51 116t121 48t121 -48t51 -116t-51.5 -115.5t-120.5 -47.5q-70 0 -121 48t-51 115zM408 1337q0 -41 29.5 -68.5t70.5 -27.5t70.5 27.5 t29.5 68.5q0 39 -30.5 68t-69.5 29t-69.5 -29t-30.5 -68z" />
<glyph unicode="&#xe6;" horiz-adv-x="1609" d="M33 258q0 348 626 385q0 10 3 31v31q0 80 -59.5 136t-141.5 56q-143 0 -279 -41l2 107q150 94 320 94q207 0 307 -121q127 121 330 121q211 0 321 -148q101 -131 101 -350l-7 -74h-671q4 -160 99 -256t255 -96q156 0 277 53v-135q-137 -78 -351 -78q-276 0 -403 203 q-66 -82 -193 -142.5t-231 -60.5q-127 0 -213 78q-92 82 -92 207zM254 299q0 -76 48 -127t124 -51q74 0 157.5 47.5t116.5 110.5q-39 113 -43 235q-403 -47 -403 -215zM891 629h485q-4 119 -59 198q-66 90 -178 91q-104 0 -176 -95q-66 -84 -72 -194z" />
<glyph unicode="&#xe7;" horiz-adv-x="944" d="M53 510q0 227 125 381q135 166 359 166q156 0 299 -66v-127q-100 47 -242 47q-156 0 -244 -125q-78 -111 -78 -270q0 -379 344 -381q195 -2 289 51v-135q-152 -68 -336 -71l-37 -74q43 -10 74 -44t31 -77q0 -49 -53 -76q-41 -20 -99 -20q-51 0 -86 16v35q10 -2 35 -2 q102 0 103 78q0 25 -27 48t-55 30l43 88q-209 18 -327 163.5t-118 364.5z" />
<glyph unicode="&#xe8;" horiz-adv-x="1019" d="M49 524q0 231 123 377q131 156 358 156q213 0 322 -148q98 -131 98 -350q0 -25 -4 -74h-672q4 -160 99.5 -256t255.5 -96q174 0 276 53v-135q-143 -78 -348 -78q-244 0 -379 156q-129 147 -129 395zM254 1397h233l177 -242h-129zM281 629h485q-4 119 -59 198 q-66 90 -179 91q-104 0 -176 -95q-66 -84 -71 -194z" />
<glyph unicode="&#xe9;" horiz-adv-x="1019" d="M49 524q0 231 123 377q131 156 358 156q213 0 322 -148q98 -131 98 -350q0 -25 -4 -74h-672q4 -160 99.5 -256t255.5 -96q174 0 276 53v-135q-143 -78 -348 -78q-244 0 -379 156q-129 147 -129 395zM281 629h485q-4 119 -59 198q-66 90 -179 91q-104 0 -176 -95 q-66 -84 -71 -194zM387 1155l178 242h236l-283 -242h-131z" />
<glyph unicode="&#xea;" horiz-adv-x="1019" d="M49 524q0 231 123 377q131 156 358 156q213 0 322 -148q98 -131 98 -350q0 -25 -4 -74h-672q4 -160 99.5 -256t255.5 -96q174 0 276 53v-135q-143 -78 -348 -78q-244 0 -379 156q-129 147 -129 395zM250 1155l133 242h254l129 -242h-113l-145 172l-146 -172h-112z M281 629h485q-4 119 -59 198q-66 90 -179 91q-104 0 -176 -95q-66 -84 -71 -194z" />
<glyph unicode="&#xeb;" horiz-adv-x="1019" d="M49 524q0 231 123 377q131 156 358 156q213 0 322 -148q98 -131 98 -350q0 -25 -4 -74h-672q4 -160 99.5 -256t255.5 -96q174 0 276 53v-135q-143 -78 -348 -78q-244 0 -379 156q-129 147 -129 395zM219 1264q0 39 30 66.5t70 27.5q43 0 73 -27.5t30 -70.5q0 -39 -30 -66 t-70 -27q-41 0 -72 28t-31 69zM281 629h485q-4 119 -59 198q-66 90 -179 91q-104 0 -176 -95q-66 -84 -71 -194zM590 1262q0 39 29.5 66.5t70.5 27.5t72 -27.5t31 -68.5q0 -39 -30 -67t-71 -28t-71.5 28t-30.5 69z" />
<glyph unicode="&#xec;" horiz-adv-x="493" d="M-45 1397h235l177 -242h-129zM131 0v1030h223v-1030h-223z" />
<glyph unicode="&#xed;" horiz-adv-x="493" d="M123 1155l178 242h236l-283 -242h-131zM131 0v1030h223v-1030h-223z" />
<glyph unicode="&#xee;" horiz-adv-x="493" d="M-14 1155l133 242h254l129 -242h-111l-143 172l-150 -172h-112zM131 0v1030h223v-1030h-223z" />
<glyph unicode="&#xef;" horiz-adv-x="493" d="M-45 1264q0 39 29.5 66.5t70.5 27.5t72 -27.5t31 -68.5q0 -39 -30 -67t-71 -28t-71.5 28t-30.5 69zM131 4v1030h223v-1030h-223zM326 1262q0 39 29.5 66.5t70.5 27.5t72.5 -29t31.5 -70q0 -39 -29.5 -66.5t-72.5 -27.5q-41 0 -71.5 28t-30.5 71z" />
<glyph unicode="&#xf0;" horiz-adv-x="1132" d="M51 524q0 254 129 393.5t381 139.5q100 0 184 -23q-92 162 -249 250l-52 -86l-63 39l55 86q-45 23 -90 31l23 51q53 -8 106 -23l43 70l64 -25l-39 -65q260 -90 397 -320q133 -217 133 -524l-4 -41q-12 -236 -137 -366q-131 -137 -371 -138q-250 0 -383 154 q-127 143 -127 397zM268 518q0 -162 64 -268q78 -129 229 -129q152 0 230 129q63 106 63 268q0 158 -66 264q-80 127 -227 127t-225 -127q-68 -106 -68 -264z" />
<glyph unicode="&#xf1;" horiz-adv-x="1161" d="M129 0v1030h223v-92q211 119 371 119q156 0 238 -107q72 -96 71 -256v-694h-223v618q0 131 -25 187q-39 86 -151 86q-111 0 -281 -74v-817h-223zM295 1325q59 53 160 53q47 0 134 -34.5t130 -34.5q80 0 139 63v-151q-59 -51 -162 -52q-45 0 -130 33t-130 33 q-86 0 -139 -64z" />
<glyph unicode="&#xf2;" horiz-adv-x="1132" d="M51 524q0 254 129 393.5t381 139.5t381 -139.5t129 -393.5q0 -256 -125 -399q-133 -152 -385 -152q-250 0 -383 154q-127 143 -127 397zM268 518q0 -162 64 -268q78 -129 229 -129q152 0 230 129q63 106 63 268q0 158 -66 264q-80 127 -227 127t-225 -127 q-68 -106 -68 -264zM309 1397h236l176 -242h-129z" />
<glyph unicode="&#xf3;" horiz-adv-x="1132" d="M51 524q0 254 129 393.5t381 139.5t381 -139.5t129 -393.5q0 -256 -125 -399q-133 -152 -385 -152q-250 0 -383 154q-127 143 -127 397zM268 518q0 -162 64 -268q78 -129 229 -129q152 0 230 129q63 106 63 268q0 158 -66 264q-80 127 -227 127t-225 -127 q-68 -106 -68 -264zM444 1155l179 242h233l-281 -242h-131z" />
<glyph unicode="&#xf4;" horiz-adv-x="1132" d="M51 524q0 254 129 393.5t381 139.5t381 -139.5t129 -393.5q0 -256 -125 -399q-133 -152 -385 -152q-250 0 -383 154q-127 143 -127 397zM268 518q0 -162 64 -268q78 -129 229 -129q152 0 230 129q63 106 63 268q0 158 -66 264q-80 127 -227 127t-225 -127 q-68 -106 -68 -264zM305 1155l133 242h254l131 -242h-112l-144 172l-149 -172h-113z" />
<glyph unicode="&#xf5;" horiz-adv-x="1132" d="M51 524q0 254 129 393.5t381 139.5t381 -139.5t129 -393.5q0 -256 -125 -399q-133 -152 -385 -152q-250 0 -383 154q-127 143 -127 397zM268 518q0 -162 64 -268q78 -129 229 -129q152 0 230 129q63 106 63 268q0 158 -66 264q-80 127 -227 127t-225 -127 q-68 -106 -68 -264zM283 1171l2 154q57 53 155 53q47 0 134.5 -34.5t130.5 -34.5q78 0 141 63v-151q-63 -51 -164 -52q-45 0 -130 33t-130 33q-86 0 -139 -64z" />
<glyph unicode="&#xf6;" horiz-adv-x="1132" d="M51 528q0 254 129 393.5t381 139.5t381 -139.5t129 -393.5q0 -256 -125 -399q-133 -152 -385 -152q-250 0 -383 154q-127 143 -127 397zM268 522q0 -162 64 -268q78 -129 229 -129q152 0 230 129q63 106 63 268q0 158 -66 264q-80 127 -227 127t-225 -127 q-68 -106 -68 -264zM276 1266q0 39 30 65.5t71 26.5t71.5 -28.5t30.5 -69.5q0 -39 -29.5 -66t-70.5 -27t-72 29t-31 70zM647 1264q0 39 30 65.5t71 26.5t71.5 -29t30.5 -70q0 -39 -29.5 -65.5t-70.5 -26.5t-72 29t-31 70z" />
<glyph unicode="&#xf8;" horiz-adv-x="1132" d="M51 524q0 254 129 393.5t381 139.5q168 0 285 -64l67 105l62 -33l-72 -111q168 -135 168 -430q0 -256 -127 -399q-133 -152 -385 -152q-141 0 -250 52l-86 -136l-59 35l86 135q-199 139 -199 465zM268 518q0 -188 84 -297l393 615q-68 74 -184 73q-147 0 -225 -127 q-68 -106 -68 -264zM403 170q63 -49 158 -49q152 0 230 129q63 106 63 268q0 147 -63 258z" />
<glyph unicode="&#xf9;" horiz-adv-x="1161" d="M113 336v694h223v-618q0 -127 24 -176q39 -76 154 -76q104 0 279 94v776h223v-1030h-223v133q-211 -160 -371 -160q-156 0 -238 107q-72 96 -71 256zM266 1413h236l176 -242h-129z" />
<glyph unicode="&#xfa;" horiz-adv-x="1161" d="M113 336v694h223v-618q0 -127 24 -176q39 -76 154 -76q104 0 279 94v776h223v-1030h-223v133q-211 -160 -371 -160q-156 0 -238 107q-72 96 -71 256zM457 1155l178 242h235l-282 -242h-131z" />
<glyph unicode="&#xfb;" horiz-adv-x="1161" d="M113 336v694h223v-618q0 -127 24 -176q39 -76 154 -76q104 0 279 94v776h223v-1030h-223v133q-211 -160 -371 -160q-156 0 -238 107q-72 96 -71 256zM319 1171l134 242h254l129 -242h-113l-145 172l-146 -172h-113z" />
<glyph unicode="&#xfc;" horiz-adv-x="1161" d="M113 340v694h223v-618q0 -127 24 -176q39 -76 154 -76q104 0 279 94v776h223v-1030h-223v133q-211 -160 -371 -160q-156 0 -238 107q-72 96 -71 256zM289 1280q0 39 29.5 66.5t70.5 27.5q43 0 73 -27.5t30 -70.5q0 -39 -30 -65.5t-71 -26.5t-71.5 27.5t-30.5 68.5z M659 1278q0 39 30 66.5t71 27.5t71.5 -27.5t30.5 -68.5q0 -39 -29.5 -66.5t-70.5 -27.5t-72 27.5t-31 68.5z" />
<glyph unicode="&#xfd;" horiz-adv-x="1060" d="M8 1030h252l285 -780l319 780h193l-625 -1511h-246l226 483zM489 1171l179 242h233l-280 -242h-132z" />
<glyph unicode="&#xfe;" horiz-adv-x="1169" d="M135 -397v1827h223v-490q203 117 351 117q211 0 313 -164q84 -138 84 -361q0 -233 -94 -382q-113 -176 -334 -177q-217 0 -320 168v-538h-223zM358 397q0 -100 84 -165.5t187 -65.5q127 0 200 125q60 102 60 239q0 141 -64 244q-76 119 -209 119q-115 0 -258 -80v-416z " />
<glyph unicode="&#xff;" horiz-adv-x="1060" d="M8 1032h252l285 -780l319 780h193l-625 -1511h-246l226 483zM240 1278q0 41 29.5 67.5t68.5 26.5q43 0 73.5 -26.5t30.5 -67.5t-28.5 -67.5t-71.5 -26.5q-41 0 -71.5 26.5t-30.5 67.5zM610 1278q0 39 30 66.5t71 27.5t72.5 -28.5t31.5 -69.5q0 -39 -29.5 -66.5 t-72.5 -27.5q-41 0 -72 27.5t-31 70.5z" />
<glyph unicode="&#x152;" horiz-adv-x="1843" d="M49 670q0 301 156 481q164 193 461 192q152 0 252 -40l4 8h860v-170l-635 -2v-383l557 -2v-162l-557 -2v-418l635 -2v-170h-860l-4 14q-115 -47 -252 -47q-295 0 -461 209q-156 193 -156 494zM272 670q0 -219 84 -367q104 -180 308 -180q160 -1 256 110v840 q-94 96 -254 96q-201 0 -306 -155q-88 -133 -88 -344z" />
<glyph unicode="&#x153;" horiz-adv-x="1812" d="M51 524q0 254 129 393.5t381 139.5q270 0 406 -166q131 166 366 166q213 0 324 -148q98 -131 98 -350q0 -12 -2 -36.5t-2 -37.5l-672 -2q4 -160 99.5 -256t253.5 -96q168 0 274 55v-135q-137 -78 -346 -78q-256 0 -391 179q-141 -178 -408 -179q-250 0 -383 154 q-127 143 -127 397zM268 518q0 -162 64 -268q78 -129 229 -129q152 0 230 129q63 106 63 268q0 158 -66 264q-80 127 -227 127t-225 -127q-68 -106 -68 -264zM1085 629h484q-2 119 -60 198q-63 90 -178 91q-104 0 -176 -95q-63 -84 -70 -194z" />
<glyph unicode="&#x178;" horiz-adv-x="1161" d="M8 1315h250l342 -594l385 594h199l-498 -748v-563h-223v518zM289 1536q0 39 29.5 66.5t70.5 27.5q43 0 73 -27.5t30 -70.5q0 -39 -30 -65.5t-71 -26.5t-71.5 27.5t-30.5 68.5zM659 1534q0 39 30 66.5t71 27.5t71.5 -27.5t30.5 -68.5q0 -39 -29.5 -66.5t-70.5 -27.5 t-72 27.5t-31 68.5z" />
<glyph unicode="&#x2c6;" horiz-adv-x="768" d="M121 1171l133 242h254l131 -242h-113l-143 172l-150 -172h-112z" />
<glyph unicode="&#x2dc;" horiz-adv-x="768" d="M98 1188v151q55 55 158 56q47 0 134 -35t130 -35q78 0 142 64v-152q-63 -51 -164 -51q-45 0 -130 32.5t-130 32.5q-86 0 -140 -63z" />
<glyph unicode="&#x2000;" horiz-adv-x="877" />
<glyph unicode="&#x2001;" horiz-adv-x="1755" />
<glyph unicode="&#x2002;" horiz-adv-x="877" />
<glyph unicode="&#x2003;" horiz-adv-x="1755" />
<glyph unicode="&#x2004;" horiz-adv-x="585" />
<glyph unicode="&#x2005;" horiz-adv-x="438" />
<glyph unicode="&#x2006;" horiz-adv-x="292" />
<glyph unicode="&#x2007;" horiz-adv-x="292" />
<glyph unicode="&#x2008;" horiz-adv-x="219" />
<glyph unicode="&#x2009;" horiz-adv-x="351" />
<glyph unicode="&#x200a;" horiz-adv-x="97" />
<glyph unicode="&#x2010;" horiz-adv-x="608" d="M80 473v170h446v-170h-446z" />
<glyph unicode="&#x2011;" horiz-adv-x="608" d="M80 473v170h446v-170h-446z" />
<glyph unicode="&#x2012;" horiz-adv-x="608" d="M80 473v170h446v-170h-446z" />
<glyph unicode="&#x2013;" horiz-adv-x="909" d="M-43 473v170h987v-170h-987z" />
<glyph unicode="&#x2014;" horiz-adv-x="1798" d="M-43 473v170h1876v-170h-1876z" />
<glyph unicode="&#x2018;" horiz-adv-x="401" d="M47 999q0 143 25 234q31 113 112 207l76 -35q-35 -143 -35 -207q0 -82 39 -199h-217z" />
<glyph unicode="&#x2019;" horiz-adv-x="401" d="M66 1436h215q0 -143 -25 -234q-31 -113 -113 -207l-75 35q35 143 34 209q0 53 -36 197z" />
<glyph unicode="&#x201a;" horiz-adv-x="473" d="M139 195h217q0 -143 -24 -234q-31 -113 -113 -207l-76 39q35 143 35 211q0 74 -39 191z" />
<glyph unicode="&#x201c;" horiz-adv-x="696" d="M47 999q0 143 25 234q31 113 112 207l76 -35q-35 -143 -35 -207q0 -82 39 -199h-217zM387 999q0 145 23 234q31 113 112 209l76 -35q-33 -135 -33 -209q0 -56 37 -199h-215z" />
<glyph unicode="&#x201d;" horiz-adv-x="696" d="M66 1436h215q0 -143 -25 -234q-31 -113 -113 -207l-75 35q35 143 34 209q0 53 -36 197zM403 1436h218q0 -281 -138 -443l-75 39q33 135 32 209q0 84 -37 195z" />
<glyph unicode="&#x201e;" horiz-adv-x="784" d="M139 195h217q0 -143 -24 -234q-31 -113 -113 -207l-76 39q35 143 35 211q0 74 -39 191zM479 195h215q0 -145 -22 -234q-31 -113 -113 -209l-76 37q33 135 33 211q0 51 -37 195z" />
<glyph unicode="&#x2022;" horiz-adv-x="983" d="M145 655q0 137 100.5 231.5t239.5 94.5q137 0 240.5 -94.5t103.5 -231.5t-103 -231t-241 -94q-139 0 -239.5 94t-100.5 231z" />
<glyph unicode="&#x2026;" horiz-adv-x="1798" d="M100 96q0 55 40 92t96 37q55 0 95 -37t40 -92t-40 -92t-95 -37t-95.5 37t-40.5 92zM723 96q0 55 40 92t95 37t95 -37t40 -92t-40 -92t-95 -37t-95 37t-40 92zM1362 96q0 55 40 92t95 37t95 -37t40 -92t-40 -92t-95 -37t-95 37t-40 92z" />
<glyph unicode="&#x202f;" horiz-adv-x="351" />
<glyph unicode="&#x2039;" horiz-adv-x="516" d="M66 559l249 354l129 -26l-192 -328l192 -330l-129 -26z" />
<glyph unicode="&#x203a;" horiz-adv-x="516" d="M66 229l188 330l-188 328l127 26l251 -354l-251 -356z" />
<glyph unicode="&#x205f;" horiz-adv-x="438" />
<glyph unicode="&#x20ac;" d="M53 516l23 86h55q-2 25 -2 51q0 25 2 47h-78l23 86h59q27 262 150 409.5t327 147.5q156 0 299 -65v-127q-100 47 -241 47q-274 0 -316 -412h383l-22 -86h-365q-2 -20 -2 -41q0 -29 2 -57h338l-22 -86h-310q45 -379 336 -381q197 -2 289 51v-135q-160 -72 -354 -71 q-440 0 -492 536h-82z" />
<glyph unicode="&#x2122;" horiz-adv-x="1914" d="M33 1167l14 199h688l15 -199l-33 -2q-6 102 -84 133q-41 14 -170 17v-608q0 -57 22.5 -76t81.5 -21v-37h-350v37q59 4 80.5 21.5t21.5 73.5v610q-129 -2 -167 -17q-74 -29 -84 -133zM815 1329v37h258l273 -580l262 580h254v-37q-59 0 -80 -14q-27 -20 -27 -78v-530 q0 -59 22.5 -77t84.5 -20v-37h-363v37q63 2 84 17q29 18 29 78v528l-291 -660h-35l-299 639l-2 -505q0 -68 27 -84q20 -12 90 -13v-37h-285v37q59 0 80 15q29 20 29 80v520q0 68 -20.5 86t-90.5 18z" />
<glyph unicode="&#xe000;" d="M0 0v1034h1034v-1034h-1034z" />
</font>
</defs>
</svg>
