<?xml version="1.0" encoding="utf-8"?>
<!-- Generator: Adobe Illustrator 15.1.0, SVG Export Plug-In  -->
<!DOCTYPE svg PUBLIC "-//W3C//DTD SVG 1.1//EN" "http://www.w3.org/Graphics/SVG/1.1/DTD/svg11.dtd" [
	<!ENTITY ns_flows "http://ns.adobe.com/Flows/1.0/">
]>
<svg version="1.1"
	 xmlns="http://www.w3.org/2000/svg" xmlns:xlink="http://www.w3.org/1999/xlink" xmlns:a="http://ns.adobe.com/AdobeSVGViewerExtensions/3.0/"
	 x="0px" y="0px" width="1500px" height="747px" viewBox="0 0 1500 747" enable-background="new 0 0 1500 747" xml:space="preserve"
	>
<defs>
</defs>
<rect fill="#5D4257" width="1500" height="747.1"/>
<rect x="346" y="173.3" display="none" fill="#5D4257" width="807.9" height="402.4"/>
<path fill="#815A79" d="M1490.2,396.8c-3.3-5.6-9.3-8.7-15.4-8.7c-3.1,0-6.2,0.8-9.1,2.5c-4.2,2.5-7,6.4-8.1,10.7l-113.7-37.1
	c0.1-0.2,0.1-0.4,0.2-0.6c0.5-1.9,0.7-3.9,0.7-5.8c0-2.4-0.4-4.7-1.1-6.9l42.2-15c0.3,0.7,0.7,1.4,1.1,2.1c3.3,5.6,9.3,8.7,15.4,8.7
	c3.1,0,6.2-0.8,9.1-2.5c5.6-3.3,8.7-9.3,8.7-15.4c0-3.1-0.8-6.2-2.5-9.1c-3.3-5.6-9.3-8.7-15.4-8.7c-3.1,0-6.2,0.8-9.1,2.5
	c-5.6,3.3-8.7,9.3-8.7,15.4c0,2,0.4,4,1.1,5.9l-42.1,15c-2.5-7-8.4-12.7-16.2-14.7c-1.9-0.5-3.9-0.7-5.8-0.7
	c-10.4,0-19.9,7-22.6,17.6c-0.5,1.9-0.7,3.9-0.7,5.8c0,0.5,0,0.9,0.1,1.4l-37.8,3l-8.8-47.7c8.7-1.6,16-8.1,18.3-17.2
	c0.5-1.9,0.7-3.9,0.7-5.8c0-8.1-4.3-15.7-11.2-19.9l21-41.7c2.5,1.2,5.2,1.9,8,1.9c3.1,0,6.2-0.8,9.1-2.5c5.6-3.3,8.7-9.3,8.7-15.4
	c0-3.1-0.8-6.2-2.5-9.1c-3.3-5.6-9.3-8.7-15.4-8.7c-2.1,0-4.2,0.4-6.2,1.2l-13.1-30c0.3-0.1,0.5-0.2,0.8-0.4c3.7-2.2,5.7-6.1,5.7-10
	c0-2-0.5-4.1-1.6-5.9c-2.2-3.7-6.1-5.7-10-5.7c-2,0-4.1,0.5-5.9,1.6c-3.7,2.2-5.7,6.1-5.7,10c0,2,0.5,4.1,1.6,5.9
	c2.2,3.7,6.1,5.7,10,5.7c1.4,0,2.8-0.3,4.1-0.8l13.1,30c-0.6,0.3-1.3,0.6-1.9,0.9c-5.6,3.3-8.7,9.3-8.7,15.4c0,3.1,0.8,6.2,2.5,9.1
	c1.6,2.7,3.8,4.8,6.4,6.3l-21,41.6c-1.7-0.9-3.5-1.6-5.4-2.1c-1.9-0.5-3.9-0.7-5.8-0.7c-5.6,0-10.9,2.1-15.1,5.6l-22.4-29.1
	c4.3-3.5,6.7-8.6,6.7-13.9c0-3.1-0.8-6.2-2.5-9.1c-3.3-5.6-9.3-8.7-15.4-8.7c-3.1,0-6.2,0.8-9.1,2.5c-5.6,3.3-8.7,9.3-8.7,15.4
	c0,3.1,0.8,6.2,2.5,9.1c3.3,5.6,9.3,8.7,15.4,8.7c3.1,0,6.2-0.8,9.1-2.5c0.4-0.2,0.8-0.5,1.2-0.8l22.5,29.2
	c-3.1,2.9-5.5,6.8-6.7,11.2c-0.5,1.9-0.7,3.9-0.7,5.8c0,5.9,2.2,11.5,6.1,15.7l-50.7,39.8c-4.7-5.3-11.1-9.4-18.5-11.3
	c-3.1-0.8-6.1-1.2-9.2-1.2c-14,0-27,8-33.2,20.7l-52.3-26.2l6.1-49.9c0.5,0,1.1,0.1,1.6,0.1c3.1,0,6.2-0.8,9.1-2.5
	c5.6-3.3,8.7-9.3,8.7-15.4c0-3.1-0.8-6.2-2.5-9.1c-0.4-0.7-0.9-1.4-1.4-2l54.5-46.2c2.2,2.4,5.3,3.7,8.5,3.7c2,0,4.1-0.5,5.9-1.6
	c3.7-2.2,5.7-6.1,5.7-10c0-2-0.5-4.1-1.6-5.9c-2.2-3.7-6.1-5.7-10-5.7c-2,0-4.1,0.5-5.9,1.6c-3.7,2.2-5.7,6.1-5.7,10
	c0,2,0.5,4.1,1.6,5.9c0.2,0.4,0.5,0.8,0.8,1.2l-54.5,46.3c-3.4-3.8-8.3-5.9-13.2-5.9c-3.1,0-6.2,0.8-9.1,2.5c-2.8,1.7-5,4-6.4,6.6
	l-52.2-27.2c0.7-1.5,1.1-3.2,1.1-4.9c0-2-0.5-4.1-1.6-5.9c-2.2-3.7-6.1-5.7-10-5.7c-2,0-4.1,0.5-5.9,1.6c-3.7,2.2-5.7,6.1-5.7,10
	c0,2,0.5,4.1,1.6,5.9c2.2,3.7,6.1,5.7,10,5.7c2,0,4.1-0.5,5.9-1.6c1.8-1,3.1-2.5,4.1-4.2l52.3,27.3c-1.2,2.4-1.8,5.1-1.8,7.8
	c0,3,0.8,6.1,2.4,8.9l-28.5,17.8c-3.1-4.5-7.7-7.9-13.4-9.3c-1.9-0.5-3.9-0.7-5.8-0.7c-10.4,0-19.9,7-22.6,17.6
	c-0.5,1.9-0.7,3.9-0.7,5.8c0,7.6,3.7,14.6,9.8,18.9l-19.8,31.9c-3-1.8-6.2-3.2-9.7-4.1c-3.1-0.8-6.1-1.2-9.2-1.2
	c-16.5,0-31.5,11.1-35.8,27.8c-0.1,0.3-0.1,0.5-0.2,0.8l-72-17.8l0.1-0.3c0.6-2.5,0.9-5,0.9-7.4c0-13.4-9-25.6-22.6-29
	c-2.5-0.6-5-0.9-7.4-0.9c-0.8,0-1.6,0-2.4,0.1l-1.3-99.7c0.2,0,0.4,0,0.6,0c7.6,0,14.6-3.7,19-9.8l50.2,37.8c-1.4,2.1-2.5,4.5-3.1,7
	c-0.5,1.9-0.7,3.9-0.7,5.8c0,10.4,7,19.9,17.6,22.6c1.9,0.5,3.9,0.7,5.8,0.7c10.4,0,19.9-7,22.6-17.6c0.5-1.9,0.7-3.9,0.7-5.8
	c0-10.4-7-19.9-17.6-22.6c-0.9-0.2-1.7-0.4-2.6-0.5l1.3-29.4l0,0c2,0,4.1-0.5,5.9-1.6c3.7-2.2,5.7-6.1,5.7-10c0-2-0.5-4.1-1.6-5.9
	c-2.2-3.7-6.1-5.7-10-5.7c-2,0-4.1,0.5-5.9,1.6c-3.7,2.2-5.7,6.1-5.7,10c0,2,0.5,4.1,1.6,5.9c2,3.3,5.3,5.3,8.9,5.6l-1.3,29.3
	c-0.7-0.1-1.4-0.1-2.1-0.1c-7.5,0-14.5,3.6-18.8,9.6l-50.2-37.8c1.3-2.1,2.4-4.4,3-6.9c0.5-1.9,0.7-3.9,0.7-5.8
	c0-10.4-7-19.9-17.6-22.6c-1.9-0.5-3.9-0.7-5.8-0.7c-2.1,0-4.2,0.3-6.2,0.9l-5-18.9c1.3-0.4,2.5-0.9,3.7-1.6
	c5.6-3.3,8.7-9.3,8.7-15.4c0-3.1-0.8-6.2-2.5-9.1c-3.3-5.6-9.3-8.7-15.4-8.7c-3.1,0-6.2,0.8-9.1,2.5c-5.6,3.3-8.7,9.3-8.7,15.4
	c0,0.3,0,0.7,0.1,1l-29.3,4.9c-0.3-1.3-0.7-2.5-1.4-3.7c-2.2-3.7-6.1-5.7-10-5.7c-2,0-4.1,0.5-5.9,1.6c-3.7,2.2-5.7,6.1-5.7,10
	c0,2,0.5,4.1,1.6,5.9c2.2,3.7,6.1,5.7,10,5.7c2,0,4.1-0.5,5.9-1.6c3.7-2.2,5.7-6.1,5.7-10c0-0.4,0-0.8-0.1-1.2l29.2-4.9
	c0.3,2.4,1.1,4.8,2.4,7c3.3,5.6,9.3,8.7,15.4,8.7c1.5,0,2.9-0.2,4.4-0.6l5,18.9c-7.3,2.4-13.3,8.4-15.3,16.4
	c-0.5,1.9-0.7,3.9-0.7,5.8c0,6,2.4,11.7,6.4,16L762,263.5c-2.9-2.1-6.3-3.7-10-4.7c-2.5-0.6-5-0.9-7.4-0.9c-13.4,0-25.6,9-29,22.6
	c-0.6,2.5-0.9,5-0.9,7.4c0,6.2,2,12.1,5.4,17.1l-28.9,22c-3.5-4.3-8.6-6.6-13.9-6.6c-3.1,0-6.2,0.8-9.1,2.5
	c-5.6,3.3-8.7,9.3-8.7,15.4c0,3.1,0.8,6.2,2.5,9.1c1.7,2.9,4.1,5.1,6.9,6.6l-35.5,71.4l-47.6-23.8c0.7-1.6,1.3-3.3,1.7-5
	c0.8-3.1,1.2-6.1,1.2-9.2c0-16.5-11.1-31.5-27.8-35.8c-3.1-0.8-6.1-1.2-9.2-1.2c-16.5,0-31.5,11.1-35.8,27.8
	c-0.8,3.1-1.2,6.1-1.2,9.2c0,9.3,3.6,18.2,9.7,24.9l-37.8,38.8c-3.5-3.1-7.7-5.4-12.5-6.6c-2.5-0.6-5-0.9-7.4-0.9
	c-1.7,0-3.5,0.2-5.2,0.5L456,408l89.5-114.3c2.4,1.8,5.1,3.1,8.2,3.9c1.9,0.5,3.9,0.7,5.8,0.7c10.4,0,19.9-7,22.6-17.6
	c0.5-1.9,0.7-3.9,0.7-5.8c0-10.4-7-19.9-17.6-22.6c-1.9-0.5-3.9-0.7-5.8-0.7c-10.4,0-19.9,7-22.6,17.6c-0.5,1.9-0.7,3.9-0.7,5.8
	c0,0.6,0,1.2,0.1,1.9l-81.7,8.6c-0.3-2.3-1.1-4.6-2.3-6.7c-1.7-2.9-4.1-5.1-6.8-6.5l24.9-49c1.5,0.7,3.1,1,4.8,1
	c2,0,4.1-0.5,5.9-1.6c3.7-2.2,5.7-6.1,5.7-10c0-2-0.5-4.1-1.6-5.9c-2.2-3.7-6.1-5.7-10-5.7c-2,0-4.1,0.5-5.9,1.6
	c-3.7,2.2-5.7,6.1-5.7,10c0,2,0.5,4.1,1.6,5.9c1.1,1.8,2.6,3.2,4.3,4.2l-24.9,49.1c-2.4-1.1-4.9-1.7-7.6-1.7c-3.1,0-6.2,0.8-9.1,2.5
	l0,0c-5.6,3.3-8.7,9.3-8.7,15.4c0,3.1,0.8,6.2,2.5,9.1c3.3,5.6,9.3,8.7,15.4,8.7c0.7,0,1.4-0.1,2.2-0.1l15.9,102.1l-28.1,35.9
	l-42.5-32.1c2.7-3.7,4.8-8,6-12.7c0.8-3.1,1.2-6.1,1.2-9.2c0-16.5-11.1-31.5-27.8-35.8c-3.1-0.8-6.1-1.2-9.2-1.2
	c-2.9,0-5.7,0.4-8.4,1l-11.5-46.3c7.7-2.2,14-8.3,16.1-16.6c0.5-1.9,0.7-3.9,0.7-5.8c0-10.4-7-19.9-17.6-22.6
	c-1.9-0.5-3.9-0.7-5.8-0.7c-9.5,0-18.2,5.8-21.7,14.9l-46.2-13.7c0.4-1.5,0.6-3,0.6-4.5c0-3.1-0.8-6.2-2.5-9.1
	c-2.2-3.8-5.7-6.4-9.5-7.7l9.5-34.1c0.8,0.2,1.7,0.3,2.6,0.3c2,0,4.1-0.5,5.9-1.6c3.7-2.2,5.7-6.1,5.7-10c0-2-0.5-4.1-1.6-5.9
	c-2.2-3.7-6.1-5.7-10-5.7c-2,0-4.1,0.5-5.9,1.6c-3.7,2.2-5.7,6.1-5.7,10c0,2,0.5,4.1,1.6,5.9c1.5,2.5,3.8,4.3,6.4,5.1l-9.4,34.1
	c-1.6-0.4-3.2-0.7-4.8-0.7c-3.1,0-6.2,0.8-9.1,2.5c-0.4,0.2-0.8,0.5-1.1,0.8l-33-43.9c2.7-2.3,4.2-5.6,4.2-9c0-2-0.5-4.1-1.6-5.9
	c-2.2-3.7-6.1-5.7-10-5.7c-2,0-4.1,0.5-5.9,1.6c-3.7,2.2-5.7,6.1-5.7,10c0,2,0.5,4.1,1.6,5.9c2.2,3.7,6.1,5.7,10,5.7
	c2,0,4.1-0.5,5.9-1.6c0.2-0.1,0.4-0.3,0.6-0.4l33,43.9c-4.3,3.5-6.7,8.6-6.7,13.9c0,3.1,0.8,6.2,2.5,9.1c3.3,5.6,9.3,8.7,15.4,8.7
	c2,0,4.1-0.4,6.1-1.1l16.6,41.4l-68.7,37c-3.9-6.9-10.4-12.3-18.7-14.4c-2.5-0.6-5-0.9-7.4-0.9c-13.4,0-25.6,9-29,22.6
	c-0.6,2.5-0.9,5-0.9,7.4c0,4.9,1.2,9.6,3.4,13.8l-41.6,22.7l0-0.1c-3.3-5.6-9.3-8.7-15.4-8.7c-3.1,0-6.2,0.8-9.1,2.5
	c-5.6,3.3-8.7,9.3-8.7,15.4c0,2.8,0.7,5.6,2.1,8.2L29.1,446c-2.2-3.5-6-5.5-9.9-5.5c-2,0-4.1,0.5-5.9,1.6c-3.7,2.2-5.7,6.1-5.7,10
	c0,2,0.5,4.1,1.6,5.9c2.2,3.7,6.1,5.7,10,5.7c2,0,4.1-0.5,5.9-1.6c3.7-2.2,5.7-6.1,5.7-10c0-1.8-0.4-3.5-1.3-5.2l42.3-23.9
	c2.4,3.9,6,6.5,10,7.8l-10,36.7c-0.9-0.2-1.8-0.3-2.6-0.3c-2,0-4.1,0.5-5.9,1.6c-3.7,2.2-5.7,6.1-5.7,10c0,2,0.5,4.1,1.6,5.9
	c2.2,3.7,6.1,5.7,10,5.7c2,0,4.1-0.5,5.9-1.6c3.7-2.2,5.7-6.1,5.7-10c0-2-0.5-4.1-1.6-5.9c-1.5-2.5-3.8-4.2-6.3-5.1l10-36.7
	c1.4,0.3,2.8,0.5,4.2,0.5c3.1,0,6.2-0.8,9.1-2.5c2.7-1.6,4.8-3.9,6.3-6.4l40,21.5c-1.2,2.5-1.9,5.2-1.9,8c0,3.1,0.8,6.2,2.5,9.1
	c2.6,4.3,6.7,7.1,11.2,8.2l-5.7,27.2c-0.9-0.2-1.8-0.3-2.8-0.3c-2,0-4.1,0.5-5.9,1.6c-3.7,2.2-5.7,6.1-5.7,10c0,2,0.5,4.1,1.6,5.9
	c2.2,3.7,6.1,5.7,10,5.7c2,0,4.1-0.5,5.9-1.6c3.7-2.2,5.7-6.1,5.7-10c0-2-0.5-4.1-1.6-5.9c-1.5-2.5-3.7-4.2-6.2-5l5.7-27.3
	c1,0.2,2.1,0.3,3.1,0.3c3.1,0,6.2-0.8,9.1-2.5c5.6-3.3,8.7-9.3,8.7-15.4c0-0.7-0.1-1.5-0.1-2.2l37-5.9c2,11.2,10.3,20.8,22.1,23.8
	c2.5,0.6,5,0.9,7.4,0.9c8.5,0,16.5-3.7,22.1-9.8l65.4,57.5c-5.1,6.8-7.3,15.8-5.2,24.8c0.6,2.5,1.5,4.8,2.6,7
	c6.2,11.9,19.8,18.5,33.4,15.3c2.5-0.6,4.8-1.5,7-2.6c11.9-6.2,18.5-19.8,15.3-33.4c-0.5-2-1.1-3.8-2-5.5l59.1-33.6
	c3.9,6.8,10.4,12.2,18.6,14.3c2.5,0.6,5,0.9,7.4,0.9c6.3,0,12.4-2.1,17.4-5.6l65.4,82.5c-8.8,8.7-13.1,21.7-10,34.7
	c0.7,3.1,1.8,6,3.2,8.7c7.6,14.6,24.4,22.8,41.2,18.9c3.1-0.7,6-1.8,8.7-3.2c14.6-7.6,22.8-24.4,18.9-41.2c-0.7-3.1-1.8-6-3.2-8.7
	c-4.9-9.5-13.7-16.2-23.9-18.8l10.4-51.8c3,0.5,6.2,0.5,9.4-0.3c1.9-0.5,3.8-1.1,5.5-2c9.2-4.8,14.4-15.4,11.9-26
	c-0.1-0.3-0.2-0.6-0.3-0.9l50.7-15.3c4.3,10.5,13.3,19,25.1,22c3.1,0.8,6.1,1.2,9.2,1.2c12,0,23.2-5.9,30.1-15.6l53.2,33.7
	c-1.7,2.9-3,6-3.9,9.5c-0.8,3.1-1.2,6.1-1.2,9.2c0,15.6,9.9,29.8,25.1,35l-22.8,83.8c-1.9-0.5-3.7-0.7-5.6-0.7
	c-7.9,0-15.2,4-19.5,10.5l-56.6-35.3c3.2-5.5,3.2-12,0.4-17.2c-1.4-2.7-3.6-5.2-6.4-6.9c-5.6-3.4-12.3-3.5-17.7-0.7
	c-2.7,1.4-5.2,3.6-6.9,6.4c-3.4,5.6-3.5,12.3-0.7,17.7c1.4,2.7,3.6,5.2,6.4,6.9c0.2,0.1,0.4,0.2,0.6,0.3l-26.6,50.6
	c-3.4-1.6-7.2-1.4-10.3,0.2c-1.8,0.9-3.4,2.3-4.5,4.2c-2.3,3.6-2.3,8-0.4,11.5c0.9,1.8,2.4,3.4,4.2,4.5c3.6,2.2,8,2.3,11.5,0.4
	c1.8-0.9,3.4-2.3,4.5-4.2c2.3-3.6,2.3-8,0.4-11.5c-0.9-1.8-2.4-3.4-4.2-4.5l-0.2-0.1l26.6-50.6c5.2,2.5,11.2,2.3,16-0.2
	c2.6-1.3,4.8-3.3,6.5-5.9l56.6,35.3c-1.1,1.9-2,3.9-2.5,6.1c-0.5,1.9-0.7,3.9-0.7,5.8c0,10.4,7,19.9,17.6,22.6
	c1.9,0.5,3.9,0.7,5.8,0.7c10.4,0,19.9-7,22.6-17.6c0.5-1.9,0.7-3.9,0.7-5.8c0-2.4-0.4-4.7-1.1-6.9l95.7-32.3
	c3.3,9,10.8,16.2,20.7,18.8c2.5,0.6,5,0.9,7.4,0.9c7.5,0,14.7-2.9,20.1-7.8l29.5,31.1c-2.5,2.8-4.5,6.1-5.4,10
	c-0.5,1.9-0.7,3.9-0.7,5.8c0,10.4,7,19.9,17.6,22.6c1.9,0.5,3.9,0.7,5.8,0.7c10.4,0,19.9-7,22.6-17.6c0.5-1.9,0.7-3.9,0.7-5.8
	c0-10.4-7-19.9-17.6-22.6c-1.9-0.5-3.9-0.7-5.8-0.7c-6.2,0-12.1,2.5-16.4,6.7l-29.4-31c3.8-3.7,6.7-8.5,8.1-14
	c0.6-2.5,0.9-5,0.9-7.4c0-13.4-9-25.6-22.6-29c-2.5-0.6-5-0.9-7.4-0.9c-8.7,0-16.8,3.8-22.4,10.1l-55.6-47.8
	c3.7-4.2,6.6-9.4,8.1-15.3c0.8-3.1,1.2-6.1,1.2-9.2c0-12-5.9-23.2-15.5-30.1l21-27.9c3,2.2,6.4,3.8,10.1,4.8c2.5,0.6,5,0.9,7.4,0.9
	c13.4,0,25.6-9,29-22.6c0.6-2.5,0.9-5,0.9-7.4c0-7.1-2.6-13.9-7-19.2l26.6-23.8c4.7,5.2,10.9,9.1,18.2,10.9c3.1,0.8,6.1,1.2,9.2,1.2
	c16.5,0,31.5-11.1,35.8-27.8c0.8-3.1,1.2-6.1,1.2-9.2c0-12.6-6.6-24.4-17.1-31.2l19.8-31.8c2.1,1.3,4.4,2.4,6.9,3
	c1.9,0.5,3.9,0.7,5.8,0.7c8.4,0,16.3-4.6,20.4-12L1065,330l-4.2,34.2c-0.5-0.1-0.9-0.1-1.4-0.1c-2,0-4.1,0.5-5.9,1.6
	c-3.7,2.2-5.7,6.1-5.7,10c0,2,0.5,4.1,1.6,5.9c2.2,3.7,6.1,5.7,10,5.7c2,0,4.1-0.5,5.9-1.6c3.7-2.2,5.7-6.1,5.7-10
	c0-2-0.5-4.1-1.6-5.9c-1.7-2.9-4.5-4.8-7.5-5.4l4.1-33.8l52,26c-0.9,1.9-1.6,4-2.2,6.1c-0.8,3.1-1.2,6.1-1.2,9.2
	c0,14.5,8.5,27.8,21.9,33.7l-12.8,35.6c-3-0.8-6.1-1.1-9.1-1.1c-16.5,0-31.5,11.1-35.8,27.8c-0.8,3.1-1.2,6.1-1.2,9.2
	c0,6.6,1.8,13,5,18.5l-40.3,29.1c-3.4-5.3-9.1-8.2-15-8.2c-3.1,0-6.2,0.8-9.1,2.5c-5.6,3.3-8.7,9.3-8.7,15.4c0,3.1,0.8,6.2,2.5,9.1
	c3.3,5.6,9.3,8.7,15.4,8.7c0.8,0,1.7-0.1,2.5-0.2l14.3,55.2c-0.9,0.3-1.7,0.6-2.5,1.1c-3.7,2.2-5.7,6.1-5.7,10c0,2,0.5,4.1,1.6,5.9
	c2.2,3.7,6.1,5.7,10,5.7c2,0,4.1-0.5,5.9-1.6c3.7-2.2,5.7-6.1,5.7-10c0-2-0.5-4.1-1.6-5.9c-2.2-3.7-6.1-5.7-10-5.7
	c-0.8,0-1.6,0.1-2.4,0.3l-14.3-55.1c1.9-0.4,3.7-1.1,5.5-2.1c5.6-3.3,8.7-9.3,8.7-15.4c0-3-0.8-5.9-2.3-8.7l40.3-29.1
	c4.9,7.8,12.6,13.8,22.2,16.3c3.1,0.8,6.1,1.2,9.2,1.2c10.5,0,20.3-4.5,27.2-12l34.1,30c-2.2,2.6-3.8,5.7-4.7,9.2
	c-0.5,1.9-0.7,3.9-0.7,5.8c0,2.7,0.5,5.3,1.4,7.8l-48.4,18.5c-0.3-0.8-0.7-1.5-1.1-2.2c-3.3-5.6-9.3-8.7-15.4-8.7
	c-3.1,0-6.2,0.8-9.1,2.5c-5.6,3.3-8.7,9.3-8.7,15.4c0,3.1,0.8,6.2,2.5,9.1c3.3,5.6,9.3,8.7,15.4,8.7c3.1,0,6.2-0.8,9.1-2.5
	c5.6-3.3,8.7-9.3,8.7-15.4c0-2-0.4-3.9-1-5.8l48.4-18.5c2.7,6.6,8.4,11.9,15.8,13.8c1.9,0.5,3.9,0.7,5.8,0.7
	c10.4,0,19.9-7,22.6-17.6c0.5-1.9,0.7-3.9,0.7-5.8c0-10.4-7-19.9-17.6-22.6c-1.9-0.5-3.9-0.7-5.8-0.7c-6.6,0-12.8,2.8-17.1,7.5
	l-34.1-30c3.6-4.2,6.4-9.3,7.9-15c0.8-3.1,1.2-6.1,1.2-9.2c0-7.2-2.1-14.1-5.9-20l71.1-39.6l33.1,22.2c-0.8,1.6-1.4,3.4-1.8,5.2
	c-0.6,2.5-0.9,5-0.9,7.4c0,13.4,9,25.6,22.6,29c2.5,0.6,5,0.9,7.4,0.9c13.4,0,25.6-9,29-22.6c0.6-2.5,0.9-5,0.9-7.4
	c0-10.8-5.8-20.7-15.2-26l21.3-46.4c0.8,0.3,1.5,0.5,2.3,0.7c1.9,0.5,3.9,0.7,5.8,0.7c2.7,0,5.3-0.5,7.7-1.3l19.3,60.5
	c-1.1,0.4-2.1,0.8-3.2,1.4c-5.6,3.3-8.7,9.3-8.7,15.4c0,3.1,0.8,6.2,2.5,9.1c1.8,3,4.3,5.3,7.2,6.8l-16.9,35.6
	c-1.4-0.6-2.9-0.9-4.5-0.9c-2,0-4.1,0.5-5.9,1.6c-3.7,2.2-5.7,6.1-5.7,10c0,2,0.5,4.1,1.6,5.9c2.2,3.7,6.1,5.7,10,5.7
	c2,0,4.1-0.5,5.9-1.6c3.7-2.2,5.7-6.1,5.7-10c0-2-0.5-4.1-1.6-5.9c-1.1-1.9-2.7-3.4-4.5-4.3l16.9-35.6c2.3,1,4.7,1.5,7.1,1.5
	c3.1,0,6.2-0.8,9.1-2.5c5.6-3.3,8.7-9.3,8.7-15.4c0-3.1-0.8-6.2-2.5-9.1c-3.3-5.6-9.3-8.7-15.4-8.7c-1.6,0-3.3,0.2-4.9,0.7
	l-19.3-60.5c6.1-2.5,11.1-7.6,13.4-14.2l113.8,37.1c-0.2,1.2-0.4,2.4-0.4,3.6c0,3.1,0.8,6.2,2.5,9.1c3.3,5.6,9.3,8.7,15.4,8.7
	c3.1,0,6.2-0.8,9.1-2.5c5.6-3.3,8.7-9.3,8.7-15.4C1492.7,402.8,1491.9,399.7,1490.2,396.8z M1385.4,329c0-5.8,3-11.4,8.3-14.5
	c2.7-1.6,5.7-2.4,8.6-2.4c5.8,0,11.4,3,14.5,8.3c1.6,2.7,2.4,5.7,2.4,8.6c0,5.8-3,11.4-8.3,14.5c-2.7,1.6-5.7,2.4-8.6,2.4
	c-5.8,0-11.4-3-14.5-8.3c-0.4-0.6-0.7-1.3-1-1.9l4-1.4c0.2,0.4,0.4,0.8,0.6,1.2c3.6,6,11.3,8,17.3,4.4c6-3.6,8-11.3,4.4-17.3
	c-3.6-6-11.3-8-17.3-4.4c-5.3,3.1-7.4,9.5-5.4,15.1l-4,1.4C1385.8,332.8,1385.4,330.9,1385.4,329z M1267.8,164.4l0.4-0.2
	c3.9-2.3,5.2-7.4,2.9-11.3c-2.3-3.9-7.4-5.2-11.3-2.9c-3.9,2.3-5.2,7.4-2.9,11.3c2,3.5,6.2,4.9,9.9,3.5l1.1,2.6
	c-1.3,0.5-2.6,0.7-3.9,0.7c-3.8,0-7.4-1.9-9.5-5.4c-1-1.8-1.5-3.7-1.5-5.6c0-3.8,1.9-7.4,5.4-9.5l-0.2-0.3l0.2,0.3
	c1.8-1.1,3.7-1.5,5.6-1.6c3.8,0,7.4,1.9,9.5,5.4c1,1.8,1.5,3.7,1.5,5.6c0,3.8-1.9,7.4-5.4,9.5c-0.2,0.1-0.5,0.2-0.7,0.4
	L1267.8,164.4z M1288.5,197.3c5.8,0,11.4,3,14.5,8.3c1.6,2.7,2.4,5.7,2.4,8.6c0,5.8-3,11.4-8.3,14.5c-2.7,1.6-5.7,2.4-8.6,2.4
	c-2.6,0-5.2-0.6-7.6-1.8l1.9-3.8c3.7,1.9,8.3,1.9,12.1-0.4c6-3.5,8-11.3,4.4-17.3c-3.1-5.2-9.4-7.4-14.9-5.5l-1.7-3.9
	C1284.6,197.7,1286.5,197.3,1288.5,197.3z M1273.9,222.9c-1.6-2.7-2.4-5.7-2.4-8.6c0-5.8,3-11.4,8.3-14.5c0.6-0.3,1.2-0.6,1.8-0.9
	l1.7,3.9c-0.4,0.2-0.9,0.4-1.3,0.7c-6,3.6-8,11.3-4.4,17.3c1.1,1.8,2.5,3.3,4.2,4.3l-1.9,3.8
	C1277.5,227.4,1275.5,225.4,1273.9,222.9z M1206.6,240.7c4.7-3.9,6.1-10.7,2.9-16.2c-3.6-6-11.3-8-17.3-4.4c-6,3.6-8,11.3-4.4,17.3
	c3.6,6,11.3,8,17.3,4.4c0.2-0.1,0.4-0.3,0.7-0.4l2.6,3.4c-0.4,0.2-0.7,0.5-1.1,0.7c-2.7,1.6-5.7,2.4-8.6,2.4c-5.8,0-11.4-3-14.5-8.3
	c-1.6-2.7-2.4-5.7-2.4-8.6c0-5.8,3-11.4,8.3-14.5c2.7-1.6,5.7-2.4,8.6-2.4c5.8,0,11.4,3,14.5,8.3c1.6,2.7,2.4,5.7,2.4,8.6
	c0,5-2.2,9.9-6.3,13.2L1206.6,240.7z M1141.4,202c-1-1.8-1.5-3.7-1.5-5.6c0-3.8,1.9-7.4,5.4-9.5l-0.2-0.3l0.2,0.3
	c1.8-1.1,3.7-1.5,5.6-1.6c3.8,0,7.4,1.9,9.5,5.4c1,1.8,1.5,3.7,1.5,5.6c0,3.8-1.9,7.4-5.4,9.5c-1.8,1-3.7,1.5-5.6,1.5
	c-3,0-5.9-1.2-8-3.5l2.1-1.8c2.6,2.7,6.8,3.3,10.1,1.4c3.9-2.3,5.2-7.4,2.9-11.3c-2.3-3.9-7.4-5.2-11.3-2.9
	c-3.9,2.3-5.2,7.4-2.9,11.3c0.1,0.2,0.3,0.4,0.5,0.7l-2.2,1.8C1141.9,202.7,1141.6,202.4,1141.4,202z M1005.5,225.4l-2.5-1.3
	c1-2.4,1-5.1-0.4-7.5c-2.3-3.9-7.4-5.2-11.3-2.9c-3.9,2.3-5.2,7.4-2.9,11.3c2.3,3.9,7.4,5.2,11.3,2.9c1.2-0.7,2.1-1.7,2.8-2.8
	l2.5,1.3c-0.9,1.6-2.2,2.9-3.9,3.9c-1.8,1-3.7,1.5-5.6,1.5c-3.8,0-7.4-1.9-9.5-5.4c-1-1.8-1.5-3.7-1.5-5.6c0-3.8,1.9-7.4,5.4-9.5
	l-0.2-0.3l0.2,0.3c1.8-1,3.7-1.5,5.6-1.6c3.8,0,7.4,1.9,9.5,5.4c1,1.8,1.5,3.7,1.5,5.6C1006.6,222.4,1006.2,224,1005.5,225.4z
	 M902.1,203.2c-1-1.8-1.5-3.7-1.5-5.6c0-3.8,1.9-7.4,5.4-9.5l-0.2-0.3l0.2,0.3c1.8-1,3.7-1.5,5.6-1.6c3.8,0,7.4,1.9,9.5,5.4
	c1,1.8,1.5,3.7,1.5,5.6c0,3.8-1.9,7.4-5.4,9.5c-1.8,1-3.7,1.5-5.6,1.5l0.1-2.8c1.4,0,2.8-0.4,4.1-1.1c3.9-2.3,5.2-7.4,2.9-11.3
	c-2.3-3.9-7.4-5.2-11.3-2.9c-3.9,2.3-5.2,7.4-2.9,11.3c1.4,2.3,3.7,3.7,6.1,3.9l-0.1,2.8C907.1,208.2,903.9,206.3,902.1,203.2z
	 M907.1,239.1c0.7,0,1.4,0.1,2.1,0.1l-0.3,5.9c-6.1-0.7-11.9,2.1-15.3,6.8l-4.7-3.6C893.1,242.6,899.9,239.1,907.1,239.1z
	 M893,252.9c-0.9,1.4-1.6,3-2,4.7c-2.3,8.9,3.1,18,12,20.3c8.9,2.3,18-3.1,20.3-12c2.3-8.9-3.1-18-12-20.3c-0.4-0.1-0.8-0.2-1.2-0.2
	l0.3-5.9c0.8,0.1,1.6,0.3,2.4,0.5c10.2,2.6,17,11.8,17,21.9c0,1.8-0.2,3.7-0.7,5.6c-2.6,10.2-11.8,17-21.9,17
	c-1.8,0-3.7-0.2-5.6-0.7c-10.2-2.6-17-11.8-17-21.9c0-1.8,0.2-3.7,0.7-5.6c0.6-2.5,1.7-4.7,3-6.8L893,252.9z M749,157
	c-1.8,1-3.7,1.5-5.6,1.5c-3.8,0-7.4-1.9-9.5-5.4c-1-1.8-1.5-3.7-1.5-5.6c0-3.8,1.9-7.4,5.4-9.5l-0.2-0.3l0.2,0.3
	c1.8-1.1,3.7-1.6,5.6-1.6c3.8,0,7.4,1.9,9.5,5.4c0.7,1.1,1.1,2.3,1.3,3.5l-2.8,0.5c-0.2-0.9-0.5-1.7-0.9-2.5
	c-2.3-3.9-7.4-5.2-11.3-2.9c-3.9,2.3-5.2,7.4-2.9,11.3c2.3,3.9,7.4,5.2,11.3,2.9c2.8-1.6,4.2-4.7,4-7.7l2.8-0.5
	c0,0.4,0.1,0.7,0.1,1.1C754.4,151.2,752.5,154.9,749,157z M801.9,156.1c-5.8,0-11.4-3-14.5-8.3c-1.2-2.1-2-4.4-2.2-6.6l4.2-0.7
	c0.2,1.8,0.7,3.5,1.7,5.2c2.9,4.9,8.6,7.1,13.9,5.8l1.1,4.1C804.6,155.9,803.2,156.1,801.9,156.1z M806,151.2
	c0.8-0.3,1.6-0.6,2.3-1.1c6-3.6,8-11.3,4.4-17.3c-3.6-6-11.3-8-17.3-4.4c-4,2.4-6.2,6.7-6.2,11l-4.2,0.7c0-0.3-0.1-0.6-0.1-0.9
	c0-5.8,3-11.4,8.3-14.5c2.7-1.6,5.7-2.4,8.6-2.4c5.8,0,11.4,3,14.5,8.3c1.6,2.7,2.4,5.7,2.4,8.6c0,5.8-3,11.4-8.3,14.5
	c-1.1,0.7-2.3,1.1-3.4,1.5L806,151.2z M465.5,218.2c-1-1.8-1.5-3.7-1.5-5.6c0-3.8,1.9-7.4,5.4-9.5l-0.2-0.3l0.2,0.3
	c1.8-1.1,3.7-1.5,5.6-1.5c3.8,0,7.4,1.9,9.5,5.4c1,1.8,1.5,3.7,1.5,5.6c0,3.8-1.9,7.4-5.4,9.5c-1.8,1-3.7,1.5-5.6,1.5
	c-1.6,0-3.1-0.3-4.5-1l1.3-2.5c2.3,1,5.1,0.9,7.4-0.5c3.9-2.3,5.2-7.4,2.9-11.3c-2.3-3.9-7.4-5.2-11.3-2.9
	c-3.9,2.3-5.2,7.4-2.9,11.3c0.7,1.2,1.7,2.2,2.9,2.8l-1.3,2.5C467.9,221.2,466.5,219.9,465.5,218.2z M251.2,201.7
	c-1-1.8-1.5-3.7-1.5-5.6c0-3.8,1.9-7.4,5.4-9.5l-0.2-0.3l0.2,0.3c1.8-1.1,3.7-1.5,5.6-1.6c3.8,0,7.4,1.9,9.5,5.4
	c1,1.8,1.5,3.7,1.5,5.6c0,3.8-1.9,7.4-5.4,9.5c-1.8,1-3.7,1.5-5.6,1.5c-0.8,0-1.6-0.1-2.4-0.3l0.8-2.7c1.9,0.4,4,0.1,5.9-1
	c3.9-2.3,5.2-7.4,2.9-11.3c-2.3-3.9-7.4-5.2-11.3-2.9c-3.9,2.3-5.2,7.4-2.9,11.3c1,1.7,2.6,2.9,4.4,3.5l-0.8,2.7
	C254.8,205.7,252.6,204.1,251.2,201.7z M197.5,197.1c3-2.6,3.8-6.9,1.7-10.4c-2.3-3.9-7.4-5.2-11.3-2.9c-3.9,2.3-5.2,7.4-2.9,11.3
	c2.3,3.9,7.4,5.2,11.3,2.9l0.3-0.2l1.7,2.2c-0.2,0.1-0.3,0.3-0.5,0.4c-1.8,1-3.7,1.5-5.6,1.5c-3.8,0-7.4-1.9-9.5-5.4
	c-1-1.8-1.5-3.7-1.5-5.6c0-3.8,1.9-7.4,5.4-9.5l-0.2-0.3l0.2,0.3c1.8-1.1,3.7-1.5,5.6-1.6c3.8,0,7.4,1.9,9.5,5.4
	c1,1.8,1.5,3.7,1.5,5.6c0,3.2-1.4,6.3-4,8.5L197.5,197.1z M30.3,452.2c0,3.8-1.9,7.4-5.4,9.5c-1.8,1-3.7,1.5-5.6,1.5
	c-3.8,0-7.4-1.9-9.5-5.4c-1-1.8-1.5-3.7-1.5-5.6c0-3.8,1.9-7.4,5.4-9.5l-0.2-0.3l0.2,0.3c1.8-1.1,3.7-1.6,5.6-1.6
	c3.7,0,7.2,1.8,9.3,5.1l-2.5,1.4c-2.4-3.7-7.3-4.8-11.1-2.6c-3.9,2.3-5.2,7.4-2.9,11.3c2.3,3.9,7.4,5.2,11.3,2.9
	c3.7-2.2,5-6.8,3.2-10.6l2.5-1.4C29.9,448.8,30.3,450.5,30.3,452.2z M78.8,473.3c1,1.8,1.5,3.7,1.5,5.6c0,3.8-1.9,7.4-5.4,9.5
	c-1.8,1.1-3.7,1.6-5.6,1.6c-3.8,0-7.4-1.9-9.5-5.4c-1-1.8-1.5-3.7-1.5-5.6c0-3.8,1.9-7.4,5.4-9.5l-0.2-0.3l0.2,0.3
	c1.8-1.1,3.7-1.5,5.6-1.6c0.8,0,1.7,0.1,2.5,0.3l-0.7,2.7c-2-0.4-4.1-0.2-5.9,0.9c-3.9,2.3-5.2,7.4-2.9,11.3
	c2.3,3.9,7.4,5.2,11.3,2.9c3.9-2.3,5.2-7.4,2.9-11.3c-1-1.7-2.6-2.9-4.3-3.5l0.7-2.7C75.3,469.3,77.4,470.9,78.8,473.3z
	 M155.5,502.3c1,1.8,1.5,3.7,1.5,5.6c0,3.8-1.9,7.4-5.4,9.5c-1.8,1-3.7,1.5-5.6,1.5c-3.8,0-7.4-1.9-9.5-5.4c-1-1.8-1.5-3.7-1.5-5.6
	c0-3.8,1.9-7.4,5.4-9.5l-0.2-0.3l0.2,0.3c1.8-1,3.7-1.5,5.6-1.6c0.9,0,1.8,0.1,2.7,0.3L148,500c-2.1-0.5-4.3-0.3-6.3,0.9
	c-3.9,2.3-5.2,7.4-2.9,11.3c2.3,3.9,7.4,5.2,11.3,2.9c3.9-2.3,5.2-7.4,2.9-11.3c-0.9-1.6-2.4-2.7-3.9-3.4l0.6-2.8
	C152,498.4,154.1,500,155.5,502.3z M655.6,685.8l-0.2,0.3c1.7,1.1,3.1,2.6,4,4.3c1.7,3.3,1.7,7.5-0.4,10.9c-1.1,1.7-2.6,3.1-4.3,4
	c-3.3,1.7-7.5,1.7-10.9-0.4c-1.7-1.1-3.1-2.6-4-4.3c-1.7-3.3-1.7-7.5,0.4-10.9c1.1-1.7,2.6-3.1,4.3-4c3-1.5,6.6-1.7,9.7-0.2L653,688
	c-3.7-1.6-8.1-0.4-10.3,3.2c-2.4,3.9-1.2,8.9,2.7,11.4c3.9,2.4,9,1.2,11.3-2.7c2.4-3.9,1.2-8.9-2.7-11.3l0,0l1.3-2.5l0.2,0.1
	L655.6,685.8z M697.7,633.8c-4.6,2.4-10.2,2.6-15.2,0.2l2-3.8c5.5,2.6,12.2,0.8,15.7-4.3l3.6,2.3
	C702.3,630.6,700.1,632.5,697.7,633.8z M704.5,627.2l-3.6-2.3c3.3-5.9,1.5-13.3-4.3-16.9c-5.9-3.7-13.7-1.8-17.4,4.1
	c-3.7,5.9-1.9,13.7,4.1,17.4l0.3,0.2l-2,3.8c-0.2-0.1-0.4-0.2-0.6-0.3c-2.7-1.7-4.7-3.9-6.1-6.5c-2.7-5.1-2.6-11.5,0.6-16.7
	c1.7-2.7,3.9-4.7,6.5-6.1c5.1-2.7,11.5-2.6,16.7,0.6c2.7,1.7,4.7,3.9,6.1,6.5C707.5,615.9,707.5,622.1,704.5,627.2z M981.6,684.5
	c-1.7,1.9-2.9,4.2-3.6,6.8c-2.3,8.9,3.1,18,12,20.3c8.9,2.3,18-3.1,20.3-12c2.3-8.9-3.1-18-12-20.3c-5.9-1.5-11.9,0.4-15.9,4.4
	l-4.1-4.3c4.2-4.1,9.8-6.5,15.9-6.5c1.8,0,3.7,0.2,5.6,0.7c10.2,2.6,17,11.8,17,21.9c0,1.8-0.2,3.7-0.7,5.6
	c-2.6,10.2-11.8,17-21.9,17c-1.8,0-3.7-0.2-5.6-0.7c-10.2-2.6-17-11.8-17-21.9c0-1.8,0.2-3.7,0.7-5.6c1-3.7,2.8-7,5.2-9.7
	L981.6,684.5z M923.9,375.4c4.1-16.2,18.7-27,34.7-27c2.9,0,5.9,0.4,8.9,1.1c3.4,0.9,6.5,2.2,9.4,3.9l-4.9,8
	c-2.1-1.2-4.3-2.2-6.8-2.8c-14.1-3.6-28.5,4.9-32.1,19.1c-0.1,0.2-0.1,0.5-0.1,0.7l-9.1-2.3C923.7,375.9,923.8,375.7,923.9,375.4z
	 M821.6,321.4c2.4,0,4.8,0.3,7.2,0.9c13.1,3.3,21.9,15.2,21.9,28.1c0,2.4-0.3,4.8-0.9,7.2l-0.1,0.3l-7.4-1.8l0.1-0.4
	c2.9-11.5-4-23.1-15.5-26.1c-2.6-0.7-5.2-0.8-7.7-0.5l-0.1-7.7C820,321.4,820.8,321.4,821.6,321.4z M849.3,358.9
	c-2.4,7.8-7.8,13.9-14.7,17.4l-3.9-6.5c5.1-2.4,9.2-6.9,11.1-12.6L849.3,358.9z M829.8,370.2l3.9,6.6c-3.7,1.7-7.8,2.6-12,2.6
	c-2.4,0-4.8-0.3-7.2-0.9c-5.5-1.4-10.3-4.3-13.9-8.2l5.4-5.4c2.7,3,6.3,5.2,10.5,6.3C821,372.3,825.7,371.9,829.8,370.2z
	 M818.2,329.3c-8.1,1.3-15.1,7.3-17.3,15.8c-1.8,6.9,0.1,13.9,4.3,19l-5.4,5.4c-4.5-5.2-7.2-12-7.2-19.1c0-2.4,0.3-4.8,0.9-7.2
	c3-11.9,13.1-20.2,24.6-21.6L818.2,329.3z M818.5,220.2c-0.2,0-0.4,0-0.6,0l-0.1-5.9c5.7,0.2,11.1-2.5,14.4-7.1l4.7,3.6
	C832.7,216.6,825.9,220.2,818.5,220.2z M818.5,175c1.8,0,3.7,0.2,5.6,0.7c10.2,2.6,17,11.8,17,21.9c0,1.8-0.2,3.7-0.7,5.6
	c-0.6,2.4-1.6,4.6-2.9,6.6l-4.7-3.6c0.8-1.4,1.5-2.9,1.9-4.5c2.3-8.9-3.1-18-12-20.3c-2.9-0.8-5.9-0.7-8.6,0.1l-1.5-5.7
	C814.4,175.3,816.4,175,818.5,175z M816.8,220c-1.3-0.1-2.6-0.3-3.8-0.6c-3.9-1-7.4-3-10.1-5.7l3.7-4.7c2.1,2.2,4.7,3.8,7.9,4.6
	c0.8,0.2,1.5,0.3,2.3,0.4L816.8,220z M795.9,197.6c0-1.8,0.2-3.7,0.7-5.6c2-7.7,7.7-13.5,14.8-15.9l1.5,5.7
	c-5.1,1.8-9.2,6-10.6,11.6c-1.4,5.4,0.1,10.9,3.4,14.8L802,213C798.2,208.9,795.9,203.4,795.9,197.6z M802.4,214.4
	c2.8,2.7,6.3,4.7,10.4,5.8c1.3,0.3,2.7,0.5,4,0.6l1.3,99.9c-11.9,1.4-22.3,10-25.5,22.3c-0.6,2.5-0.9,5-0.9,7.4
	c0,7.4,2.7,14.4,7.5,19.7l-22.4,22.7l-23.8-76.2c9.9-2.9,18-10.7,20.7-21.4c0.6-2.5,0.9-5,0.9-7.4c0-9.3-4.4-18.1-11.7-23.7
	L802.4,214.4z M762.3,264.9c7,5.4,11.3,13.9,11.3,23c0,2.4-0.3,4.8-0.9,7.2c-2.6,10.3-10.5,17.9-20.1,20.7l-2.3-7.3
	c7.1-2,13-7.6,15-15.3c2.2-8.6-1.1-17.3-7.8-22.3L762.3,264.9z M751.6,316.1c-2.3,0.6-4.6,0.9-7,0.9c-2.4,0-4.8-0.3-7.2-0.9
	c-6.7-1.7-12.2-5.6-16-10.7l6.1-4.6c2.8,3.8,6.9,6.7,11.9,7.9c3.4,0.9,6.8,0.9,10,0.1L751.6,316.1z M715.6,287.9
	c0-2.4,0.3-4.8,0.9-7.2c3.3-13.1,15.1-21.9,28.1-21.9c2.4,0,4.8,0.3,7.2,0.9c3.6,0.9,6.8,2.5,9.6,4.5l-4.7,6c-2-1.4-4.3-2.4-6.8-3.1
	c-11.5-2.9-23.1,4-26.1,15.5c-1.6,6.1-0.3,12.3,3,17.2l-6.1,4.6C717.5,299.6,715.6,293.9,715.6,287.9z M691.8,329.6
	c1.6,2.7,2.4,5.7,2.4,8.6c0,5.8-3,11.4-8.3,14.5c-2.7,1.6-5.7,2.4-8.6,2.4c-2.4,0-4.8-0.6-7-1.6l1.9-3.8c3.6,1.6,7.9,1.5,11.5-0.7
	c6-3.6,8-11.3,4.4-17.3c-0.2-0.3-0.3-0.5-0.5-0.7l3.4-2.6C691.3,328.9,691.6,329.2,691.8,329.6z M662.7,346.9
	c-1.6-2.7-2.4-5.7-2.4-8.6c0-5.8,3-11.4,8.3-14.5c2.7-1.6,5.7-2.4,8.6-2.4c5,0,9.8,2.2,13.1,6.2l-3.4,2.6c-3.9-4.7-10.7-6-16.1-2.8
	c-6,3.6-8,11.3-4.4,17.3c1.2,2,2.8,3.5,4.7,4.6l-1.9,3.8C666.7,351.7,664.4,349.6,662.7,346.9z M669.9,354.4
	c2.3,1.1,4.9,1.7,7.4,1.7c3.1,0,6.2-0.8,9.1-2.5c5.6-3.3,8.7-9.3,8.7-15.4c0-3.1-0.8-6.2-2.5-9.1c-0.3-0.4-0.6-0.8-0.9-1.2l28.9-22
	c4,5.3,9.7,9.3,16.5,11c2.5,0.6,5,0.9,7.4,0.9c2.5,0,4.9-0.3,7.2-0.9l23.9,76.7L733.9,436c-4.7-5.3-11-9.3-18.4-11.1
	c-3.1-0.8-6.1-1.2-9.2-1.2c-14.3,0-27.5,8.3-33.5,21.4l-38.5-19.3L669.9,354.4z M733.1,436.9l-6.6,6.7c-3.4-4-8-7-13.5-8.4
	c-12.6-3.2-25.5,3.3-30.6,14.8l-8.4-4.2c5.9-12.7,18.6-20.8,32.5-20.8c2.9,0,5.9,0.4,8.9,1.1C722.4,427.9,728.5,431.7,733.1,436.9z
	 M632.9,426.4l-24.1,48.5c-4.6-2.1-9.9-2.8-15.2-1.6c-1.9,0.5-3.8,1.1-5.5,2c-6.4,3.3-10.8,9.4-12.1,16.3l-12.8-2.2l-6.9-65.4
	c12.6-1.6,23.7-9.6,29.1-21.5L632.9,426.4z M609.5,476.1c4,2.1,7.3,5.4,9.5,9.5c0.6,1.1,1,2.2,1.4,3.4l-5.6,1.7
	c-1.4-4.1-4.3-7.4-7.9-9.3L609.5,476.1z M605.8,480.9c-3.2-1.5-7-2-10.7-1.1c-6.5,1.5-11.3,6.7-12.5,12.9l-5.9-1
	c1.3-6.7,5.6-12.5,11.7-15.7c1.6-0.9,3.4-1.5,5.3-2c5.1-1.2,10.3-0.6,14.7,1.5L605.8,480.9z M556.2,422.9l-1-9.3
	c9-1.2,17-7.1,20.7-15.7l8.4,4.2C579.2,413.5,568.4,421.3,556.2,422.9z M515.9,387.4c0-2.9,0.4-5.9,1.1-8.9
	c4.1-16.2,18.7-27,34.7-27c2.9,0,5.9,0.4,8.9,1.1c16.2,4.1,27,18.7,27,34.7c0,2.9-0.4,5.9-1.1,8.9c-0.4,1.7-1,3.2-1.6,4.8l-8.4-4.2
	c0.4-0.9,0.7-1.9,0.9-2.9c3.6-14.1-4.9-28.5-19.1-32.1c-14.1-3.6-28.5,4.9-32.1,19.1c-2.2,8.7,0.2,17.6,5.7,23.9l-6.6,6.8
	C519.3,405,515.9,396.4,515.9,387.4z M555.1,423c-1.1,0.1-2.3,0.2-3.4,0.2c-2.9,0-5.9-0.4-8.9-1.1c-6.7-1.7-12.4-5.2-16.8-9.8
	l6.5-6.7c3.3,3.5,7.6,6.2,12.6,7.4c3,0.8,6.1,1,9,0.7L555.1,423z M525.2,413.1c4.6,4.7,10.5,8.3,17.4,10.1c3.1,0.8,6.1,1.2,9.2,1.2
	c1.2,0,2.4-0.1,3.5-0.2l6.9,65.1l-65.7-11.1c0.2-1.6,0.4-3.1,0.4-4.6c0-8.3-3.5-16.1-9.3-21.7L525.2,413.1z M486.8,452.6
	c5.7,5.4,9,13,9,21c0,1.5-0.2,3-0.4,4.5l-7.5-1.3c1.1-7.1-1.5-14-6.5-18.8L486.8,452.6z M466.8,444.6c2.4,0,4.8,0.3,7.2,0.9
	c4.6,1.2,8.7,3.4,12,6.4l-5.3,5.5c-2.4-2.1-5.3-3.6-8.6-4.5c-3.1-0.8-6.2-0.8-9.2-0.3l-1.2-7.5C463.4,444.7,465.1,444.6,466.8,444.6
	z M461.8,452.8c-4.9,1.2-9.2,4-12.2,8l-6.1-4.6c4.2-5.6,10.3-9.5,17.1-11L461.8,452.8z M545.1,292.5c-4.4-3.6-7.3-8.8-8-14.5
	l5.9-0.6c0.6,4.1,2.7,7.8,5.8,10.5L545.1,292.5z M537.5,269.5c2.6-10.2,11.8-17,21.9-17c1.8,0,3.7,0.2,5.6,0.7
	c10.2,2.6,17,11.8,17,21.9c0,1.8-0.2,3.7-0.7,5.6c-2.6,10.2-11.8,17-21.9,17c-1.8,0-3.7-0.2-5.6-0.7c-2.9-0.8-5.6-2.1-7.9-3.8
	l3.6-4.7c1.7,1.2,3.6,2.2,5.7,2.7c8.9,2.3,18-3.1,20.3-12c2.3-8.9-3.1-18-12-20.3c-8.9-2.3-18,3.1-20.3,12c-0.5,1.8-0.6,3.6-0.5,5.3
	l-5.9,0.6c0-0.6-0.1-1.2-0.1-1.8C536.8,273.2,537,271.3,537.5,269.5z M444.9,273.1c2.6,1.4,4.8,3.5,6.4,6.2c1.2,2,1.9,4.1,2.2,6.3
	l-4.3,0.4c-0.2-1.6-0.8-3.1-1.6-4.6c-1.2-2-2.8-3.5-4.6-4.5L444.9,273.1z M426,294.3c2.6,4.4,7.5,6.6,12.2,6.1l0.7,4.2
	c-0.7,0.1-1.3,0.1-2,0.1c-5.8,0-11.4-3-14.6-8.3c-1.6-2.7-2.4-5.7-2.4-8.6c0-5.8,3-11.4,8.3-14.5c2.7-1.6,5.7-2.4,8.6-2.4
	c2.5,0,4.9,0.6,7.1,1.6l-1.9,3.8c-3.6-1.6-8-1.5-11.6,0.6C424.4,280.6,422.4,288.3,426,294.3z M439.3,300.2c1.4-0.3,2.7-0.8,4-1.5
	c4.2-2.5,6.4-7,6.1-11.6l4.2-0.4c0,0.4,0.1,0.8,0.1,1.2c0,5.8-3,11.4-8.3,14.5c-1.7,1-3.6,1.7-5.5,2L439.3,300.2z M440.1,305.4
	c2-0.4,4-1.1,5.8-2.2c5.6-3.3,8.7-9.3,8.7-15.4c0-0.4-0.1-0.9-0.1-1.3l81.7-8.6c0.8,5.9,3.7,11.3,8.3,15l-88.8,113.4L440.1,305.4z
	 M455.1,409.2l5.4,35.1c-7.1,1.5-13.4,5.5-17.7,11.4l-15.1-11.4L455.1,409.2z M426.1,444.4l-52.4,67c-5.2-4.3-11.7-6.9-18.7-7
	l0-77.8c11.3-0.2,21.8-5.5,28.6-14.2L426.1,444.4z M373.9,512.9c2.5,2.3,4.7,5,6.3,8.1l0.2,0.5l-6.6,3.8c-1.1-2.4-2.7-4.5-4.6-6.3
	L373.9,512.9z M368.4,518.2c-3.7-3.2-8.4-5-13.4-5.2l0-7.6c6.7,0.1,13.1,2.6,18.1,6.8L368.4,518.2z M355,425.5v-9.4
	c7.9-0.2,15.3-3.9,20.2-10l7.5,5.7C376.1,420.1,365.9,425.3,355,425.5z M354.4,353.9c2.9,0,5.9,0.4,8.9,1.1
	c16.2,4.1,27,18.7,27,34.7c0,2.9-0.4,5.9-1.1,8.9c-1.2,4.6-3.2,8.7-5.8,12.3l-7.5-5.6c1.9-2.6,3.4-5.6,4.2-8.9
	c3.6-14.1-4.9-28.5-19.1-32.1c-4.2-1.1-8.4-1-12.4-0.1l-2.3-9.1C348.9,354.2,351.6,353.9,354.4,353.9z M343.3,507.6
	c1.4-0.6,2.9-1.1,4.5-1.5c2-0.5,4.1-0.7,6.1-0.7l0,7.6c-1.4,0-2.9,0.2-4.3,0.6c-1.2,0.3-2.3,0.7-3.4,1.1L343.3,507.6z M345.1,515.1
	c-3,1.5-5.6,3.6-7.6,6.1l-5.7-5c2.5-3.1,5.6-5.7,9.2-7.6c0.4-0.2,0.9-0.4,1.3-0.6L345.1,515.1z M347.6,505.2
	c-1.6,0.4-3.1,0.9-4.6,1.5L305,412l15.8-7c4.5,9.8,13.2,17.6,24.5,20.4c2.9,0.7,5.7,1.1,8.6,1.1l0,77.8
	C351.8,504.5,349.7,504.7,347.6,505.2z M345.6,424.4c-10.9-2.8-19.3-10.3-23.7-19.8l8.6-3.8c3.2,6.9,9.4,12.4,17.4,14.4
	c2,0.5,4,0.8,6,0.8v9.4C351.1,425.4,348.3,425.1,345.6,424.4z M347.5,364.2c-8.9,2.4-16.3,9.4-18.7,19c-1.5,5.8-0.9,11.6,1.2,16.7
	l-8.6,3.8c-1.8-4.3-2.8-9-2.8-13.9c0-2.9,0.4-5.9,1.1-8.9c3.3-13,13.4-22.5,25.5-25.7L347.5,364.2z M344.9,353.9
	c-12.5,3.3-22.9,13.1-26.4,26.6c-0.8,3.1-1.2,6.1-1.2,9.2c0,5,1,9.9,2.9,14.4l-15.8,6.9l-37.6-94l40.2-21.6
	c2.9,5.9,8.3,10.5,15.1,12.2c1.9,0.5,3.9,0.7,5.8,0.7c1.9,0,3.7-0.2,5.4-0.7L344.9,353.9z M307.8,295.1l5.2-2.8
	c2.1,4.3,5.9,7.6,10.9,8.9c2.7,0.7,5.4,0.7,8,0.1l1.4,5.7c-1.7,0.4-3.5,0.6-5.3,0.6c-1.8,0-3.7-0.2-5.6-0.7
	C315.8,305.2,310.6,300.7,307.8,295.1z M328,262.4c1.8,0,3.7,0.2,5.6,0.7c10.2,2.6,17,11.8,17,21.9c0,1.8-0.2,3.7-0.7,5.6
	c-2,8-8.1,13.9-15.5,16.1l-1.4-5.7c5.4-1.7,9.8-6,11.3-11.8c2.3-8.9-3.1-18-12-20.3c-8.1-2.1-16.2,2.2-19.4,9.6l-5.7-1.7
	C310.4,268.1,318.8,262.4,328,262.4z M306.6,277.8l5.7,1.7c-0.2,0.5-0.3,0.9-0.4,1.4c-0.9,3.6-0.6,7.2,0.7,10.3l-5.2,2.8
	c-1.2-2.8-1.9-5.9-1.9-9c0-1.8,0.2-3.7,0.7-5.6C306.2,278.9,306.4,278.3,306.6,277.8z M248.4,242.4c3.6,1.3,6.9,3.7,9,7.3
	c1.6,2.7,2.4,5.7,2.4,8.6c0,1.4-0.2,2.9-0.5,4.3l-4.1-1.2c0.8-3.1,0.4-6.5-1.4-9.5c-1.5-2.6-3.8-4.4-6.4-5.4L248.4,242.4z
	 M234.2,243.8c2.7-1.6,5.7-2.4,8.6-2.4c1.5,0,3,0.2,4.5,0.6l-1.1,4.1c-3.2-0.9-6.7-0.5-9.8,1.3c-0.2,0.1-0.5,0.3-0.7,0.5l-2.6-3.4
	C233.5,244.3,233.8,244.1,234.2,243.8z M242.9,275.3c-5.8,0-11.4-3-14.6-8.3c-1.6-2.7-2.4-5.7-2.4-8.6c0-5,2.2-9.9,6.3-13.2l2.6,3.4
	c-4.7,3.9-6.1,10.7-2.8,16.2c3.1,5.3,9.5,7.4,15,5.5l1.6,3.9C246.7,274.9,244.8,275.3,242.9,275.3z M248,269.9
	c0.4-0.2,0.8-0.4,1.2-0.6c2.7-1.6,4.5-4,5.5-6.7l4.1,1.2c-1.2,3.7-3.7,7.1-7.4,9.2c-0.6,0.4-1.2,0.7-1.8,0.9L248,269.9z M250,274.7
	c0.7-0.3,1.3-0.6,2-1c3.9-2.3,6.5-5.8,7.8-9.8l46.1,13.6c-0.2,0.5-0.4,1.1-0.5,1.7c-0.5,1.9-0.7,3.9-0.7,5.8c0,3.3,0.7,6.5,2,9.4
	L266.5,316L250,274.7z M266,317.6l37.6,93.9L270,426.2c-3.7-7.9-10.7-14.2-19.8-16.5c-2.5-0.6-5-0.9-7.4-0.9c-8,0-15.5,3.2-21,8.6
	l-29.3-28.6c3.4-3.6,5.9-8,7.2-13.2c0.6-2.5,0.9-5,0.9-7.4c0-4.8-1.2-9.5-3.3-13.7L266,317.6z M269.1,426.6l-6.9,3.1
	c-2.6-5.6-7.6-10-14.1-11.6c-7.5-1.9-15,0.4-20.2,5.4l-5.4-5.3c5.4-5.3,12.6-8.4,20.3-8.4c2.4,0,4.8,0.3,7.2,0.9
	C258.8,412.9,265.6,419,269.1,426.6z M199.7,368.2c0,2.4-0.3,4.8-0.9,7.2c-1.3,4.9-3.7,9.3-7,12.7l-5.4-5.3c2.4-2.5,4.1-5.7,5.1-9.3
	c1.3-5.2,0.6-10.5-1.7-14.9l6.7-3.6C198.6,359,199.7,363.5,199.7,368.2z M191.1,388.9c-5.4,5.3-12.6,8.4-20.3,8.4
	c-1.2,0-2.4-0.1-3.6-0.2l1.1-7.6c6.5,0.8,12.9-1.5,17.4-5.9L191.1,388.9z M141.7,368.3c0-2.4,0.3-4.8,0.9-7.2
	c3.3-13.1,15.2-21.9,28.1-21.9c2.4,0,4.8,0.3,7.2,0.9c8,2,14.3,7.2,18.1,13.9l-6.7,3.6c-2.8-4.9-7.4-8.6-13.3-10.1
	c-11.5-2.9-23.1,4-26.1,15.5c-1.3,5.3-0.6,10.6,1.7,15.1l-6.7,3.6C142.9,377.6,141.7,373,141.7,368.3z M167.1,389.3l-1.1,7.5
	c-0.8-0.1-1.6-0.3-2.5-0.5c-7.9-2-14.3-7.2-18-13.8l6.7-3.6c2.8,4.8,7.4,8.5,13.2,10C166,389.1,166.5,389.2,167.1,389.3z
	 M70.3,413.8c0-5.8,3-11.4,8.3-14.5c2.7-1.6,5.7-2.4,8.6-2.4c5.8,0,11.4,3,14.5,8.3l0,0.1l-3.8,2.1c-3.6-5.9-11.3-7.9-17.2-4.3
	c-5.8,3.4-7.8,10.7-4.8,16.5l-3.7,2.1C70.9,419.1,70.3,416.5,70.3,413.8z M82.2,429.9c-3.8-1.2-7.2-3.7-9.5-7.3l3.7-2.1
	c1.6,2.6,4.1,4.4,6.8,5.3L82.2,429.9z M95.8,428.3c-2.7,1.6-5.7,2.4-8.6,2.4c-1.3,0-2.6-0.2-3.9-0.5l1.1-4.1c3,0.7,6.3,0.3,9.2-1.4
	c1.9-1.1,3.4-2.6,4.4-4.4l3.8,2C100.4,424.7,98.4,426.8,95.8,428.3z M102.3,421.3l-3.8-2c1.6-3.4,1.7-7.4,0-11l3.7-2
	c1.2,2.4,1.8,5,1.8,7.6C104.1,416.4,103.5,419,102.3,421.3z M103.1,421.8c1.2-2.5,1.9-5.2,1.9-8c0-2.7-0.7-5.5-2-8l41.6-22.7
	c3.9,6.8,10.4,12.1,18.6,14.2c0.9,0.2,1.7,0.3,2.6,0.5l-5.3,36.7c-0.7-0.1-1.3-0.1-2-0.1c-3.1,0-6.2,0.8-9.1,2.5
	c-2.7,1.6-4.9,3.9-6.3,6.4L103.1,421.8z M161.5,435.6c4.7,0.8,9,3.6,11.6,8c1,1.7,1.7,3.6,2,5.4l-4.2,0.7c-0.3-1.3-0.8-2.7-1.5-3.9
	c-1.9-3.2-5.1-5.3-8.5-5.9L161.5,435.6z M154.6,468.6c-4.3-1-8.1-3.7-10.5-7.8c-1.6-2.7-2.4-5.7-2.4-8.6c0-2.6,0.6-5.2,1.8-7.5
	l3.7,2c-1.8,3.7-1.7,8.1,0.5,11.9c1.8,3,4.6,5,7.7,5.8L154.6,468.6z M152.1,441.3c-1.9,1.1-3.4,2.6-4.4,4.4l-3.8-2
	c1.4-2.4,3.4-4.5,6-6.1c2.7-1.6,5.7-2.4,8.6-2.4c0.6,0,1.3,0,1.9,0.1l-0.6,4.2C157.2,439.4,154.5,439.9,152.1,441.3z M167.2,466.7
	c-2.7,1.6-5.7,2.4-8.6,2.4c-1,0-2-0.1-2.9-0.3l0.9-4.2c2.8,0.5,5.8,0,8.5-1.6c4.4-2.6,6.6-7.5,6.1-12.3l4.2-0.7
	c0.1,0.7,0.1,1.4,0.1,2.1C175.5,457.9,172.5,463.5,167.2,466.7z M212.8,438.8c0,1.4,0.1,2.8,0.3,4.1l-37.1,5.9
	c-0.4-2-1.1-3.9-2.1-5.8c-2.8-4.6-7.3-7.6-12.2-8.4L167,398c1.3,0.2,2.5,0.2,3.8,0.2c8,0,15.5-3.2,21-8.6l29.3,28.6
	c-3.4,3.6-5.9,8-7.2,13.2C213.1,433.9,212.8,436.4,212.8,438.8z M213.8,438.8c0-2.4,0.3-4.8,0.9-7.2c1.3-4.9,3.7-9.3,7-12.7l5.4,5.3
	c-2.4,2.5-4.1,5.7-5.1,9.3c-0.7,2.7-0.8,5.5-0.5,8.1l-7.5,1.2C213.9,441.5,213.8,440.2,213.8,438.8z M242.8,467.8
	c-2.4,0-4.8-0.3-7.2-0.9c-11.4-2.9-19.5-12.2-21.4-23l7.5-1.2c1.5,8,7.4,14.7,15.8,16.9c7.9,2,15.9-0.6,21-6.2l5.7,5
	C258.8,464.3,251.1,467.8,242.8,467.8z M259.3,452.5c2-2.4,3.5-5.2,4.3-8.4c1.2-4.6,0.7-9.3-1-13.4l7-3.1c1.5,3.5,2.3,7.3,2.3,11.2
	c0,2.4-0.3,4.8-0.9,7.2c-1.1,4.4-3.2,8.3-6,11.6L259.3,452.5z M265.7,458.2c2.9-3.4,5-7.4,6.2-11.9c0.6-2.5,0.9-5,0.9-7.4
	c0-4-0.8-7.9-2.3-11.5l33.5-14.8l38,94.7c-0.5,0.2-0.9,0.4-1.4,0.6c-3.7,1.9-6.9,4.6-9.5,7.8L265.7,458.2z M382.7,527.8
	c3.1,13.2-3.3,26.4-14.8,32.4c-2.1,1.1-4.4,1.9-6.8,2.5c-13.2,3.1-26.4-3.3-32.4-14.8c-1.1-2.1-1.9-4.4-2.5-6.8
	c-2-8.7,0.1-17.3,5-23.9l5.7,5c-3.3,4.8-4.7,11-3.3,17.1c2.7,11.5,14.2,18.7,25.8,16c11.5-2.7,18.7-14.2,16-25.8
	c-0.3-1.1-0.6-2.2-1.1-3.3l6.6-3.8C381.6,524.2,382.2,525.9,382.7,527.8z M381.2,521l-0.2-0.5c-1.7-3.2-3.9-6-6.5-8.4l52.5-67
	l15.2,11.4c-2,2.8-3.5,6.1-4.4,9.6c-0.6,2.5-0.9,5-0.9,7.4c0,4.9,1.2,9.6,3.4,13.8L381.2,521z M437.8,473.6c0-2.4,0.3-4.8,0.9-7.2
	c0.9-3.4,2.3-6.5,4.2-9.3l6.1,4.6c-1.3,2-2.3,4.2-2.9,6.6c-1.3,5.2-0.6,10.4,1.6,14.9l-6.6,3.8C438.9,482.9,437.8,478.3,437.8,473.6
	z M466.8,502.6c-2.4,0-4.8-0.3-7.2-0.9c-8-2-14.3-7.2-18-13.8l6.6-3.8c2.8,4.9,7.4,8.7,13.3,10.2c6.2,1.6,12.5,0.3,17.4-3.1l4.7,6
	C478.8,500.7,472.9,502.6,466.8,502.6z M479.8,490.6c3.7-2.8,6.5-6.8,7.7-11.7c0.1-0.3,0.1-0.7,0.2-1l7.5,1.3
	c-0.1,0.5-0.2,1.1-0.3,1.6c-1.7,6.5-5.4,12-10.4,15.8L479.8,490.6z M485.1,497.3c5.1-3.9,9-9.6,10.7-16.3c0.1-0.6,0.2-1.1,0.3-1.7
	l66.1,11.1l8.4,79.6c-1.1,0.2-2.3,0.4-3.4,0.6c-3.1,0.7-6,1.8-8.7,3.2c-3,1.6-5.7,3.5-8.1,5.7L485.1,497.3z M570.7,571.2l1,9.3
	c-0.7,0.1-1.4,0.2-2.1,0.4c-4.9,1.2-9.2,3.7-12.6,7l-5.9-7.4c2.3-2.2,5-4.1,7.9-5.6c2.6-1.4,5.4-2.4,8.4-3.1
	C568.5,571.6,569.6,571.4,570.7,571.2z M607.4,590.1c1.4,2.6,2.4,5.4,3.1,8.4c3.8,16.3-4.1,32.5-18.3,39.9c-2.6,1.4-5.4,2.4-8.4,3.1
	c-16.3,3.8-32.6-4.1-39.9-18.3c-1.4-2.6-2.4-5.4-3.1-8.4c-2.9-12.5,1.1-25.1,9.6-33.5l5.9,7.4c-5.8,6.2-8.4,15.1-6.3,24
	c3.3,14.2,17.6,23,31.8,19.7c14.2-3.3,23-17.6,19.7-31.8c-2.3-9.8-9.8-17.1-18.9-19.5l1.8-9.2C594.1,574.4,602.6,580.9,607.4,590.1z
	 M571.8,571.1c3.9-0.4,7.7-0.2,11.4,0.6l-1.8,9.2c-2.7-0.6-5.6-0.8-8.5-0.5L571.8,571.1z M583.4,570.5c-3.8-0.8-7.7-1-11.7-0.6
	l-8.3-79.3l12.5,2.1c-0.4,2.8-0.3,5.7,0.4,8.6c0.5,1.9,1.1,3.8,2,5.5c3.2,6.1,8.9,10.5,15.6,12L583.4,570.5z M594,518.1
	c-6.4-1.5-12-5.6-15-11.6c-0.9-1.6-1.5-3.4-2-5.3c-0.7-2.8-0.7-5.6-0.4-8.4l5.8,1c-0.3,2-0.2,4,0.3,6c1.5,6.4,6.5,11,12.4,12.4
	L594,518.1z M609.4,516.1c-1.6,0.9-3.4,1.5-5.3,2c-3.1,0.7-6.1,0.8-9.1,0.2l1.2-5.8c2.1,0.4,4.3,0.3,6.5-0.2
	c9-2.1,14.5-11.1,12.4-20l-0.1-0.5l5.6-1.7c0.1,0.3,0.2,0.5,0.2,0.8C623.3,501.1,618.3,511.4,609.4,516.1z M621.1,488.8
	c-0.4-1.2-0.9-2.4-1.4-3.5c-2.2-4.3-5.7-7.7-9.8-9.8l24.1-48.6l38.5,19.3c-0.7,1.7-1.4,3.5-1.8,5.4c-0.8,3.1-1.2,6.1-1.2,9.2
	c0,4.4,0.8,8.7,2.3,12.8L621.1,488.8z M670.6,460.7c0-2.9,0.4-5.9,1.1-8.9c0.5-1.8,1.1-3.5,1.8-5.2l8.4,4.2
	c-0.4,1.1-0.8,2.1-1.1,3.3c-1.4,5.6-0.9,11.3,1.1,16.3l-9,2.7C671.4,469.3,670.6,465.1,670.6,460.7z M706.4,496.5
	c-2.9,0-5.9-0.4-8.9-1.1c-11.4-2.9-20.1-11-24.3-21.2l9-2.7c3.2,7.1,9.4,12.7,17.6,14.8c10.7,2.7,21.5-1.5,27.7-9.8l7.9,5
	C728.9,490.8,718,496.5,706.4,496.5z M736.2,480.6l-8-5c1.7-2.5,3-5.3,3.8-8.3c2.1-8.3,0-16.6-4.8-22.8l6.6-6.7
	c5.3,6.3,8.4,14.4,8.4,23c0,2.9-0.4,5.9-1.1,8.9C740,473.6,738.4,477.3,736.2,480.6z M737.2,481.2c2.3-3.4,4-7.2,5.1-11.4
	c0.8-3.1,1.2-6.1,1.2-9.2c0-8.8-3.2-17.2-8.7-23.8l41.6-42l32.7,104.8c-7.6,2.8-14.2,8.1-18.6,15.1L737.2,481.2z M828.2,508.8
	c-5.2-1.3-10.4-1-15.1,0.6l-2.8-9c3.6-1.2,7.4-1.9,11.3-1.9c2.9,0,5.9,0.4,8.9,1.1c4,1,7.7,2.7,11,4.9l-5.7,7.5
	C833.5,510.6,831,509.5,828.2,508.8z M840.6,552.7l7.1,6.1c-6.7,7.1-16.1,11.3-26.1,11.3c-2.9,0-5.9-0.4-8.9-1.1
	c-0.6-0.1-1.1-0.3-1.7-0.5l2.5-9.1c0.5,0.2,1,0.3,1.5,0.5C824.6,562.4,834.3,559.3,840.6,552.7z M812,509.8
	c-5.3,2.1-9.8,5.8-12.9,10.7l-7.9-5c4.2-6.8,10.6-11.9,18-14.6L812,509.8z M785.8,534.4c0-2.9,0.4-5.9,1.1-8.9
	c0.8-3.3,2.1-6.3,3.7-9.1l7.9,5c-1.1,2-2,4.1-2.6,6.4c-3.4,13.3,3.9,26.7,16.5,31.3l-2.5,9.1C795.4,563.3,785.8,549.5,785.8,534.4z
	 M787.8,654.3c7.1,2.1,12.4,7.4,14.8,13.9L797,670c-1.8-4.7-5.6-8.5-10.7-10.1L787.8,654.3z M781.3,653.3c1.8,0,3.6,0.2,5.4,0.7
	l-1.6,5.7c-6.9-1.6-13.9,1.3-17.7,6.9l-5-3.1C766.6,657.2,773.7,653.3,781.3,653.3z M803.9,675.9c0,1.8-0.2,3.7-0.7,5.6
	c-2.6,10.2-11.8,17-21.9,17c-1.8,0-3.7-0.2-5.6-0.7c-10.2-2.6-17-11.8-17-21.9c0-1.8,0.2-3.7,0.7-5.6c0.5-2.1,1.4-4.1,2.4-5.9l5,3.1
	c-0.7,1.3-1.3,2.7-1.7,4.2c-2.3,8.9,3.1,18,12,20.3c8.9,2.3,18-3.1,20.3-12c0.8-3,0.6-6.1-0.2-8.9l5.6-1.9
	C803.6,671.3,803.9,673.6,803.9,675.9z M927.4,655.4c-2.4,0-4.8-0.3-7.2-0.9c-9.6-2.5-16.9-9.5-20.1-18.2l7.2-2.4
	c2.4,6.3,7.7,11.4,14.8,13.2c7.2,1.8,14.4-0.2,19.5-4.8l5.2,5.5C941.6,652.7,934.7,655.4,927.4,655.4z M927.4,597.4
	c2.4,0,4.8,0.3,7.2,0.9c13.1,3.3,21.9,15.2,21.9,28.1c0,2.4-0.3,4.8-0.9,7.2c-1.4,5.4-4.2,10-7.9,13.6l-5.2-5.5
	c2.7-2.6,4.7-6,5.7-9.9c2.9-11.5-4-23.1-15.5-26.1c-8-2-16.1,0.7-21.3,6.5l-5.8-5C911.1,601,919,597.4,927.4,597.4z M910.7,613
	c-1.9,2.3-3.3,5-4.1,8.1c-1,4-0.8,8.1,0.4,11.8l-7.2,2.4c-0.9-2.8-1.4-5.8-1.4-8.9c0-2.4,0.3-4.8,0.9-7.2c1.1-4.2,3.1-8,5.7-11.2
	L910.7,613z M904.2,607.4c-2.7,3.3-4.8,7.2-5.9,11.6c-0.6,2.5-0.9,5-0.9,7.4c0,3.2,0.5,6.3,1.5,9.2l-95.6,32.3
	c-2.5-6.7-7.9-12.2-15.3-14.4l22.8-83.8c0.6,0.2,1.1,0.4,1.7,0.5c3.1,0.8,6.1,1.2,9.2,1.2c10.3,0,20.1-4.4,27-11.8L904.2,607.4z
	 M857.4,534.4c0,2.9-0.4,5.9-1.1,8.9c-1.4,5.7-4.2,10.7-7.8,14.8l-7.1-6.1c2.7-3.1,4.8-6.8,5.8-11c2.8-11-1.7-22.1-10.5-28.2
	l5.6-7.5C851.7,511.9,857.4,522.8,857.4,534.4z M842.2,503.6c-3.4-2.3-7.2-4-11.4-5.1c-3.1-0.8-6.1-1.2-9.2-1.2c-4,0-8,0.7-11.7,1.9
	L777.1,394l22.8-23c3.8,4,8.7,7,14.4,8.5c2.5,0.6,5,0.9,7.4,0.9c4.4,0,8.7-1,12.5-2.8l29.8,50.3c-5.4,4-9.6,9.8-11.4,16.8
	c-0.6,2.5-0.9,5-0.9,7.4c0,9.3,4.3,18,11.5,23.6L842.2,503.6z M863.7,475c-6.9-5.4-11.1-13.9-11.1-22.8c0-2.4,0.3-4.8,0.9-7.2
	c1.7-6.8,5.7-12.4,11-16.2l3.9,6.6c-3.6,2.8-6.3,6.8-7.5,11.5c-2.2,8.4,1,17,7.5,22.1L863.7,475z M865.3,428.1
	c4.7-3.2,10.4-5,16.2-5c2.4,0,4.8,0.3,7.2,0.9c5.8,1.5,10.7,4.6,14.4,8.7l-5.7,5.1c-2.7-3-6.4-5.3-10.6-6.4
	c-6.3-1.6-12.7-0.2-17.7,3.3L865.3,428.1z M910.6,452.1c0,2.4-0.3,4.8-0.9,7.2c-3.3,13.1-15.2,21.9-28.1,21.9
	c-2.4,0-4.8-0.3-7.2-0.9c-3.6-0.9-6.9-2.5-9.8-4.6l4.6-6.1c2.1,1.5,4.5,2.6,7.1,3.3c11.5,2.9,23.1-4,26.1-15.5
	c1.7-6.8,0-13.7-4.1-18.8l5.7-5.1C908.2,438.8,910.6,445.3,910.6,452.1z M903.9,432.1c-3.8-4.3-8.9-7.5-14.9-9
	c-2.5-0.6-5-0.9-7.4-0.9c-6.1,0-11.9,1.9-16.7,5.1l-29.7-50.2c7-3.6,12.6-9.9,15.1-17.9l72,17.8c-0.5,2.5-0.7,4.9-0.7,7.3
	c0,8.9,3.3,17.4,8.9,24L903.9,432.1z M922.7,384.3c0-2.3,0.2-4.7,0.7-7l9.1,2.3c-1.5,8,0.8,15.9,5.8,21.8l-7,6.3
	C925.9,401.2,922.7,392.9,922.7,384.3z M994.4,384.3c0,2.9-0.4,5.9-1.1,8.9c-4.1,16.2-18.7,27-34.7,27c-2.9,0-5.9-0.4-8.9-1.1
	c-7-1.8-13.1-5.6-17.6-10.6l7-6.3c3.4,3.7,7.8,6.4,12.9,7.8c14.1,3.6,28.5-4.9,32.1-19.1c2.9-11.3-2-22.8-11.3-28.8l5-8
	C988,360.6,994.4,372,994.4,384.3z M1069,370.1c1,1.8,1.5,3.7,1.5,5.6c0,3.8-1.9,7.4-5.4,9.5c-1.8,1-3.7,1.5-5.6,1.5
	c-3.8,0-7.4-1.9-9.5-5.4c-1-1.8-1.5-3.7-1.5-5.6c0-3.8,1.9-7.4,5.4-9.5l-0.2-0.3l0.2,0.3c1.8-1,3.7-1.5,5.6-1.6c0.4,0,0.9,0,1.3,0.1
	l-0.3,2.8c-1.7-0.2-3.6,0.1-5.2,1.1c-3.9,2.3-5.2,7.4-2.9,11.3c2.3,3.9,7.4,5.2,11.3,2.9c3.9-2.3,5.2-7.4,2.9-11.3
	c-1.2-1.9-3-3.2-5-3.8l0.3-2.8C1064.7,365.6,1067.3,367.3,1069,370.1z M1071.3,278.4c-4.5-0.7-8.7-3.2-11.4-7.3l3.6-2.3
	c2,2.9,5,4.8,8.3,5.3L1071.3,278.4z M1087.1,251.2c0.5,0.6,0.9,1.2,1.3,1.9c1.6,2.7,2.4,5.7,2.4,8.6c0,5.8-3,11.4-8.3,14.5
	c-2.7,1.6-5.7,2.4-8.6,2.4c-0.5,0-1-0.1-1.5-0.1l0.5-4.2c2.5,0.2,5.1-0.3,7.4-1.7c6-3.5,8-11.3,4.4-17.3c-0.3-0.5-0.6-0.9-0.9-1.3
	L1087.1,251.2z M1065.3,247.2c2.7-1.6,5.7-2.4,8.6-2.4c4.7,0,9.3,2,12.5,5.6l-3.2,2.8c-4-4.3-10.5-5.4-15.7-2.3
	c-1.9,1.1-3.4,2.7-4.5,4.5l-3.8-2C1060.6,250.9,1062.6,248.7,1065.3,247.2z M1057,261.7c0-2.5,0.6-5,1.7-7.3l3.8,2
	c-1.7,3.6-1.6,7.8,0.5,11.5l-3.6,2.3C1057.7,267.5,1057,264.6,1057,261.7z M997.6,320c-5.8-4.2-9.4-11-9.4-18.3
	c0-1.8,0.2-3.7,0.7-5.6c2.6-10.2,11.8-17,21.9-17c1.8,0,3.7,0.2,5.6,0.7c5.5,1.4,9.9,4.7,12.9,9l-5,3.1c-2.2-3-5.4-5.4-9.4-6.4
	c-8.9-2.3-18,3.1-20.3,12c-1.7,6.7,0.9,13.5,6.1,17.4L997.6,320z M1010.8,324.3c-1.8,0-3.7-0.2-5.6-0.7c-2.4-0.6-4.7-1.6-6.7-2.9
	l3.1-5c1.5,1,3.2,1.8,5,2.2c7.4,1.9,14.9-1.5,18.5-7.8l5.3,2.7C1026.6,319.8,1019,324.3,1010.8,324.3z M1031,311.7l-5.3-2.6
	c0.5-1,0.9-2.1,1.2-3.3c1.2-4.6,0.3-9.2-2-13l5-3.1c2.2,3.5,3.5,7.7,3.5,12c0,1.8-0.2,3.7-0.7,5.6
	C1032.3,308.9,1031.7,310.3,1031,311.7z M1065.2,328.8l-33.5-16.7c0.7-1.4,1.3-3,1.7-4.6c0.5-1.9,0.7-3.9,0.7-5.8
	c0-4.4-1.3-8.7-3.6-12.3l28.5-17.8c2.9,4.3,7.3,7,12.1,7.7L1065.2,328.8z M1045.2,610.5c-0.5,0.2-1.1,0.4-1.6,0.7
	c-3.9,2.3-5.2,7.4-2.9,11.3c2.3,3.9,7.4,5.2,11.3,2.9c3.9-2.3,5.2-7.4,2.9-11.3c-1.8-3.1-5.3-4.5-8.6-3.9l-0.7-2.7
	c0.7-0.2,1.5-0.3,2.2-0.3c3.8,0,7.4,1.9,9.5,5.4c1,1.8,1.5,3.7,1.5,5.6c0,3.8-1.9,7.4-5.4,9.5c-1.8,1-3.7,1.6-5.6,1.6
	c-3.8,0-7.4-1.9-9.5-5.4c-1-1.8-1.5-3.7-1.5-5.6c0-3.8,1.9-7.4,5.4-9.5l-0.2-0.3l0.2,0.3c0.8-0.4,1.5-0.8,2.3-1L1045.2,610.5z
	 M1027.5,551.3c-5.8,0-11.4-3-14.5-8.3c-1.6-2.7-2.4-5.7-2.4-8.6c0-5.8,3-11.4,8.3-14.5c2.7-1.6,5.7-2.4,8.6-2.4
	c5.6,0,11,2.8,14.2,7.8l-3.5,2.5c-3.6-5.9-11.2-7.8-17.2-4.3c-6,3.6-8,11.3-4.4,17.3c2.6,4.3,7.3,6.6,12,6.1l1.1,4.2
	C1029,551.2,1028.3,551.3,1027.5,551.3z M1044.4,534.4c0,5.8-3,11.4-8.3,14.5c-1.7,1-3.4,1.6-5.2,2l-1.1-4.1
	c1.4-0.3,2.8-0.8,4.1-1.5c5.7-3.4,7.8-10.6,4.8-16.5l3.5-2.5C1043.7,528.8,1044.4,531.6,1044.4,534.4z M1124.1,580.2
	c0,5.8-3,11.4-8.3,14.5c-2.7,1.6-5.7,2.4-8.6,2.4c-5.8,0-11.4-3-14.5-8.3c-1.6-2.7-2.4-5.7-2.4-8.6c0-5.8,3-11.4,8.3-14.5
	c2.7-1.6,5.7-2.4,8.6-2.4c5.8,0,11.4,3,14.5,8.3c0.4,0.7,0.7,1.4,1,2.1l-4,1.5c-0.2-0.5-0.4-1-0.7-1.4c-3.6-6-11.3-8-17.3-4.4
	c-6,3.6-8,11.3-4.4,17.3c3.6,6,11.3,8,17.3,4.4c5.2-3.1,7.4-9.3,5.5-14.8l4-1.5C1123.7,576.5,1124.1,578.4,1124.1,580.2z
	 M1193.9,524.4c1.8,0,3.7,0.2,5.6,0.7c10.2,2.6,17,11.8,17,21.9c0,1.8-0.2,3.7-0.7,5.6c-2.6,10.2-11.8,17-21.9,17
	c-1.8,0-3.7-0.2-5.6-0.7c-7.2-1.8-12.7-6.9-15.3-13.3l5.5-2.1c2,4.6,6,8.3,11.2,9.7c8.9,2.3,18-3.1,20.3-12c2.3-8.9-3.1-18-12-20.3
	c-6.1-1.6-12.2,0.5-16.3,4.7l-4.4-3.9C1181.6,527.1,1187.6,524.4,1193.9,524.4z M1181.1,536.4c-1.5,1.8-2.7,4-3.3,6.5
	c-0.8,3.3-0.6,6.6,0.4,9.6l-5.5,2.1c-0.9-2.4-1.3-4.9-1.3-7.5c0-1.8,0.2-3.7,0.7-5.6c0.9-3.4,2.5-6.4,4.6-8.9L1181.1,536.4z
	 M1334.4,513.7c1,1.8,1.5,3.7,1.5,5.6c0,3.8-1.9,7.4-5.4,9.5c-1.8,1.1-3.7,1.5-5.6,1.5c-3.8,0-7.4-1.9-9.5-5.4
	c-1-1.8-1.5-3.7-1.5-5.6c0-3.8,1.9-7.4,5.4-9.5l-0.2-0.3l0.2,0.3c1.8-1.1,3.7-1.6,5.6-1.6c1.5,0,2.9,0.3,4.2,0.8l-1.2,2.6
	c-2.3-0.9-4.9-0.8-7.2,0.6c-3.9,2.3-5.2,7.4-2.9,11.3c2.3,3.9,7.4,5.2,11.3,2.9c3.9-2.3,5.2-7.4,2.9-11.3c-0.8-1.3-1.9-2.3-3.1-3
	l1.2-2.6C1331.8,510.6,1333.3,511.9,1334.4,513.7z M1354.4,440.2c5.8,0,11.4,3,14.5,8.3c1.6,2.7,2.4,5.7,2.4,8.6
	c0,5.8-3,11.4-8.3,14.5c-2.7,1.6-5.7,2.4-8.6,2.4c-2.3,0-4.6-0.5-6.7-1.4l1.8-3.9c3.6,1.5,7.8,1.4,11.3-0.8c6-3.5,8-11.3,4.4-17.3
	c-3-5-8.8-7.2-14.1-5.7l-1.3-4.1C1351.3,440.4,1352.9,440.2,1354.4,440.2z M1350.1,445.3c-0.7,0.3-1.4,0.6-2.1,1
	c-6,3.6-8,11.3-4.4,17.3c1.2,2.1,3,3.7,4.9,4.7l-1.8,3.9c-2.7-1.4-5.1-3.5-6.8-6.4c-1.6-2.7-2.4-5.7-2.4-8.6c0-5.8,3-11.4,8.3-14.5
	c1-0.6,2-1,3-1.4L1350.1,445.3z M1299.6,352.3c2.6-10.2,11.8-17,21.9-17c1.8,0,3.7,0.2,5.6,0.7c7.5,1.9,13.2,7.4,15.6,14.2l-5.6,2
	c-1.8-5-6-9-11.5-10.5c-8.9-2.3-18,3.1-20.3,12c-0.4,1.7-0.6,3.4-0.5,5l-5.9,0.5c0-0.4-0.1-0.9-0.1-1.3
	C1298.9,356,1299.1,354.1,1299.6,352.3z M1306.9,366l-5.2,2.9c-1.5-2.6-2.4-5.5-2.8-8.6l5.9-0.5C1305.2,362,1305.9,364.1,1306.9,366
	z M1298.3,360.4c0.3,3.1,1.3,6.2,2.8,8.9l-35.8,19.9l-4.8-25.8L1298.3,360.4z M1259.1,272.5c6.7,4.1,10.8,11.4,10.8,19.2
	c0,1.8-0.2,3.7-0.7,5.6c-2.2,8.8-9.4,15.1-17.8,16.6l-1.1-5.8c6.2-1.2,11.4-5.8,13.1-12.3c1.8-7.1-1.2-14.3-7-18.1L1259.1,272.5z
	 M1247.3,269.1c1.8,0,3.7,0.2,5.6,0.7c1.9,0.5,3.6,1.2,5.3,2.1l-2.7,5.3c-1.2-0.7-2.6-1.3-4-1.6c-5.6-1.4-11.2,0.1-15.2,3.7
	l-3.6-4.7C1236.7,271.1,1241.8,269.1,1247.3,269.1z M1250.3,314.1c-1,0.1-2,0.2-3,0.2c-1.8,0-3.7-0.2-5.6-0.7c-4-1-7.5-3.1-10.3-5.8
	l4.7-3.7c1.9,1.8,4.3,3.1,7.1,3.8c2,0.5,4.1,0.6,6.1,0.4L1250.3,314.1z M1224.7,291.7c0-1.8,0.2-3.7,0.7-5.6c1.1-4.3,3.4-8,6.4-10.8
	l3.6,4.7c-2,2-3.5,4.6-4.3,7.6c-1.5,5.8,0.3,11.7,4.2,15.7l-4.7,3.7C1226.9,302.9,1224.7,297.4,1224.7,291.7z M1230.8,308.2
	c2.9,2.9,6.5,5,10.7,6.1c1.9,0.5,3.9,0.7,5.8,0.7c1.1,0,2.1-0.1,3.2-0.2l8.8,47.6l-70.7,5.7c-0.7-7.4-3.7-14.4-8.4-20L1230.8,308.2z
	 M1173.4,386.9c1.8-2.5,3.1-5.4,3.9-8.6c0.7-2.8,0.9-5.5,0.8-8.2l9.3-0.8c0.1,0.8,0.1,1.6,0.1,2.4c0,2.9-0.4,5.9-1.1,8.9
	c-1.1,4.2-2.9,8.1-5.2,11.5L1173.4,386.9z M1180.5,393c-6.7,9.1-17.4,14.6-28.8,14.6c-2.9,0-5.9-0.4-8.9-1.1c-1.7-0.4-3.3-1-4.8-1.6
	l3.2-8.8c1.3,0.5,2.6,1,3.9,1.4c10.6,2.7,21.3-1.4,27.6-9.6L1180.5,393z M1187.4,368.2l-9.4,0.8c-0.6-5.3-2.8-10.3-6.2-14.4l7.4-5.8
	C1183.7,354.3,1186.6,361,1187.4,368.2z M1151.7,336c2.9,0,5.9,0.4,8.9,1.1c7.2,1.8,13.3,5.7,17.9,10.9l-7.4,5.8
	c-3.3-3.6-7.7-6.3-12.8-7.6c-12.4-3.2-24.9,3-30.3,14l-8.4-4.2C1125.6,343.8,1138.1,336,1151.7,336z M1115.9,371.8
	c0-2.9,0.4-5.9,1.1-8.9c0.5-2.1,1.2-4,2.1-5.9l8.4,4.2c-0.6,1.3-1,2.6-1.4,4c-3.2,12.4,3,25,14.1,30.3l-3.2,8.9
	C1124.2,398.7,1115.9,385.8,1115.9,371.8z M1124.5,442.6c8.3,2.3,15.1,7.4,19.7,14l-8.2,4.6c-3.5-4.7-8.5-8.2-14.6-9.8L1124.5,442.6
	z M1078.9,477.1c0-2.9,0.4-5.9,1.1-8.9c4.1-16.2,18.7-27,34.7-27c2.9,0,5.8,0.4,8.7,1.1l-3.2,8.9c-13.8-2.9-27.6,5.5-31.1,19.3
	c-1.7,6.6-0.7,13.3,2.3,18.9l-7.7,5.5C1080.7,489.6,1078.9,483.4,1078.9,477.1z M1114.8,512.8c-2.9,0-5.9-0.4-8.9-1.1
	c-9.3-2.4-16.9-8.3-21.6-15.8l7.6-5.5c3.4,5.9,9.1,10.4,16.3,12.3c9.7,2.5,19.5-0.8,25.9-7.6l7,6.2
	C1134.4,508.5,1124.9,512.8,1114.8,512.8z M1150.6,477c0,2.9-0.4,5.9-1.1,8.9c-1.4,5.6-4.1,10.5-7.6,14.5l-7-6.2
	c2.6-3,4.5-6.6,5.6-10.6c2-7.7,0.3-15.4-3.8-21.4l8.2-4.6C1148.5,463.3,1150.6,470,1150.6,477z M1145.2,456.1
	c-4.7-6.8-11.7-12.1-20.3-14.6l12.8-35.6c1.6,0.6,3.2,1.2,4.9,1.7c3.1,0.8,6.1,1.2,9.2,1.2c11.8,0,22.9-5.7,29.8-15.1l34.4,23
	L1145.2,456.1z M1182.2,392.7c2.4-3.5,4.3-7.5,5.4-11.8c0.8-3.1,1.2-6.1,1.2-9.2c0-0.9,0-1.7-0.1-2.5l70.8-5.7l4.8,26.3l-47.3,26.3
	L1182.2,392.7z M1218,416.8l46.5-25.9l5.9,32.1c-8.5,2-15.8,7.6-19.8,15.6L1218,416.8z M1272,431.4c-6.2,1.6-11.5,5.9-14.2,12
	l-6.4-4.3c3.9-7.7,11-13.2,19.2-15.2L1272,431.4z M1271.7,423.7c1.8-0.4,3.7-0.6,5.6-0.6c2.4,0,4.8,0.3,7.2,0.9
	c2.2,0.6,4.3,1.4,6.3,2.4l-3.2,6.9c-1.5-0.8-3.2-1.5-5-2c-3.2-0.8-6.5-0.8-9.5-0.2L1271.7,423.7z M1306.3,452.1
	c0,2.4-0.3,4.8-0.9,7.2c-3.3,13.1-15.2,21.9-28.1,21.9c-2.4,0-4.8-0.3-7.2-0.9c-13.1-3.4-21.9-15.2-21.9-28.1c0-2.4,0.3-4.8,0.9-7.2
	c0.4-1.7,1-3.3,1.7-4.9l6.4,4.3c-0.3,0.8-0.6,1.6-0.8,2.4c-2.9,11.5,4,23.1,15.5,26.1c11.5,2.9,23.1-4,26.1-15.5
	c2.4-9.3-1.7-18.8-9.5-23.5l3.2-6.9C1300.7,432.1,1306.3,441.8,1306.3,452.1z M1291.1,425.6c-2-1-4.1-1.9-6.4-2.5
	c-2.5-0.6-5-0.9-7.4-0.9c-2,0-3.9,0.2-5.8,0.6l-6-32.4l36.2-20.1c2.5,4,6.1,7.2,10.6,9.1L1291.1,425.6z M1312.6,378.6
	c-4.3-1.8-7.9-5-10.3-8.8l5.2-2.9c1.8,2.7,4.4,5,7.6,6.3L1312.6,378.6z M1321.5,380.4c-1.8,0-3.7-0.2-5.6-0.7
	c-0.8-0.2-1.5-0.4-2.2-0.7l2.5-5.4c0.4,0.1,0.8,0.3,1.2,0.4c3.4,0.9,6.8,0.6,9.8-0.5l1.8,5.6C1326.6,380,1324.1,380.4,1321.5,380.4z
	 M1330,378.7l-1.8-5.7c4.2-1.8,7.5-5.4,9.1-9.9l5.6,1.8C1340.7,371.4,1335.9,376.3,1330,378.7z M1343.4,363.4c0,0.2-0.1,0.3-0.2,0.5
	l-5.6-1.8l0-0.1c0.8-3,0.6-6-0.2-8.8l5.6-2c0.7,2.1,1,4.3,1,6.6C1344.1,359.7,1343.8,361.6,1343.4,363.4z M1483.4,420.4
	c-2.7,1.6-5.7,2.4-8.6,2.4c-5.8,0-11.4-3-14.5-8.3c-1.6-2.7-2.4-5.7-2.4-8.6c0-1.1,0.1-2.2,0.4-3.3l4.1,1.3
	c-0.4,2.8,0.1,5.7,1.6,8.3c3.6,6,11.3,8,17.3,4.4c6-3.6,8-11.3,4.4-17.3c-3.6-6-11.3-8-17.3-4.4c-3,1.8-5,4.7-5.8,7.8l-4.1-1.3
	c1.1-4.1,3.7-7.8,7.7-10.2c2.7-1.6,5.7-2.4,8.6-2.4c5.8,0,11.4,3,14.5,8.3c1.6,2.7,2.4,5.7,2.4,8.6
	C1491.7,411.7,1488.8,417.3,1483.4,420.4z"/>
<path fill="#815A79" d="M1206.7,477.1c0-1.3,0-2.5-0.1-3.8l-1,0c0.1,1.3,0.1,2.5,0.1,3.8L1206.7,477.1z"/>
<path fill="#815A79" d="M1102.2,566.9l0.1-0.9c-1.2-0.2-2.5-0.4-3.7-0.7l-0.2,0.9C1099.7,566.4,1101,566.7,1102.2,566.9z"/>
<path fill="#815A79" d="M1094.8,565.4l0.2-0.9c-1.2-0.3-2.4-0.6-3.6-1l-0.3,0.9C1092.3,564.7,1093.5,565.1,1094.8,565.4z"/>
<path fill="#815A79" d="M1206.4,469.4c-0.1-1.3-0.3-2.5-0.4-3.8l-0.9,0.1c0.2,1.3,0.3,2.5,0.4,3.8L1206.4,469.4z"/>
<path fill="#815A79" d="M1206.4,484.7c0.1-1.3,0.2-2.5,0.2-3.8l-0.9,0c-0.1,1.3-0.1,2.5-0.2,3.8L1206.4,484.7z"/>
<path fill="#815A79" d="M1117.5,567.9l0-1c-1.3,0-2.5,0-3.8,0l0,1C1114.9,567.9,1116.2,568,1117.5,567.9z"/>
<path fill="#815A79" d="M1205.5,492.3c0.2-1.3,0.4-2.5,0.5-3.8l-0.9-0.1c-0.2,1.3-0.3,2.5-0.5,3.7L1205.5,492.3z"/>
<path fill="#815A79" d="M1109.8,567.7l0.1-1c-1.3-0.1-2.5-0.2-3.8-0.3l-0.1,0.9C1107.3,567.5,1108.6,567.6,1109.8,567.7z"/>
<path fill="#815A79" d="M1087.4,563.2l0.3-0.9c-1.2-0.4-2.4-0.8-3.6-1.3l-0.3,0.9C1085,562.4,1086.2,562.8,1087.4,563.2z"/>
<path fill="#815A79" d="M1066.9,553.3l0.5-0.8c-1.1-0.7-2.1-1.4-3.1-2.1l-0.6,0.8C1064.8,551.9,1065.8,552.6,1066.9,553.3z"/>
<path fill="#815A79" d="M1198.7,440c-0.5-1.2-1.1-2.3-1.7-3.4l-0.8,0.4c0.6,1.1,1.1,2.3,1.6,3.4L1198.7,440z"/>
<path fill="#815A79" d="M1201.5,447.1c-0.4-1.2-0.9-2.4-1.4-3.6l-0.9,0.4c0.5,1.2,0.9,2.3,1.3,3.5L1201.5,447.1z"/>
<path fill="#815A79" d="M1060.7,548.9l0.6-0.8c-1-0.8-2-1.6-2.9-2.4l-0.6,0.7C1058.7,547.3,1059.7,548.1,1060.7,548.9z"/>
<path fill="#815A79" d="M1073.4,557.2l0.5-0.8c-1.1-0.6-2.2-1.2-3.3-1.8l-0.5,0.8C1071.2,556,1072.3,556.6,1073.4,557.2z"/>
<path fill="#815A79" d="M1205.4,461.8c-0.2-1.3-0.5-2.5-0.7-3.8l-0.9,0.2c0.3,1.2,0.5,2.5,0.7,3.7L1205.4,461.8z"/>
<path fill="#815A79" d="M1203.9,499.7c0.3-1.2,0.6-2.5,0.9-3.7l-0.9-0.2c-0.3,1.2-0.5,2.5-0.9,3.7L1203.9,499.7z"/>
<path fill="#815A79" d="M1080.3,560.5l0.4-0.9c-1.2-0.5-2.3-1-3.4-1.6l-0.4,0.9C1078,559.5,1079.1,560,1080.3,560.5z"/>
<path fill="#815A79" d="M1195.2,433.2c-0.6-1.1-1.3-2.2-1.9-3.3l-0.8,0.5c0.7,1.1,1.3,2.2,1.9,3.3L1195.2,433.2z"/>
<path fill="#815A79" d="M1203.8,454.4c-0.3-1.2-0.7-2.5-1.1-3.7l-0.9,0.3c0.4,1.2,0.7,2.4,1,3.6L1203.8,454.4z"/>
<path fill="#815A79" d="M1176.1,544.1l0.6,0.7c1-0.8,1.9-1.7,2.8-2.6l-0.7-0.7C1177.9,542.4,1177,543.2,1176.1,544.1z"/>
<path fill="#815A79" d="M1187.2,533.7c0.8-1,1.6-2,2.3-3l-0.8-0.6c-0.7,1-1.5,2-2.3,3L1187.2,533.7z"/>
<path fill="#815A79" d="M1173.2,546.5c-0.4,0.4-0.9,0.7-1.3,1.1c-0.5,0.4-1.1,0.8-1.6,1.3l0.6,0.8c0.6-0.4,1.1-0.8,1.6-1.3
	c0.5-0.4,0.9-0.7,1.4-1.1L1173.2,546.5L1173.2,546.5z"/>
<path fill="#815A79" d="M1181.5,538.8l0.7,0.7c0.9-0.9,1.7-1.9,2.6-2.8l-0.7-0.6C1183.2,537,1182.3,537.9,1181.5,538.8z"/>
<path fill="#815A79" d="M1164,553.2l0.5,0.8c1.1-0.7,2.1-1.4,3.2-2.1l-0.5-0.8C1166.1,551.8,1165.1,552.5,1164,553.2z"/>
<path fill="#815A79" d="M1049.8,417.3l-0.7-0.6c-0.9,0.9-1.7,1.9-2.5,2.9l0.7,0.6C1048.1,419.2,1049,418.3,1049.8,417.3z"/>
<path fill="#815A79" d="M1055.1,411.9l-0.6-0.7c-0.9,0.9-1.8,1.8-2.7,2.7l0.7,0.7C1053.3,413.7,1054.2,412.8,1055.1,411.9z"/>
<path fill="#815A79" d="M1125.1,567.5l-0.1-0.9c-1.3,0.1-2.5,0.2-3.8,0.3l0.1,0.9C1122.6,567.7,1123.8,567.6,1125.1,567.5z"/>
<path fill="#815A79" d="M1157.5,557l0.4,0.8c1.1-0.6,2.2-1.2,3.4-1.8l-0.5-0.8C1159.7,555.8,1158.6,556.4,1157.5,557z"/>
<path fill="#815A79" d="M1044.2,422.6c-0.8,1-1.5,2-2.3,3.1l0.8,0.5c0.7-1,1.5-2.1,2.2-3.1L1044.2,422.6z"/>
<path fill="#815A79" d="M1132.7,566.5l-0.2-0.9c-1.2,0.2-2.5,0.4-3.7,0.6l0.1,0.9C1130.2,566.9,1131.4,566.7,1132.7,566.5z"/>
<path fill="#815A79" d="M1140.1,564.7l-0.3-0.9c-1.2,0.3-2.4,0.6-3.7,0.9l0.2,0.9C1137.7,565.4,1138.9,565.1,1140.1,564.7z"/>
<path fill="#815A79" d="M1199,514.1c0.5-1.2,1-2.3,1.5-3.5l-0.9-0.3c-0.5,1.2-0.9,2.3-1.5,3.5L1199,514.1z"/>
<path fill="#815A79" d="M1201.8,507.1c0.4-1.2,0.8-2.4,1.2-3.6l-0.9-0.3c-0.4,1.2-0.7,2.4-1.2,3.6L1201.8,507.1z"/>
<path fill="#815A79" d="M1191.7,527.5c0.7-1.1,1.4-2.1,2-3.2l-0.8-0.5c-0.6,1.1-1.3,2.1-2,3.2L1191.7,527.5z"/>
<path fill="#815A79" d="M1195.6,521c0.6-1.1,1.2-2.2,1.8-3.4l-0.9-0.4c-0.6,1.1-1.1,2.2-1.7,3.3L1195.6,521z"/>
<path fill="#815A79" d="M1154.5,559.5l-0.4-0.9c-1.1,0.5-2.3,1-3.5,1.5l0.4,0.9C1152.2,560.5,1153.3,560,1154.5,559.5z"/>
<path fill="#815A79" d="M1147.4,562.4l-0.3-0.9c-1.2,0.4-2.4,0.9-3.6,1.2l0.3,0.9C1145,563.3,1146.2,562.9,1147.4,562.4z"/>
<path fill="#815A79" d="M1030,453.4c0.3-1.2,0.7-2.4,1.1-3.6l-0.9-0.3c-0.4,1.2-0.8,2.4-1.1,3.7L1030,453.4z"/>
<path fill="#815A79" d="M1112.9,387.9l0-0.9c-1.3,0-2.5,0.1-3.8,0.2l0.1,0.9C1110.4,388,1111.7,388,1112.9,387.9z"/>
<path fill="#815A79" d="M1028.2,460.7c0.2-1.2,0.5-2.5,0.8-3.7l-0.9-0.2c-0.3,1.2-0.6,2.5-0.8,3.7L1028.2,460.7z"/>
<path fill="#815A79" d="M1032.3,446.2c0.4-1.2,0.9-2.3,1.4-3.5l-0.9-0.4c-0.5,1.2-1,2.4-1.4,3.5L1032.3,446.2z"/>
<path fill="#815A79" d="M1105.4,388.5l-0.1-0.9c-1.3,0.2-2.5,0.3-3.8,0.5l0.2,0.9C1102.9,388.8,1104.2,388.7,1105.4,388.5z"/>
<path fill="#815A79" d="M1120.5,388l0-0.9c-1.3-0.1-2.5-0.1-3.8-0.1l0,1C1118,387.9,1119.2,387.9,1120.5,388z"/>
<path fill="#815A79" d="M1026.9,483.3c-0.1-1.3-0.1-2.5-0.2-3.8l-1,0c0,1.3,0.1,2.6,0.2,3.8L1026.9,483.3z"/>
<path fill="#815A79" d="M1135.5,390l0.2-0.9c-1.2-0.3-2.5-0.5-3.7-0.7l-0.2,0.9C1133,389.4,1134.2,389.7,1135.5,390z"/>
<path fill="#815A79" d="M1027.1,468.2c0.1-1.2,0.3-2.5,0.5-3.8l-0.9-0.1c-0.2,1.3-0.3,2.5-0.5,3.8L1027.1,468.2z"/>
<path fill="#815A79" d="M1128,388.7l0.1-0.9c-1.3-0.2-2.5-0.3-3.8-0.4l-0.1,1C1125.5,388.3,1126.8,388.5,1128,388.7z"/>
<path fill="#815A79" d="M1026.7,475.7c0-1.3,0.1-2.5,0.2-3.8l-0.9-0.1c-0.1,1.3-0.1,2.5-0.2,3.8L1026.7,475.7z"/>
<path fill="#815A79" d="M1076.5,397.1l-0.4-0.9c-1.1,0.6-2.3,1.2-3.4,1.8l0.5,0.8C1074.3,398.3,1075.4,397.7,1076.5,397.1z"/>
<path fill="#815A79" d="M1083.4,394.1l-0.3-0.9c-1.2,0.5-2.4,1-3.5,1.5l0.4,0.9C1081.1,395,1082.3,394.5,1083.4,394.1z"/>
<path fill="#815A79" d="M1069.9,400.8l-0.5-0.8c-1.1,0.7-2.2,1.3-3.2,2l0.5,0.8C1067.8,402.1,1068.8,401.4,1069.9,400.8z"/>
<path fill="#815A79" d="M1097.9,389.7l-0.2-0.9c-1.3,0.3-2.5,0.5-3.7,0.9l0.2,0.9C1095.5,390.3,1096.7,390,1097.9,389.7z"/>
<path fill="#815A79" d="M1057.9,409.4c0.9-0.7,1.8-1.5,2.7-2.2c1-0.8,2-1.5,3-2.3l-0.6-0.8c-1,0.7-2,1.5-3,2.3
	c-0.9,0.7-1.8,1.5-2.7,2.2L1057.9,409.4z"/>
<path fill="#815A79" d="M1038.7,432.6c0.6-1.1,1.3-2.2,2-3.2l-0.8-0.5c-0.7,1.1-1.3,2.2-2,3.3L1038.7,432.6z"/>
<path fill="#815A79" d="M1035.2,439.2c0.5-1.1,1.1-2.3,1.7-3.4l-0.8-0.4c-0.6,1.1-1.2,2.3-1.7,3.4L1035.2,439.2z"/>
<path fill="#815A79" d="M1090.6,391.6l-0.3-0.9c-1.2,0.4-2.4,0.8-3.6,1.2l0.3,0.9C1088.2,392.3,1089.4,392,1090.6,391.6z"/>
<path fill="#815A79" d="M1031.2,505.5c-0.4-1.2-0.8-2.4-1.1-3.6l-0.9,0.3c0.3,1.2,0.7,2.4,1.1,3.7L1031.2,505.5z"/>
<path fill="#815A79" d="M1045.3,532.1c-0.8-1-1.5-2-2.2-3l-0.8,0.5c0.7,1,1.5,2.1,2.3,3.1L1045.3,532.1z"/>
<path fill="#815A79" d="M1178.2,412.8c0.9,0.9,1.8,1.8,2.7,2.7l0.7-0.7c-0.9-0.9-1.8-1.8-2.7-2.7L1178.2,412.8L1178.2,412.8z"/>
<path fill="#815A79" d="M1040.9,525.9c-0.7-1.1-1.3-2.1-2-3.2l-0.8,0.5c0.6,1.1,1.3,2.2,2,3.3L1040.9,525.9z"/>
<path fill="#815A79" d="M1175.5,410.2l0.6-0.7c-1-0.8-1.9-1.7-2.9-2.5l-0.6,0.7C1173.5,408.6,1174.5,409.4,1175.5,410.2z"/>
<path fill="#815A79" d="M1049.5,538.5l0.7-0.6c-0.8-0.9-1.7-1.9-2.5-2.8l-0.7,0.6C1047.8,536.6,1048.6,537.6,1049.5,538.5z"/>
<path fill="#815A79" d="M1142.8,391.9l0.3-0.9c-1.2-0.4-2.4-0.7-3.7-1.1l-0.2,0.9C1140.4,391.2,1141.6,391.5,1142.8,391.9z"/>
<path fill="#815A79" d="M1185.9,421.1l0.7-0.6c-0.8-1-1.6-2-2.5-2.9l-0.7,0.6C1184.3,419.2,1185.1,420.2,1185.9,421.1z"/>
<path fill="#815A79" d="M1037.1,519.4c-0.6-1.1-1.2-2.2-1.7-3.4l-0.9,0.4c0.5,1.1,1.1,2.3,1.7,3.4L1037.1,519.4z"/>
<path fill="#815A79" d="M1191.2,426.7c-0.7-1-1.5-2.1-2.2-3.1l-0.8,0.6h0c0.8,1,1.5,2,2.2,3.1L1191.2,426.7z"/>
<path fill="#815A79" d="M1029.1,498.3c-0.3-1.2-0.6-2.5-0.8-3.7l-0.9,0.2c0.2,1.3,0.5,2.5,0.8,3.7L1029.1,498.3z"/>
<path fill="#815A79" d="M1149.9,394.4l0.4-0.9c-1.2-0.5-2.4-0.9-3.6-1.4l-0.3,0.9C1147.5,393.5,1148.7,393.9,1149.9,394.4z"/>
<path fill="#815A79" d="M1027.7,490.8c-0.2-1.2-0.4-2.5-0.5-3.8l-0.9,0.1c0.1,1.3,0.3,2.5,0.5,3.8L1027.7,490.8z"/>
<path fill="#815A79" d="M1169.6,405.5l0.6-0.8c-1-0.8-2.1-1.5-3.1-2.2l-0.5,0.8C1167.5,404,1168.6,404.7,1169.6,405.5z"/>
<path fill="#815A79" d="M1156.8,397.5l0.4-0.8c-1.1-0.6-2.3-1.1-3.4-1.7l-0.4,0.9C1154.5,396.4,1155.6,397,1156.8,397.5z"/>
<path fill="#815A79" d="M1033.8,512.6c-0.5-1.2-1-2.3-1.4-3.5l-0.9,0.3c0.5,1.2,0.9,2.4,1.4,3.5L1033.8,512.6z"/>
<path fill="#815A79" d="M1054.8,544l0.6-0.7c-0.9-0.9-1.8-1.7-2.7-2.6l-0.7,0.7C1053,542.2,1053.9,543.1,1054.8,544z"/>
<path fill="#815A79" d="M1163.3,401.2l0.5-0.8c-1.1-0.7-2.2-1.3-3.3-1.9l-0.5,0.8C1161.2,399.9,1162.3,400.6,1163.3,401.2z"/>
<path fill="#815A79" d="M1300.2,290.9v0.2c0,1.5-0.1,2.9-0.2,4.3l1.1,0.1c0.1-1.5,0.2-2.9,0.2-4.4v-0.2L1300.2,290.9z M1299.5,282.2
	c0.2,1.4,0.4,2.9,0.6,4.3l1.1-0.1c-0.1-1.5-0.3-3-0.6-4.4L1299.5,282.2z M1297.3,273.8c0.5,1.4,0.9,2.8,1.3,4.2l1.1-0.3
	c-0.4-1.4-0.8-2.9-1.3-4.3L1297.3,273.8z M1293.8,265.9c0.7,1.3,1.3,2.6,1.9,3.9l1-0.5c-0.6-1.4-1.3-2.7-2-4L1293.8,265.9z
	 M1289,258.6c0.9,1.1,1.7,2.3,2.5,3.5l0.9-0.6c-0.8-1.2-1.7-2.4-2.6-3.6L1289,258.6z M1283.1,252.2c1.1,1,2.1,2,3.1,3.1l0.8-0.8
	c-1-1.1-2.1-2.1-3.2-3.1L1283.1,252.2z M1276.2,246.9c1.2,0.8,2.4,1.6,3.5,2.5l0.7-0.9c-1.2-0.9-2.4-1.8-3.6-2.6L1276.2,246.9z
	 M1268.6,242.8c1.3,0.6,2.6,1.2,3.9,1.9l0.5-1c-1.3-0.7-2.6-1.3-4-1.9L1268.6,242.8z M1260.3,240c1.4,0.4,2.8,0.8,4.2,1.2l0.4-1.1
	c-1.4-0.5-2.8-0.9-4.3-1.3L1260.3,240z M1251.8,238.6c1.5,0.1,2.9,0.3,4.3,0.5l0.2-1.1c-1.5-0.2-2.9-0.4-4.4-0.5L1251.8,238.6z
	 M1243.1,238.6c1.4-0.1,2.9-0.2,4.3-0.2l0-1.1c-1.5,0-3,0.1-4.4,0.2L1243.1,238.6z M1234.5,240.1c1.4-0.4,2.8-0.7,4.3-0.9l-0.2-1.1
	c-1.5,0.2-2.9,0.6-4.3,0.9L1234.5,240.1z M1226.3,242.9c1.3-0.6,2.7-1.1,4-1.6l-0.4-1c-1.4,0.5-2.8,1-4.1,1.6L1226.3,242.9z
	 M1218.7,247.1c1.2-0.8,2.5-1.5,3.7-2.2l-0.5-1c-1.3,0.7-2.6,1.5-3.8,2.3L1218.7,247.1z M1211.8,252.5c1.1-1,2.2-1.9,3.3-2.8
	l-0.7-0.9c-1.2,0.9-2.3,1.9-3.4,2.9L1211.8,252.5z M1206,258.9c0.9-1.1,1.8-2.3,2.8-3.3l-0.8-0.8c-1,1.1-2,2.2-2.9,3.4L1206,258.9z
	 M1201.2,266.2c0.7-1.3,1.4-2.5,2.2-3.7l-0.9-0.6c-0.8,1.2-1.6,2.5-2.3,3.8L1201.2,266.2L1201.2,266.2z M1197.7,274.1
	c0.5-1.4,1-2.7,1.6-4.1l-1-0.4c-0.6,1.4-1.1,2.7-1.6,4.1L1197.7,274.1z M1195.6,282.6c0.2-1.4,0.5-2.9,0.9-4.3l-1.1-0.3
	c-0.4,1.4-0.7,2.9-0.9,4.4L1195.6,282.6z M1194.9,291.2v-0.1c0-1.4,0.1-2.8,0.2-4.2l-1.1-0.1c-0.1,1.4-0.2,2.9-0.2,4.3v0.1
	L1194.9,291.2z M1195.7,299.9c-0.2-1.4-0.4-2.9-0.5-4.3l-1.1,0.1c0.1,1.5,0.3,3,0.6,4.4L1195.7,299.9z M1197.8,308.3
	c-0.5-1.4-0.9-2.8-1.2-4.2l-1.1,0.3c0.4,1.4,0.8,2.9,1.3,4.3L1197.8,308.3z M1201.3,316.3c-0.7-1.3-1.3-2.6-1.9-3.9l-1,0.4
	c0.6,1.4,1.3,2.7,2,4L1201.3,316.3z M1206.1,323.5c-0.9-1.1-1.7-2.3-2.5-3.5l-0.9,0.6c0.8,1.2,1.7,2.4,2.6,3.6L1206.1,323.5z
	 M1212,329.9c-1.1-1-2.1-2-3.1-3.1l-0.8,0.8c1,1.1,2.1,2.1,3.1,3.1L1212,329.9z M1218.8,335.3c-1.2-0.8-2.4-1.6-3.5-2.5l-0.7,0.9
	c1.2,0.9,2.4,1.8,3.6,2.6L1218.8,335.3z M1226.5,339.4c-1.3-0.6-2.6-1.2-3.9-1.9l-0.5,1c1.3,0.7,2.6,1.4,4,2L1226.5,339.4z
	 M1234.7,342.2c-1.4-0.4-2.8-0.8-4.2-1.2l-0.4,1.1c1.4,0.5,2.8,0.9,4.3,1.3L1234.7,342.2z M1243.3,343.6c-1.5-0.1-2.9-0.3-4.3-0.5
	l-0.2,1.1c1.5,0.2,2.9,0.4,4.4,0.5L1243.3,343.6z M1252,343.6c-1.4,0.1-2.9,0.2-4.3,0.2v1.1c1.5,0,3-0.1,4.4-0.2L1252,343.6z
	 M1260.6,342.2c-1.4,0.4-2.8,0.7-4.3,0.9l0.2,1.1c1.5-0.2,2.9-0.6,4.3-0.9L1260.6,342.2L1260.6,342.2z M1268.8,339.4
	c-1.3,0.6-2.7,1.1-4,1.6l0.4,1.1c1.4-0.5,2.8-1,4.1-1.6L1268.8,339.4z M1276.4,335.2c-1.2,0.8-2.5,1.5-3.7,2.2l0.5,1
	c1.3-0.7,2.6-1.5,3.8-2.3L1276.4,335.2z M1283.3,329.9c-1.1,1-2.2,1.9-3.3,2.8l0.7,0.9c1.2-0.9,2.3-1.9,3.4-2.9L1283.3,329.9z
	 M1289.2,323.5c-0.9,1.1-1.8,2.3-2.8,3.3l0.8,0.8c1-1.1,2-2.2,2.9-3.4L1289.2,323.5z M1293.9,316.2c-0.7,1.3-1.4,2.5-2.2,3.7
	l0.9,0.6c0.8-1.2,1.6-2.5,2.3-3.8L1293.9,316.2z M1297.4,308.2c-0.5,1.4-1,2.7-1.6,4.1l1,0.4c0.6-1.4,1.1-2.7,1.6-4.1L1297.4,308.2z
	 M1299.5,299.8c-0.2,1.4-0.5,2.9-0.9,4.3l1.1,0.3c0.4-1.4,0.7-2.9,0.9-4.3L1299.5,299.8z"/>
<path fill="#815A79" d="M962.9,261.1v0.2c0,1.5-0.1,2.9-0.2,4.3l1.1,0.1c0.1-1.5,0.2-2.9,0.2-4.4v-0.2L962.9,261.1z M962.1,252.5
	c0.2,1.4,0.4,2.9,0.5,4.3l1.1-0.1c-0.1-1.5-0.3-3-0.5-4.4L962.1,252.5z M960.1,244c0.5,1.4,0.9,2.8,1.2,4.2l1.1-0.3
	c-0.4-1.4-0.8-2.9-1.2-4.3L960.1,244z M956.7,236c0.7,1.3,1.3,2.6,1.8,3.9l1-0.4c-0.6-1.4-1.2-2.7-1.9-4L956.7,236z M952.2,228.6
	c0.9,1.2,1.7,2.4,2.4,3.6l0.9-0.6c-0.8-1.3-1.6-2.5-2.5-3.7L952.2,228.6z M946.5,222c1,1,2,2.1,3,3.2l0.8-0.7c-1-1.1-2-2.2-3-3.2
	L946.5,222z M939.9,216.4c1.2,0.9,2.3,1.7,3.4,2.7l0.7-0.8c-1.1-1-2.3-1.9-3.5-2.7L939.9,216.4z M932.4,211.9
	c1.3,0.7,2.6,1.4,3.8,2.1l0.6-0.9c-1.3-0.8-2.6-1.5-3.9-2.2L932.4,211.9z M924.4,208.6c1.4,0.4,2.8,0.9,4.1,1.5l0.4-1
	c-1.4-0.6-2.8-1.1-4.2-1.5L924.4,208.6z M915.9,206.6c1.4,0.2,2.9,0.5,4.3,0.8l0.3-1.1c-1.4-0.3-2.9-0.6-4.4-0.8L915.9,206.6z
	 M907.3,206h0.2c1.4,0,2.8,0.1,4.2,0.2l0.1-1.1c-1.4-0.1-2.8-0.2-4.2-0.2h-0.2L907.3,206z M898.6,206.7c1.4-0.2,2.9-0.4,4.3-0.5
	l-0.1-1.1c-1.5,0.1-3,0.3-4.4,0.5L898.6,206.7z M890.2,208.7c1.4-0.4,2.8-0.8,4.2-1.2l-0.3-1.1c-1.4,0.4-2.9,0.8-4.3,1.2
	L890.2,208.7z M882.1,212.1c1.3-0.7,2.6-1.3,3.9-1.8l-0.4-1c-1.4,0.6-2.7,1.2-4,1.9L882.1,212.1z M874.7,216.6
	c1.2-0.9,2.4-1.7,3.6-2.4l-0.6-0.9c-1.3,0.8-2.5,1.6-3.7,2.5L874.7,216.6z M868.2,222.3c1-1,2.1-2,3.2-3l-0.7-0.8
	c-1.1,1-2.2,2-3.2,3L868.2,222.3z M862.5,228.9c0.9-1.2,1.8-2.3,2.7-3.4l-0.8-0.7c-1,1.1-1.9,2.3-2.7,3.5L862.5,228.9z M858,236.3
	c0.7-1.3,1.4-2.6,2.1-3.8l-0.9-0.6c-0.8,1.3-1.5,2.6-2.2,3.9L858,236.3z M854.7,244.4c0.4-1.4,0.9-2.8,1.5-4.1l-1-0.4
	c-0.6,1.4-1.1,2.8-1.5,4.2L854.7,244.4z M852.7,252.8c0.2-1.4,0.5-2.9,0.8-4.3l-1.1-0.3c-0.3,1.4-0.6,2.9-0.9,4.4L852.7,252.8z
	 M852,261.5v-0.1c0-1.4,0.1-2.8,0.2-4.2l-1.1-0.1c-0.1,1.4-0.2,2.9-0.2,4.3v0.1L852,261.5z M852.7,270.2c-0.2-1.4-0.4-2.9-0.5-4.3
	l-1.1,0.1c0.1,1.5,0.3,3,0.5,4.4L852.7,270.2z M854.8,278.6c-0.5-1.4-0.8-2.8-1.2-4.2l-1.1,0.3c0.3,1.4,0.8,2.9,1.2,4.3L854.8,278.6
	z M858.1,286.6c-0.7-1.3-1.3-2.6-1.8-3.9l-1,0.4c0.6,1.4,1.2,2.7,1.9,4L858.1,286.6z M862.7,294c-0.9-1.2-1.7-2.4-2.4-3.6l-0.9,0.6
	c0.8,1.3,1.6,2.5,2.5,3.7L862.7,294z M868.3,300.6c-1-1-2-2.1-3-3.2l-0.8,0.7c1,1.1,2,2.2,3,3.3L868.3,300.6z M874.9,306.3
	c-1.2-0.9-2.3-1.8-3.4-2.7l-0.7,0.8c1.1,1,2.3,1.9,3.5,2.7L874.9,306.3z M882.3,310.8c-1.3-0.7-2.6-1.4-3.8-2.1l-0.6,0.9
	c1.3,0.8,2.5,1.5,3.9,2.2L882.3,310.8z M890.4,314.1c-1.4-0.4-2.8-0.9-4.1-1.5l-0.4,1c1.4,0.6,2.8,1.1,4.2,1.5L890.4,314.1z
	 M898.8,316.1c-1.4-0.2-2.9-0.5-4.3-0.8l-0.3,1.1c1.4,0.3,2.9,0.6,4.4,0.9L898.8,316.1z M907.5,316.8L907.5,316.8
	c-1.5,0-2.9-0.1-4.3-0.2l-0.1,1.1c1.4,0.1,2.9,0.2,4.4,0.2h0.1V316.8z M916.2,316.1c-1.4,0.2-2.9,0.4-4.3,0.5l0.1,1.1
	c1.5-0.1,3-0.3,4.4-0.5L916.2,316.1z M924.6,314.1c-1.4,0.4-2.8,0.8-4.2,1.2l0.3,1.1c1.4-0.3,2.9-0.8,4.3-1.2L924.6,314.1z
	 M932.6,310.8c-1.3,0.7-2.6,1.3-3.9,1.8l0.4,1c1.4-0.6,2.7-1.2,4-1.9L932.6,310.8L932.6,310.8z M940,306.2c-1.2,0.9-2.4,1.7-3.6,2.4
	l0.6,0.9c1.3-0.8,2.5-1.6,3.7-2.5L940,306.2z M946.6,300.6c-1,1-2.1,2-3.2,3l0.7,0.8c1.1-1,2.2-2,3.3-3L946.6,300.6z M952.3,293.9
	c-0.9,1.2-1.8,2.3-2.7,3.4l0.8,0.7c1-1.1,1.9-2.3,2.7-3.5L952.3,293.9z M956.8,286.5c-0.7,1.3-1.4,2.6-2.1,3.8l0.9,0.6
	c0.8-1.3,1.5-2.6,2.2-3.9L956.8,286.5z M960.2,278.5c-0.4,1.4-1,2.7-1.5,4.1l1,0.4c0.6-1.4,1.1-2.8,1.5-4.2L960.2,278.5z M962.2,270
	c-0.2,1.4-0.5,2.9-0.8,4.3l1.1,0.3c0.3-1.4,0.6-2.9,0.9-4.4L962.2,270z"/>
<path fill="#815A79" d="M611.2,273.9v0.2c0,1.5-0.1,2.9-0.2,4.3l1.1,0.1c0.1-1.5,0.2-2.9,0.2-4.4v-0.2L611.2,273.9z M610.4,265.3
	c0.2,1.4,0.4,2.9,0.6,4.3l1.1-0.1c-0.1-1.5-0.3-3-0.6-4.4L610.4,265.3z M608.2,256.8c0.5,1.4,0.9,2.8,1.3,4.2l1.1-0.3
	c-0.4-1.4-0.8-2.9-1.3-4.3L608.2,256.8z M604.7,248.9c0.7,1.3,1.3,2.6,1.9,3.9l1-0.5c-0.6-1.4-1.3-2.7-2-4L604.7,248.9z
	 M599.9,241.6c0.9,1.1,1.7,2.3,2.5,3.5l0.9-0.6c-0.8-1.2-1.7-2.4-2.6-3.6L599.9,241.6z M594,235.3c1.1,1,2.1,2,3.1,3.1l0.8-0.8
	c-1-1.1-2.1-2.1-3.2-3.1L594,235.3z M587.2,229.9c1.2,0.8,2.4,1.6,3.5,2.5l0.7-0.9c-1.2-0.9-2.4-1.8-3.6-2.6L587.2,229.9z
	 M579.5,225.8c1.3,0.6,2.6,1.2,3.9,1.9l0.5-1c-1.3-0.7-2.6-1.3-4-1.9L579.5,225.8z M571.3,223c1.4,0.4,2.8,0.8,4.2,1.2l0.4-1.1
	c-1.4-0.5-2.8-0.9-4.3-1.3L571.3,223z M562.7,221.6c1.5,0.1,2.9,0.3,4.3,0.5l0.2-1.1c-1.5-0.2-2.9-0.4-4.4-0.5L562.7,221.6z
	 M554,221.7c1.4-0.1,2.9-0.2,4.3-0.2l0-1.1c-1.5,0-3,0.1-4.4,0.2L554,221.7z M545.4,223.1c1.4-0.4,2.8-0.7,4.3-0.9l-0.2-1.1
	c-1.5,0.2-2.9,0.6-4.3,0.9L545.4,223.1z M537.2,226c1.3-0.6,2.7-1.1,4-1.6l-0.4-1c-1.4,0.5-2.8,1-4.1,1.6L537.2,226z M529.6,230.1
	c1.2-0.8,2.5-1.5,3.7-2.2l-0.5-1c-1.3,0.7-2.6,1.5-3.8,2.3L529.6,230.1z M522.7,235.5c1.1-1,2.2-1.9,3.3-2.8l-0.7-0.9
	c-1.2,0.9-2.3,1.9-3.4,2.9L522.7,235.5z M516.9,241.9c0.9-1.1,1.8-2.3,2.8-3.3l-0.8-0.8c-1,1.1-2,2.2-2.9,3.4L516.9,241.9z
	 M512.1,249.2c0.7-1.3,1.4-2.5,2.2-3.7l-0.9-0.6c-0.8,1.2-1.6,2.5-2.3,3.8L512.1,249.2z M508.7,257.2c0.5-1.4,1-2.7,1.6-4.1l-1-0.4
	c-0.6,1.4-1.1,2.7-1.6,4.1L508.7,257.2z M506.6,265.6c0.2-1.4,0.5-2.9,0.9-4.3l-1.1-0.3c-0.4,1.4-0.7,2.9-0.9,4.4L506.6,265.6z
	 M505.9,274.3v-0.1c0-1.4,0.1-2.8,0.2-4.2l-1.1-0.1c-0.1,1.4-0.2,2.9-0.2,4.3v0.1L505.9,274.3z M506.6,282.9
	c-0.2-1.4-0.4-2.9-0.5-4.3l-1.1,0.1c0.1,1.5,0.3,3,0.6,4.4L506.6,282.9z M508.7,291.4c-0.5-1.4-0.9-2.8-1.2-4.2l-1.1,0.3
	c0.4,1.4,0.8,2.9,1.3,4.3L508.7,291.4z M512.2,299.3c-0.7-1.3-1.3-2.6-1.9-3.9l-1,0.4c0.6,1.4,1.3,2.7,2,4L512.2,299.3z M517,306.6
	c-0.9-1.1-1.7-2.3-2.5-3.5l-0.9,0.6c0.8,1.2,1.7,2.4,2.6,3.6L517,306.6z M522.9,313c-1.1-1-2.1-2-3.1-3.1l-0.8,0.8
	c1,1.1,2.1,2.1,3.1,3.1L522.9,313L522.9,313z M529.8,318.3c-1.2-0.8-2.4-1.6-3.5-2.5l-0.7,0.9c1.2,0.9,2.4,1.8,3.6,2.6L529.8,318.3z
	 M537.4,322.5c-1.3-0.6-2.6-1.2-3.9-1.9l-0.5,1c1.3,0.7,2.6,1.4,4,2L537.4,322.5z M545.6,325.3c-1.4-0.4-2.8-0.8-4.2-1.2l-0.4,1.1
	c1.4,0.5,2.8,0.9,4.3,1.3L545.6,325.3z M554.2,326.7c-1.5-0.1-2.9-0.3-4.3-0.5l-0.2,1.1c1.4,0.2,2.9,0.4,4.4,0.5L554.2,326.7z
	 M562.9,326.7c-1.4,0.1-2.9,0.2-4.3,0.2v1.1c1.5,0,3-0.1,4.4-0.2L562.9,326.7z M571.5,325.2c-1.4,0.4-2.8,0.7-4.3,0.9l0.2,1.1
	c1.5-0.2,2.9-0.6,4.3-0.9L571.5,325.2z M579.7,322.4c-1.3,0.6-2.7,1.1-4,1.6l0.4,1.1c1.4-0.5,2.8-1,4.1-1.6L579.7,322.4z
	 M587.3,318.3c-1.2,0.8-2.5,1.5-3.7,2.2l0.5,1c1.3-0.7,2.6-1.5,3.8-2.3L587.3,318.3z M594.2,312.9c-1.1,1-2.2,1.9-3.3,2.8l0.7,0.9
	c1.2-0.9,2.3-1.9,3.4-2.9L594.2,312.9z M600.1,306.5c-0.9,1.1-1.8,2.3-2.8,3.3l0.8,0.8c1-1.1,2-2.2,2.9-3.4L600.1,306.5z
	 M604.8,299.2c-0.7,1.3-1.4,2.5-2.2,3.7l0.9,0.6c0.8-1.2,1.6-2.5,2.3-3.8L604.8,299.2z M608.3,291.3c-0.5,1.4-1,2.7-1.6,4.1l1,0.4
	c0.6-1.4,1.1-2.7,1.6-4.1L608.3,291.3z M610.4,282.8c-0.2,1.4-0.5,2.9-0.9,4.3l1.1,0.3c0.4-1.4,0.7-2.9,0.9-4.3L610.4,282.8z"/>
<path fill="#815A79" d="M446.3,387.8c0-1.3,0-2.5-0.1-3.8l-1,0c0.1,1.3,0.1,2.5,0.1,3.8L446.3,387.8z"/>
<path fill="#815A79" d="M341.8,477.6l0.1-0.9c-1.2-0.2-2.5-0.4-3.7-0.7l-0.2,0.9C339.3,477.2,340.5,477.4,341.8,477.6z"/>
<path fill="#815A79" d="M334.3,476.1l0.2-0.9c-1.2-0.3-2.4-0.6-3.6-1l-0.3,0.9C331.8,475.5,333,475.8,334.3,476.1z"/>
<path fill="#815A79" d="M445.9,380.2c-0.1-1.3-0.2-2.5-0.4-3.8l-0.9,0.1c0.2,1.3,0.3,2.5,0.4,3.8L445.9,380.2z"/>
<path fill="#815A79" d="M446,395.4c0.1-1.3,0.2-2.5,0.2-3.8l-0.9,0c-0.1,1.3-0.1,2.5-0.2,3.8L446,395.4z"/>
<path fill="#815A79" d="M357,478.7l0-1c-1.3,0-2.5,0-3.8,0l0,1C354.4,478.7,355.7,478.7,357,478.7z"/>
<path fill="#815A79" d="M445,403c0.2-1.3,0.4-2.5,0.5-3.8l-0.9-0.1c-0.2,1.3-0.3,2.5-0.5,3.7L445,403z"/>
<path fill="#815A79" d="M349.4,478.4l0.1-1c-1.3-0.1-2.5-0.2-3.8-0.3l-0.1,0.9C346.8,478.2,348.1,478.3,349.4,478.4z"/>
<path fill="#815A79" d="M326.9,474l0.3-0.9c-1.2-0.4-2.4-0.8-3.6-1.3l-0.3,0.9C324.5,473.1,325.7,473.6,326.9,474z"/>
<path fill="#815A79" d="M306.4,464.1l0.5-0.8c-1.1-0.7-2.1-1.4-3.1-2.1l-0.6,0.8C304.3,462.6,305.3,463.4,306.4,464.1z"/>
<path fill="#815A79" d="M438.2,350.7c-0.5-1.2-1.1-2.3-1.7-3.4l-0.8,0.4c0.6,1.1,1.1,2.3,1.6,3.4L438.2,350.7z"/>
<path fill="#815A79" d="M441,357.8c-0.4-1.2-0.9-2.4-1.4-3.6l-0.9,0.4c0.5,1.2,0.9,2.3,1.3,3.5L441,357.8z"/>
<path fill="#815A79" d="M300.2,459.6l0.6-0.8c-1-0.8-2-1.6-2.9-2.4l-0.6,0.7C298.2,458,299.2,458.8,300.2,459.6z"/>
<path fill="#815A79" d="M313,467.9l0.5-0.8c-1.1-0.6-2.2-1.2-3.3-1.8l-0.5,0.8C310.7,466.7,311.8,467.3,313,467.9z"/>
<path fill="#815A79" d="M444.9,372.6c-0.2-1.3-0.5-2.5-0.7-3.8l-0.9,0.2c0.3,1.2,0.5,2.5,0.7,3.7L444.9,372.6z"/>
<path fill="#815A79" d="M443.5,410.5c0.3-1.2,0.6-2.5,0.9-3.7l-0.9-0.2c-0.3,1.2-0.5,2.5-0.9,3.7L443.5,410.5z"/>
<path fill="#815A79" d="M319.8,471.3l0.4-0.9c-1.2-0.5-2.3-1-3.4-1.6l-0.4,0.9C317.5,470.2,318.7,470.7,319.8,471.3z"/>
<path fill="#815A79" d="M434.7,343.9c-0.6-1.1-1.3-2.2-1.9-3.3l-0.8,0.5c0.7,1.1,1.3,2.2,1.9,3.3L434.7,343.9z"/>
<path fill="#815A79" d="M443.3,365.1c-0.3-1.2-0.7-2.5-1.1-3.7l-0.9,0.3c0.4,1.2,0.7,2.4,1,3.6L443.3,365.1z"/>
<path fill="#815A79" d="M415.6,454.8l0.6,0.7c1-0.9,1.9-1.7,2.8-2.6l-0.7-0.7C417.4,453.1,416.5,454,415.6,454.8z"/>
<path fill="#815A79" d="M426.7,444.4c0.8-1,1.6-2,2.3-3l-0.8-0.6c-0.7,1-1.5,2-2.3,3L426.7,444.4z"/>
<path fill="#815A79" d="M412.7,457.3c-0.4,0.4-0.9,0.7-1.3,1.1c-0.5,0.4-1.1,0.8-1.6,1.3l0.6,0.8c0.6-0.4,1.1-0.8,1.6-1.3
	c0.5-0.4,0.9-0.7,1.3-1.1L412.7,457.3L412.7,457.3z"/>
<path fill="#815A79" d="M421,449.5l0.7,0.7c0.9-0.9,1.7-1.9,2.6-2.8l-0.7-0.6C422.7,447.7,421.9,448.6,421,449.5z"/>
<path fill="#815A79" d="M403.5,463.9l0.5,0.8c1.1-0.7,2.1-1.4,3.2-2.1l-0.5-0.8C405.6,462.5,404.6,463.2,403.5,463.9z"/>
<path fill="#815A79" d="M289.3,328l-0.7-0.6c-0.9,0.9-1.7,1.9-2.5,2.9l0.7,0.6C287.7,329.9,288.5,329,289.3,328z"/>
<path fill="#815A79" d="M294.6,322.7L294,322c-0.9,0.9-1.8,1.8-2.7,2.7l0.7,0.7C292.8,324.4,293.7,323.5,294.6,322.7z"/>
<path fill="#815A79" d="M364.6,478.2l-0.1-0.9c-1.3,0.1-2.5,0.2-3.8,0.3l0.1,0.9C362.1,478.5,363.4,478.4,364.6,478.2z"/>
<path fill="#815A79" d="M397,467.7l0.4,0.8c1.1-0.6,2.2-1.2,3.4-1.8l-0.5-0.8C399.2,466.5,398.1,467.1,397,467.7z"/>
<path fill="#815A79" d="M283.7,333.3c-0.8,1-1.5,2-2.3,3.1l0.8,0.5c0.7-1,1.5-2,2.2-3.1L283.7,333.3z"/>
<path fill="#815A79" d="M372.2,477.2l-0.2-0.9c-1.2,0.2-2.5,0.4-3.7,0.6l0.1,0.9C369.7,477.6,370.9,477.4,372.2,477.2z"/>
<path fill="#815A79" d="M379.7,475.5l-0.3-0.9c-1.2,0.3-2.4,0.6-3.7,0.9l0.2,0.9C377.2,476.1,378.4,475.8,379.7,475.5z"/>
<path fill="#815A79" d="M438.5,424.9c0.5-1.2,1-2.3,1.5-3.5l-0.9-0.3c-0.5,1.2-0.9,2.3-1.5,3.5L438.5,424.9z"/>
<path fill="#815A79" d="M441.3,417.8c0.4-1.2,0.8-2.4,1.2-3.6l-0.9-0.3c-0.4,1.2-0.7,2.4-1.2,3.6L441.3,417.8z"/>
<path fill="#815A79" d="M431.2,438.2c0.7-1.1,1.4-2.1,2-3.2l-0.8-0.5c-0.6,1.1-1.3,2.1-2,3.2L431.2,438.2z"/>
<path fill="#815A79" d="M435.1,431.7c0.6-1.1,1.2-2.2,1.8-3.4l-0.9-0.4c-0.6,1.1-1.1,2.2-1.7,3.3L435.1,431.7z"/>
<path fill="#815A79" d="M394,470.2l-0.4-0.9c-1.1,0.5-2.3,1-3.5,1.5l0.4,0.9C391.7,471.3,392.8,470.7,394,470.2z"/>
<path fill="#815A79" d="M386.9,473.1l-0.3-0.9c-1.2,0.4-2.4,0.9-3.6,1.2l0.3,0.9C384.5,474,385.7,473.6,386.9,473.1z"/>
<path fill="#815A79" d="M269.5,364.1c0.3-1.2,0.7-2.4,1.1-3.6l-0.9-0.3c-0.4,1.2-0.8,2.4-1.1,3.7L269.5,364.1z"/>
<path fill="#815A79" d="M352.5,298.6l0-0.9c-1.3,0-2.5,0.1-3.8,0.2l0.1,0.9C349.9,298.8,351.2,298.7,352.5,298.6z"/>
<path fill="#815A79" d="M267.8,371.4c0.2-1.2,0.5-2.5,0.8-3.7l-0.9-0.2c-0.3,1.2-0.6,2.5-0.8,3.7L267.8,371.4z"/>
<path fill="#815A79" d="M271.8,356.9c0.4-1.2,0.9-2.3,1.4-3.5l-0.9-0.4c-0.5,1.2-1,2.4-1.4,3.5L271.8,356.9z"/>
<path fill="#815A79" d="M344.9,299.2l-0.1-0.9c-1.3,0.2-2.5,0.3-3.8,0.5l0.2,0.9C342.4,299.6,343.7,299.4,344.9,299.2z"/>
<path fill="#815A79" d="M360,298.7l0-0.9c-1.3-0.1-2.5-0.1-3.8-0.1l0,0.9C357.5,298.6,358.8,298.6,360,298.7z"/>
<path fill="#815A79" d="M266.4,394c-0.1-1.3-0.1-2.5-0.2-3.8l-1,0c0,1.3,0.1,2.6,0.2,3.8L266.4,394z"/>
<path fill="#815A79" d="M375,300.7l0.2-0.9c-1.2-0.3-2.5-0.5-3.7-0.7l-0.2,0.9C372.5,300.2,373.8,300.4,375,300.7z"/>
<path fill="#815A79" d="M266.7,378.9c0.1-1.3,0.3-2.5,0.5-3.8l-0.9-0.1c-0.2,1.3-0.3,2.5-0.5,3.8L266.7,378.9z"/>
<path fill="#815A79" d="M367.6,299.4l0.1-0.9c-1.3-0.2-2.5-0.3-3.8-0.4l-0.1,1C365.1,299.1,366.3,299.2,367.6,299.4z"/>
<path fill="#815A79" d="M266.2,386.5c0-1.3,0.1-2.5,0.2-3.8l-0.9-0.1c-0.1,1.3-0.1,2.5-0.2,3.8L266.2,386.5z"/>
<path fill="#815A79" d="M316,307.9l-0.4-0.9c-1.1,0.6-2.3,1.2-3.4,1.8l0.5,0.8C313.8,309,314.9,308.4,316,307.9z"/>
<path fill="#815A79" d="M323,304.8l-0.4-0.9c-1.2,0.5-2.4,1-3.5,1.5l0.4,0.9C320.6,305.7,321.8,305.2,323,304.8z"/>
<path fill="#815A79" d="M309.4,311.5l-0.5-0.8c-1.1,0.7-2.2,1.3-3.2,2l0.5,0.8C307.3,312.8,308.4,312.1,309.4,311.5z"/>
<path fill="#815A79" d="M337.5,300.5l-0.2-0.9c-1.3,0.3-2.5,0.5-3.7,0.9l0.2,0.9C335,301,336.2,300.7,337.5,300.5z"/>
<path fill="#815A79" d="M297.5,320.2c0.9-0.7,1.8-1.5,2.7-2.2c1-0.8,2-1.6,3-2.3l-0.6-0.8c-1,0.7-2,1.5-3,2.3
	c-0.9,0.7-1.8,1.5-2.7,2.2L297.5,320.2z"/>
<path fill="#815A79" d="M278.2,343.3c0.6-1.1,1.3-2.2,2-3.2l-0.8-0.5c-0.7,1.1-1.3,2.2-2,3.3L278.2,343.3z"/>
<path fill="#815A79" d="M274.7,350c0.5-1.1,1.1-2.3,1.7-3.4l-0.8-0.4c-0.6,1.1-1.2,2.3-1.7,3.4L274.7,350z"/>
<path fill="#815A79" d="M330.1,302.3l-0.3-0.9c-1.2,0.4-2.4,0.8-3.6,1.2l0.3,0.9C327.7,303.1,328.9,302.7,330.1,302.3z"/>
<path fill="#815A79" d="M270.7,416.3c-0.4-1.2-0.8-2.4-1.1-3.6l-0.9,0.3c0.3,1.2,0.7,2.4,1.1,3.7L270.7,416.3z"/>
<path fill="#815A79" d="M284.8,442.8c-0.8-1-1.5-2-2.2-3l-0.8,0.5c0.7,1,1.5,2.1,2.3,3.1L284.8,442.8z"/>
<path fill="#815A79" d="M417.7,323.5c0.9,0.9,1.8,1.8,2.7,2.7l0.7-0.7c-0.9-0.9-1.8-1.8-2.7-2.7L417.7,323.5L417.7,323.5z"/>
<path fill="#815A79" d="M280.5,436.7c-0.7-1.1-1.3-2.1-2-3.2l-0.8,0.5c0.6,1.1,1.3,2.2,2,3.3L280.5,436.7z"/>
<path fill="#815A79" d="M415,321l0.6-0.7c-1-0.8-1.9-1.7-2.9-2.5l-0.6,0.7C413.1,319.3,414,320.1,415,321z"/>
<path fill="#815A79" d="M289,449.3l0.7-0.6c-0.8-0.9-1.7-1.9-2.5-2.8l-0.7,0.6C287.3,447.4,288.1,448.3,289,449.3z"/>
<path fill="#815A79" d="M382.3,302.6l0.3-0.9c-1.2-0.4-2.4-0.7-3.7-1.1l-0.2,0.9C379.9,301.9,381.1,302.2,382.3,302.6z"/>
<path fill="#815A79" d="M425.4,331.9l0.7-0.6c-0.8-1-1.6-2-2.5-2.9L423,329C423.8,329.9,424.6,330.9,425.4,331.9z"/>
<path fill="#815A79" d="M276.6,430.2c-0.6-1.1-1.2-2.2-1.7-3.4l-0.9,0.4c0.5,1.1,1.1,2.3,1.7,3.4L276.6,430.2z"/>
<path fill="#815A79" d="M430.7,337.4c-0.7-1-1.4-2.1-2.2-3.1l-0.8,0.6h0c0.8,1,1.5,2,2.2,3.1L430.7,337.4z"/>
<path fill="#815A79" d="M268.6,409c-0.3-1.2-0.6-2.5-0.8-3.7l-0.9,0.2c0.2,1.3,0.5,2.5,0.8,3.7L268.6,409z"/>
<path fill="#815A79" d="M389.4,305.1l0.4-0.9c-1.2-0.5-2.4-0.9-3.6-1.4l-0.3,0.9C387.1,304.2,388.2,304.7,389.4,305.1z"/>
<path fill="#815A79" d="M267.2,401.5c-0.2-1.2-0.4-2.5-0.5-3.8l-0.9,0.1c0.1,1.3,0.3,2.5,0.5,3.8L267.2,401.5z"/>
<path fill="#815A79" d="M409.1,316.2l0.6-0.8c-1-0.8-2.1-1.5-3.1-2.2L406,314C407.1,314.7,408.1,315.4,409.1,316.2z"/>
<path fill="#815A79" d="M396.3,308.3l0.4-0.8c-1.1-0.6-2.3-1.1-3.4-1.7l-0.4,0.9C394,307.2,395.1,307.7,396.3,308.3z"/>
<path fill="#815A79" d="M273.4,423.3c-0.5-1.2-1-2.3-1.4-3.5l-0.9,0.3c0.4,1.2,0.9,2.4,1.4,3.5L273.4,423.3z"/>
<path fill="#815A79" d="M294.4,454.7l0.6-0.7c-0.9-0.9-1.8-1.7-2.7-2.6l-0.7,0.7C292.5,452.9,293.4,453.8,294.4,454.7z"/>
<path fill="#815A79" d="M402.8,312l0.5-0.8c-1.1-0.7-2.2-1.3-3.3-1.9l-0.5,0.8C400.7,310.6,401.8,311.3,402.8,312z"/>
<path fill="#815A79" d="M417,533.4l0,0.3c0,1.5-0.1,3-0.2,4.4l1.1,0.1c0.1-1.5,0.2-3,0.2-4.5l0-0.3L417,533.4z M416.3,524.6
	c0.2,1.4,0.4,2.9,0.5,4.4l1.1-0.1c-0.1-1.5-0.3-3-0.5-4.5L416.3,524.6z M414.4,516c0.4,1.4,0.8,2.8,1.1,4.3l1.1-0.2
	c-0.3-1.5-0.7-2.9-1.1-4.4L414.4,516z M411.3,507.7c0.6,1.3,1.2,2.7,1.7,4.1l1-0.4c-0.5-1.4-1.1-2.8-1.7-4.1L411.3,507.7z M407,500
	c0.8,1.2,1.6,2.5,2.3,3.8l1-0.5c-0.7-1.3-1.5-2.6-2.3-3.9L407,500z M401.7,493c1,1.1,1.9,2.3,2.8,3.4l0.9-0.7
	c-0.9-1.2-1.8-2.4-2.8-3.5L401.7,493z M395.4,486.7c1.1,1,2.2,2,3.2,3l0.8-0.8c-1.1-1.1-2.2-2.1-3.3-3.1L395.4,486.7z M388.4,481.5
	c1.2,0.8,2.5,1.6,3.6,2.5l0.7-0.9c-1.2-0.9-2.4-1.7-3.7-2.6L388.4,481.5z M380.6,477.2c1.3,0.6,2.7,1.3,4,2l0.5-1
	c-1.3-0.7-2.7-1.4-4-2L380.6,477.2z M372.3,474.2c1.4,0.4,2.8,0.9,4.2,1.4l0.4-1c-1.4-0.5-2.8-1-4.3-1.4L372.3,474.2z M363.7,472.3
	c1.5,0.2,2.9,0.5,4.4,0.8l0.2-1.1c-1.5-0.3-2.9-0.6-4.4-0.8L363.7,472.3z M354.9,471.7h0.2c1.4,0,2.8,0,4.2,0.1l0.1-1.1
	c-1.4-0.1-2.8-0.1-4.3-0.1h-0.2L354.9,471.7z M346.1,472.4c1.4-0.2,2.9-0.4,4.4-0.5l-0.1-1.1c-1.5,0.1-3,0.3-4.5,0.5L346.1,472.4z
	 M337.4,474.3c1.4-0.4,2.8-0.8,4.3-1.1l-0.2-1.1c-1.5,0.3-2.9,0.7-4.4,1.1L337.4,474.3z M329.2,477.4c1.3-0.6,2.7-1.2,4.1-1.7
	l-0.4-1c-1.4,0.5-2.8,1.1-4.1,1.7L329.2,477.4z M321.5,481.7c1.2-0.8,2.5-1.6,3.8-2.3l-0.5-1c-1.3,0.7-2.6,1.5-3.9,2.3L321.5,481.7z
	 M314.4,487c1.1-1,2.3-1.9,3.4-2.8l-0.7-0.9c-1.2,0.9-2.4,1.8-3.5,2.8L314.4,487z M308.2,493.2c1-1.1,2-2.2,3-3.2l-0.8-0.8
	c-1.1,1.1-2.1,2.2-3.1,3.3L308.2,493.2z M302.9,500.3c0.8-1.2,1.6-2.5,2.5-3.6l-0.9-0.7c-0.9,1.2-1.7,2.4-2.6,3.7L302.9,500.3z
	 M298.7,508.1c0.6-1.3,1.3-2.7,2-4l-1-0.5c-0.7,1.3-1.4,2.7-2,4L298.7,508.1z M295.6,516.4c0.4-1.4,0.9-2.8,1.4-4.2l-1-0.4
	c-0.5,1.4-1,2.8-1.4,4.3L295.6,516.4z M293.8,525c0.2-1.5,0.5-2.9,0.8-4.3l-1.1-0.2c-0.3,1.5-0.6,2.9-0.8,4.4L293.8,525z
	 M293.2,533.8v-0.1c0-1.4,0-2.9,0.1-4.3l-1.1-0.1c-0.1,1.4-0.1,2.9-0.1,4.4v0.1L293.2,533.8z M293.8,542.6c-0.2-1.4-0.4-2.9-0.5-4.4
	l-1.1,0.1c0.1,1.5,0.3,3,0.5,4.5L293.8,542.6z M295.7,551.3c-0.4-1.4-0.8-2.8-1.1-4.3l-1.1,0.2c0.3,1.5,0.7,2.9,1.1,4.4L295.7,551.3
	z M298.8,559.5c-0.6-1.3-1.2-2.7-1.7-4.1l-1,0.4c0.5,1.4,1.1,2.8,1.7,4.1L298.8,559.5z M303.1,567.3c-0.8-1.2-1.6-2.5-2.3-3.8
	l-1,0.5c0.7,1.3,1.5,2.6,2.3,3.9L303.1,567.3z M308.4,574.3c-1-1.1-1.9-2.3-2.8-3.4l-0.9,0.7c0.9,1.2,1.8,2.4,2.8,3.5L308.4,574.3z
	 M314.6,580.6c-1.1-1-2.2-2-3.2-3l-0.8,0.8c1.1,1.1,2.2,2.1,3.3,3.1L314.6,580.6z M321.7,585.8c-1.2-0.8-2.5-1.6-3.6-2.5l-0.7,0.9
	c1.2,0.9,2.4,1.8,3.7,2.6L321.7,585.8z M329.4,590.1c-1.3-0.6-2.7-1.3-4-2l-0.5,1c1.3,0.7,2.7,1.4,4,2L329.4,590.1z M337.7,593.2
	c-1.4-0.4-2.8-0.9-4.2-1.4l-0.4,1c1.4,0.5,2.8,1,4.3,1.4L337.7,593.2z M346.3,595c-1.5-0.2-2.9-0.5-4.3-0.8l-0.2,1.1
	c1.5,0.3,2.9,0.6,4.4,0.8L346.3,595z M355.1,595.6L355.1,595.6c-1.5,0-3-0.1-4.4-0.2l-0.1,1.1c1.5,0.1,2.9,0.2,4.4,0.2h0.1
	L355.1,595.6z M364,595c-1.4,0.2-2.9,0.4-4.4,0.5l0.1,1.1c1.5-0.1,3-0.3,4.5-0.5L364,595z M372.6,593.1c-1.4,0.4-2.8,0.8-4.3,1.1
	l0.2,1.1c1.5-0.3,2.9-0.7,4.4-1.1L372.6,593.1z M380.8,590c-1.3,0.6-2.7,1.2-4.1,1.7l0.4,1c1.4-0.5,2.8-1.1,4.1-1.7L380.8,590z
	 M388.6,585.8c-1.2,0.8-2.5,1.5-3.8,2.3l0.5,1c1.3-0.7,2.6-1.5,3.9-2.3L388.6,585.8z M395.6,580.5c-1.1,1-2.3,1.9-3.4,2.8l0.7,0.9
	c1.2-0.9,2.4-1.8,3.5-2.8L395.6,580.5z M401.9,574.2c-1,1.1-2,2.2-3,3.2l0.8,0.8c1.1-1.1,2.1-2.2,3.1-3.3L401.9,574.2z M407.2,567.2
	c-0.8,1.2-1.6,2.5-2.5,3.6l0.9,0.7c0.9-1.2,1.8-2.4,2.6-3.7L407.2,567.2z M411.4,559.4c-0.6,1.3-1.3,2.7-2,4l1,0.5
	c0.7-1.3,1.4-2.7,2-4L411.4,559.4z M414.5,551.1c-0.4,1.4-0.9,2.8-1.4,4.2l1,0.4c0.5-1.4,1-2.8,1.4-4.3L414.5,551.1z M416.3,542.5
	c-0.2,1.5-0.5,2.9-0.8,4.3l1.1,0.2c0.3-1.5,0.6-2.9,0.8-4.4L416.3,542.5z"/>
<path fill="#815A79" d="M1249.3,545.1v0.2c0,1.5-0.1,2.9-0.2,4.3l1.1,0.1c0.1-1.5,0.2-2.9,0.2-4.4v-0.2L1249.3,545.1z M1248.5,536.4
	c0.2,1.4,0.4,2.9,0.5,4.3l1.1-0.1c-0.1-1.5-0.3-3-0.5-4.4L1248.5,536.4z M1246.5,528c0.5,1.4,0.9,2.8,1.2,4.2l1.1-0.3
	c-0.4-1.4-0.8-2.9-1.2-4.3L1246.5,528z M1243.1,520c0.7,1.3,1.3,2.6,1.8,3.9l1-0.4c-0.6-1.4-1.2-2.7-1.9-4L1243.1,520z
	 M1238.6,512.6c0.9,1.2,1.7,2.4,2.4,3.6l0.9-0.6c-0.8-1.3-1.6-2.5-2.5-3.7L1238.6,512.6z M1232.9,506c1,1,2,2.1,3,3.2l0.8-0.7
	c-1-1.1-2-2.2-3-3.2L1232.9,506z M1226.3,500.4c1.2,0.9,2.3,1.7,3.4,2.7l0.7-0.8c-1.1-1-2.3-1.9-3.5-2.7L1226.3,500.4z
	 M1218.8,495.8c1.3,0.7,2.6,1.4,3.8,2.1l0.6-0.9c-1.3-0.8-2.6-1.5-3.9-2.2L1218.8,495.8L1218.8,495.8z M1210.8,492.5
	c1.4,0.4,2.8,0.9,4.1,1.5l0.4-1c-1.4-0.6-2.8-1.1-4.2-1.5L1210.8,492.5z M1202.3,490.5c1.4,0.2,2.9,0.5,4.3,0.8l0.3-1.1
	c-1.4-0.3-2.9-0.6-4.4-0.8L1202.3,490.5z M1193.7,489.9h0.2c1.4,0,2.8,0.1,4.2,0.2l0.1-1.1c-1.4-0.1-2.8-0.2-4.2-0.2h-0.2
	L1193.7,489.9z M1185,490.6c1.4-0.2,2.9-0.4,4.3-0.5l-0.1-1.1c-1.5,0.1-3,0.3-4.4,0.5L1185,490.6z M1176.6,492.7
	c1.4-0.4,2.8-0.8,4.2-1.2l-0.3-1.1c-1.4,0.4-2.9,0.8-4.3,1.2L1176.6,492.7z M1168.5,496c1.3-0.7,2.6-1.3,3.9-1.8l-0.4-1
	c-1.4,0.6-2.7,1.2-4,1.9L1168.5,496z M1161.1,500.6c1.2-0.9,2.4-1.7,3.6-2.4l-0.6-0.9c-1.3,0.8-2.5,1.6-3.7,2.5L1161.1,500.6z
	 M1154.6,506.2c1-1,2.1-2,3.2-3l-0.7-0.8c-1.1,1-2.2,2-3.2,3L1154.6,506.2z M1148.9,512.9c0.8-1.2,1.7-2.3,2.7-3.4l-0.8-0.7
	c-1,1.1-1.9,2.3-2.7,3.5L1148.9,512.9z M1144.4,520.3c0.7-1.3,1.4-2.6,2.1-3.8l-0.9-0.6c-0.8,1.3-1.5,2.6-2.2,3.9L1144.4,520.3z
	 M1141.1,528.3c0.4-1.4,0.9-2.8,1.5-4.1l-1-0.4c-0.6,1.4-1.1,2.8-1.5,4.2L1141.1,528.3L1141.1,528.3z M1139.1,536.8
	c0.2-1.4,0.5-2.9,0.8-4.3l-1.1-0.3c-0.3,1.4-0.6,2.9-0.9,4.4L1139.1,536.8z M1138.4,545.4v-0.1c0-1.4,0.1-2.8,0.2-4.2l-1.1-0.1
	c-0.1,1.4-0.2,2.9-0.2,4.3v0.1L1138.4,545.4z M1139.1,554.1c-0.2-1.4-0.4-2.9-0.5-4.3l-1.1,0.1c0.1,1.5,0.3,3,0.5,4.4L1139.1,554.1z
	 M1141.2,562.6c-0.4-1.4-0.8-2.8-1.2-4.2l-1.1,0.3c0.3,1.4,0.8,2.9,1.2,4.3L1141.2,562.6z M1144.5,570.6c-0.7-1.3-1.3-2.6-1.8-3.9
	l-1,0.4c0.6,1.4,1.2,2.7,1.9,4L1144.5,570.6z M1149.1,578c-0.9-1.2-1.7-2.4-2.4-3.6l-0.9,0.6c0.8,1.3,1.6,2.5,2.5,3.7L1149.1,578z
	 M1154.7,584.6c-1-1-2-2.1-3-3.2l-0.8,0.7c1,1.1,2,2.2,3,3.3L1154.7,584.6z M1161.3,590.2c-1.2-0.9-2.3-1.8-3.4-2.7l-0.7,0.8
	c1.1,1,2.3,1.9,3.5,2.7L1161.3,590.2L1161.3,590.2z M1168.7,594.7c-1.3-0.7-2.6-1.4-3.8-2.1l-0.6,0.9c1.3,0.8,2.5,1.5,3.9,2.2
	L1168.7,594.7z M1176.8,598.1c-1.4-0.4-2.8-1-4.1-1.5l-0.4,1c1.4,0.6,2.8,1.1,4.2,1.5L1176.8,598.1z M1185.2,600.1
	c-1.4-0.2-2.9-0.5-4.3-0.8l-0.3,1.1c1.4,0.3,2.9,0.6,4.4,0.9L1185.2,600.1z M1193.9,600.7L1193.9,600.7c-1.5,0-2.9-0.1-4.3-0.2
	l-0.1,1.1c1.4,0.1,2.9,0.2,4.4,0.2h0.1V600.7L1193.9,600.7z M1202.6,600.1c-1.4,0.2-2.9,0.4-4.3,0.5l0.1,1.1c1.5-0.1,3-0.3,4.4-0.5
	L1202.6,600.1L1202.6,600.1z M1211,598c-1.4,0.4-2.8,0.8-4.2,1.2l0.3,1.1c1.4-0.3,2.9-0.8,4.3-1.2L1211,598z M1219,594.7
	c-1.3,0.7-2.6,1.3-3.9,1.8l0.4,1c1.4-0.6,2.7-1.2,4-1.9L1219,594.7z M1226.4,590.1c-1.2,0.9-2.4,1.7-3.6,2.4l0.6,0.9
	c1.3-0.8,2.5-1.6,3.7-2.5L1226.4,590.1z M1233,584.5c-1,1-2.1,2-3.2,3l0.7,0.8c1.1-1,2.2-2,3.3-3L1233,584.5z M1238.7,577.9
	c-0.9,1.2-1.8,2.3-2.7,3.4l0.8,0.7c1-1.1,1.9-2.3,2.7-3.5L1238.7,577.9z M1243.2,570.5c-0.7,1.3-1.4,2.6-2.1,3.8l0.9,0.6
	c0.8-1.3,1.5-2.6,2.2-3.9L1243.2,570.5z M1246.6,562.4c-0.5,1.4-1,2.8-1.5,4.1l1,0.4c0.6-1.4,1.1-2.8,1.5-4.2L1246.6,562.4z
	 M1248.6,554c-0.2,1.4-0.5,2.9-0.8,4.3l1.1,0.3c0.3-1.4,0.6-2.9,0.9-4.4L1248.6,554z"/>
<path fill="#815A79" d="M794.9,459.3c0-1.3,0-2.5-0.1-3.8l-1,0c0.1,1.3,0.1,2.5,0.1,3.8L794.9,459.3z"/>
<path fill="#815A79" d="M690.4,549l0.1-0.9c-1.2-0.2-2.5-0.4-3.7-0.7l-0.2,0.9C687.9,548.6,689.2,548.9,690.4,549z"/>
<path fill="#815A79" d="M683,547.6l0.2-0.9c-1.2-0.3-2.4-0.6-3.6-1l-0.3,0.9C680.5,546.9,681.7,547.3,683,547.6z"/>
<path fill="#815A79" d="M794.6,451.6c-0.1-1.3-0.3-2.5-0.4-3.8l-0.9,0.1c0.2,1.3,0.3,2.5,0.4,3.8L794.6,451.6z"/>
<path fill="#815A79" d="M794.6,466.9c0.1-1.3,0.2-2.5,0.2-3.8l-0.9,0c-0.1,1.3-0.1,2.5-0.2,3.8L794.6,466.9z"/>
<path fill="#815A79" d="M705.7,550.1l0-0.9c-1.3,0-2.5,0-3.8,0l0,1C703.1,550.1,704.4,550.1,705.7,550.1z"/>
<path fill="#815A79" d="M793.7,474.5c0.2-1.3,0.4-2.5,0.5-3.8l-0.9-0.1c-0.2,1.3-0.3,2.5-0.5,3.7L793.7,474.5z"/>
<path fill="#815A79" d="M698,549.9l0.1-1c-1.3-0.1-2.5-0.2-3.8-0.3l-0.1,0.9C695.5,549.7,696.8,549.8,698,549.9z"/>
<path fill="#815A79" d="M675.6,545.4l0.3-0.9c-1.2-0.4-2.4-0.8-3.6-1.3l-0.3,0.9C673.2,544.6,674.4,545,675.6,545.4z"/>
<path fill="#815A79" d="M655.1,535.5l0.5-0.8c-1.1-0.7-2.1-1.4-3.1-2.1l-0.6,0.8C653,534.1,654,534.8,655.1,535.5z"/>
<path fill="#815A79" d="M786.8,422.2c-0.5-1.2-1.1-2.3-1.7-3.4l-0.8,0.4c0.6,1.1,1.1,2.3,1.6,3.4L786.8,422.2z"/>
<path fill="#815A79" d="M789.7,429.3c-0.4-1.2-0.9-2.4-1.4-3.6l-0.9,0.4c0.5,1.2,0.9,2.3,1.3,3.5L789.7,429.3z"/>
<path fill="#815A79" d="M648.9,531.1l0.6-0.8c-1-0.8-2-1.6-2.9-2.4l-0.6,0.7C646.9,529.5,647.9,530.3,648.9,531.1z"/>
<path fill="#815A79" d="M661.6,539.4l0.5-0.8c-1.1-0.6-2.2-1.2-3.3-1.8l-0.5,0.8C659.4,538.2,660.5,538.8,661.6,539.4z"/>
<path fill="#815A79" d="M793.6,444c-0.2-1.3-0.5-2.5-0.7-3.8l-0.9,0.2c0.3,1.2,0.5,2.5,0.7,3.7L793.6,444z"/>
<path fill="#815A79" d="M792.1,481.9c0.3-1.2,0.6-2.5,0.9-3.7l-0.9-0.2c-0.3,1.2-0.5,2.5-0.9,3.7L792.1,481.9z"/>
<path fill="#815A79" d="M668.5,542.7l0.4-0.9c-1.1-0.5-2.3-1-3.4-1.6l-0.4,0.9C666.2,541.7,667.3,542.2,668.5,542.7z"/>
<path fill="#815A79" d="M783.4,415.4c-0.6-1.1-1.3-2.2-1.9-3.3l-0.8,0.5c0.7,1.1,1.3,2.2,1.9,3.3L783.4,415.4z"/>
<path fill="#815A79" d="M792,436.6c-0.3-1.2-0.7-2.5-1.1-3.7l-0.9,0.3c0.4,1.2,0.7,2.4,1,3.6L792,436.6z"/>
<path fill="#815A79" d="M764.3,526.3l0.6,0.7c1-0.9,1.9-1.7,2.8-2.6l-0.7-0.7C766.1,524.6,765.2,525.4,764.3,526.3z"/>
<path fill="#815A79" d="M775.4,515.9c0.8-1,1.6-2,2.3-3l-0.8-0.6c-0.7,1-1.5,2-2.3,3L775.4,515.9z"/>
<path fill="#815A79" d="M761.4,528.7c-0.4,0.4-0.9,0.7-1.3,1.1c-0.5,0.4-1.1,0.8-1.6,1.3l0.6,0.8c0.6-0.4,1.1-0.8,1.6-1.3
	c0.5-0.4,0.9-0.7,1.3-1.1L761.4,528.7L761.4,528.7z"/>
<path fill="#815A79" d="M769.7,521l0.7,0.7c0.9-0.9,1.7-1.9,2.6-2.8l-0.7-0.6C771.4,519.1,770.5,520.1,769.7,521z"/>
<path fill="#815A79" d="M752.2,535.4l0.5,0.8c1.1-0.7,2.1-1.4,3.2-2.1l-0.5-0.8C754.3,534,753.3,534.7,752.2,535.4z"/>
<path fill="#815A79" d="M638,399.5l-0.7-0.6c-0.9,0.9-1.7,1.9-2.5,2.9l0.7,0.6C636.3,401.4,637.2,400.5,638,399.5z"/>
<path fill="#815A79" d="M643.3,394.1l-0.6-0.7c-0.9,0.9-1.8,1.8-2.7,2.7l0.7,0.7C641.5,395.9,642.4,395,643.3,394.1z"/>
<path fill="#815A79" d="M713.3,549.7l-0.1-0.9c-1.3,0.1-2.5,0.2-3.8,0.3l0.1,0.9C710.8,549.9,712,549.8,713.3,549.7z"/>
<path fill="#815A79" d="M745.7,539.1l0.4,0.8c1.1-0.6,2.2-1.2,3.4-1.8l-0.5-0.8C747.9,538,746.8,538.6,745.7,539.1z"/>
<path fill="#815A79" d="M632.4,404.7c-0.8,1-1.5,2-2.3,3.1l0.8,0.5c0.7-1,1.5-2,2.2-3.1L632.4,404.7z"/>
<path fill="#815A79" d="M720.9,548.6l-0.2-0.9c-1.2,0.2-2.5,0.4-3.7,0.6l0.1,0.9C718.4,549.1,719.6,548.9,720.9,548.6z"/>
<path fill="#815A79" d="M728.3,546.9l-0.2-0.9c-1.2,0.3-2.4,0.6-3.7,0.9l0.2,0.9C725.9,547.6,727.1,547.3,728.3,546.9z"/>
<path fill="#815A79" d="M787.2,496.3c0.5-1.2,1-2.3,1.5-3.5l-0.9-0.3c-0.5,1.2-0.9,2.3-1.5,3.5L787.2,496.3z"/>
<path fill="#815A79" d="M790,489.3c0.4-1.2,0.8-2.4,1.2-3.6l-0.9-0.3c-0.4,1.2-0.7,2.4-1.2,3.6L790,489.3z"/>
<path fill="#815A79" d="M779.8,509.7c0.7-1.1,1.4-2.1,2-3.2l-0.8-0.5c-0.6,1.1-1.3,2.1-2,3.2L779.8,509.7z"/>
<path fill="#815A79" d="M783.8,503.2c0.6-1.1,1.2-2.2,1.8-3.4l-0.9-0.4c-0.6,1.1-1.1,2.2-1.7,3.3L783.8,503.2z"/>
<path fill="#815A79" d="M742.7,541.7l-0.4-0.9c-1.1,0.5-2.3,1-3.5,1.5l0.4,0.9C740.4,542.7,741.5,542.2,742.7,541.7z"/>
<path fill="#815A79" d="M735.6,544.6l-0.3-0.9c-1.2,0.4-2.4,0.8-3.6,1.2l0.3,0.9C733.2,545.5,734.4,545.1,735.6,544.6z"/>
<path fill="#815A79" d="M618.2,435.6c0.3-1.2,0.7-2.4,1.1-3.6l-0.9-0.3c-0.4,1.2-0.8,2.4-1.1,3.7L618.2,435.6z"/>
<path fill="#815A79" d="M701.1,370.1l0-0.9c-1.3,0-2.5,0.1-3.8,0.2l0.1,0.9C698.6,370.2,699.9,370.2,701.1,370.1z"/>
<path fill="#815A79" d="M616.4,442.9c0.2-1.2,0.5-2.5,0.8-3.7l-0.9-0.2c-0.3,1.2-0.6,2.5-0.8,3.7L616.4,442.9z"/>
<path fill="#815A79" d="M620.5,428.4c0.4-1.2,0.9-2.3,1.4-3.5l-0.9-0.4c-0.5,1.2-1,2.4-1.4,3.5L620.5,428.4z"/>
<path fill="#815A79" d="M693.6,370.7l-0.1-0.9c-1.3,0.2-2.5,0.3-3.8,0.5l0.2,0.9C691.1,371,692.4,370.9,693.6,370.7z"/>
<path fill="#815A79" d="M708.7,370.2l0-0.9c-1.3-0.1-2.5-0.1-3.8-0.1l0,1C706.2,370.1,707.4,370.1,708.7,370.2z"/>
<path fill="#815A79" d="M615.1,465.5c-0.1-1.3-0.1-2.5-0.2-3.8l-1,0c0,1.3,0.1,2.6,0.2,3.8L615.1,465.5z"/>
<path fill="#815A79" d="M723.7,372.2l0.2-0.9c-1.2-0.3-2.5-0.5-3.7-0.7l-0.2,0.9C721.2,371.6,722.4,371.9,723.7,372.2z"/>
<path fill="#815A79" d="M615.3,450.4c0.1-1.3,0.3-2.5,0.5-3.8l-0.9-0.1c-0.2,1.3-0.3,2.5-0.5,3.8L615.3,450.4z"/>
<path fill="#815A79" d="M716.2,370.8l0.1-0.9c-1.3-0.2-2.5-0.3-3.8-0.4l-0.1,0.9C713.7,370.5,715,370.7,716.2,370.8z"/>
<path fill="#815A79" d="M614.9,457.9c0-1.3,0.1-2.5,0.2-3.8l-0.9-0.1c-0.1,1.3-0.1,2.5-0.2,3.8L614.9,457.9z"/>
<path fill="#815A79" d="M664.7,379.3l-0.4-0.9c-1.1,0.6-2.3,1.1-3.4,1.8l0.5,0.8C662.5,380.5,663.6,379.9,664.7,379.3z"/>
<path fill="#815A79" d="M671.6,376.3l-0.3-0.9c-1.2,0.5-2.4,1-3.5,1.5l0.4,0.9C669.3,377.2,670.5,376.7,671.6,376.3z"/>
<path fill="#815A79" d="M658.1,383l-0.5-0.8c-1.1,0.7-2.2,1.3-3.2,2l0.5,0.8C656,384.3,657,383.6,658.1,383z"/>
<path fill="#815A79" d="M686.1,371.9l-0.2-0.9c-1.2,0.3-2.5,0.5-3.7,0.9l0.2,0.9C683.7,372.5,684.9,372.2,686.1,371.9z"/>
<path fill="#815A79" d="M646.1,391.6c0.9-0.7,1.8-1.5,2.7-2.2c1-0.8,2-1.5,3-2.3l-0.6-0.8c-1,0.7-2,1.5-3,2.3
	c-0.9,0.7-1.8,1.5-2.7,2.2L646.1,391.6z"/>
<path fill="#815A79" d="M626.9,414.7c0.6-1.1,1.3-2.2,2-3.2l-0.8-0.5c-0.7,1.1-1.3,2.2-2,3.3L626.9,414.7z"/>
<path fill="#815A79" d="M623.4,421.4c0.5-1.1,1.1-2.3,1.7-3.4l-0.8-0.4c-0.6,1.1-1.2,2.3-1.7,3.4L623.4,421.4z"/>
<path fill="#815A79" d="M678.8,373.8l-0.3-0.9c-1.2,0.4-2.4,0.8-3.6,1.2l0.3,0.9C676.4,374.5,677.6,374.2,678.8,373.8z"/>
<path fill="#815A79" d="M619.4,487.7c-0.4-1.2-0.8-2.4-1.1-3.6l-0.9,0.3c0.3,1.2,0.7,2.4,1.1,3.7L619.4,487.7z"/>
<path fill="#815A79" d="M633.5,514.3c-0.8-1-1.5-2-2.2-3l-0.8,0.5c0.7,1,1.5,2.1,2.3,3.1L633.5,514.3z"/>
<path fill="#815A79" d="M766.4,395c0.9,0.9,1.8,1.8,2.7,2.7l0.7-0.7c-0.9-0.9-1.8-1.8-2.7-2.7L766.4,395L766.4,395z"/>
<path fill="#815A79" d="M629.1,508.1c-0.7-1.1-1.3-2.1-2-3.2l-0.8,0.5c0.6,1.1,1.3,2.2,2,3.3L629.1,508.1z"/>
<path fill="#815A79" d="M763.7,392.4l0.6-0.7c-1-0.8-1.9-1.7-2.9-2.5l-0.6,0.7C761.7,390.8,762.7,391.6,763.7,392.4z"/>
<path fill="#815A79" d="M637.7,520.7l0.7-0.6c-0.8-0.9-1.7-1.9-2.5-2.8l-0.7,0.6C636,518.8,636.8,519.8,637.7,520.7z"/>
<path fill="#815A79" d="M731,374.1l0.3-0.9c-1.2-0.4-2.4-0.7-3.7-1l-0.2,0.9C728.6,373.4,729.8,373.7,731,374.1z"/>
<path fill="#815A79" d="M774.1,403.3l0.7-0.6c-0.8-1-1.6-2-2.5-2.9l-0.7,0.6C772.5,401.4,773.3,402.4,774.1,403.3z"/>
<path fill="#815A79" d="M625.3,501.6c-0.6-1.1-1.2-2.2-1.7-3.4l-0.9,0.4c0.5,1.1,1.1,2.3,1.7,3.4L625.3,501.6z"/>
<path fill="#815A79" d="M779.4,408.9c-0.7-1.1-1.5-2.1-2.2-3.1l-0.8,0.6h0c0.8,1,1.5,2,2.2,3.1L779.4,408.9z"/>
<path fill="#815A79" d="M617.3,480.4c-0.3-1.2-0.6-2.5-0.8-3.7l-0.9,0.2c0.2,1.3,0.5,2.5,0.8,3.7L617.3,480.4z"/>
<path fill="#815A79" d="M738.1,376.6l0.4-0.9c-1.2-0.5-2.4-0.9-3.6-1.4l-0.3,0.9C735.7,375.7,736.9,376.1,738.1,376.6z"/>
<path fill="#815A79" d="M615.9,473c-0.2-1.2-0.3-2.5-0.5-3.8l-0.9,0.1c0.1,1.3,0.3,2.5,0.5,3.8L615.9,473z"/>
<path fill="#815A79" d="M757.8,387.7l0.6-0.8c-1-0.8-2.1-1.5-3.1-2.2l-0.5,0.8C755.7,386.2,756.8,386.9,757.8,387.7z"/>
<path fill="#815A79" d="M744.9,379.7l0.4-0.8c-1.1-0.6-2.3-1.1-3.4-1.7l-0.4,0.9C742.7,378.6,743.8,379.2,744.9,379.7z"/>
<path fill="#815A79" d="M622,494.8c-0.5-1.2-1-2.3-1.4-3.5l-0.9,0.3c0.4,1.2,0.9,2.4,1.4,3.5L622,494.8z"/>
<path fill="#815A79" d="M643,526.1l0.6-0.7c-0.9-0.9-1.8-1.7-2.7-2.6l-0.7,0.7C641.2,524.4,642.1,525.3,643,526.1z"/>
<path fill="#815A79" d="M751.5,383.4l0.5-0.8c-1.1-0.7-2.2-1.3-3.3-1.9l-0.5,0.8C749.4,382.1,750.5,382.8,751.5,383.4z"/>
<path fill="#815A79" d="M740.2,165.9c-1.3-0.5-2.7-0.2-3.8,0.5l-17.8-21.1c0.7-0.7,1.3-1.5,1.6-2.5c1.4-3.6-0.4-7.5-4-8.9
	c-1.4-0.5-2.8-0.6-4.1-0.3l-8.7-27.8c0.9-0.4,1.7-1.2,2.1-2.2c0.8-2-0.2-4.3-2.3-5.1c-2-0.8-4.3,0.2-5.1,2.3c-0.8,2,0.2,4.3,2.3,5.1
	c0.7,0.3,1.4,0.3,2.1,0.2l8.8,27.8c-1.7,0.7-3.2,2-3.9,3.9c-1.2,3.2,0.1,6.8,3.1,8.4L696.1,177l-0.1,0c-3-1.2-6.4,0-8.1,2.6
	l-54.7-31.9c0.1-0.2,0.2-0.3,0.2-0.5c1.4-3.6-0.4-7.5-4-8.9c-3.5-1.4-7.5,0.4-8.9,4c-0.7,1.8-0.6,3.7,0.2,5.3l-16,9.4
	c-1.5-2.4-3.7-4.4-6.5-5.5c-4.3-1.6-8.9-0.9-12.4,1.6l-46.1-49.7c1.4-1.3,2.6-3,3.3-4.9c2.1-5.4,0.3-11.4-3.9-14.8l24.4-31.5
	c0.3,0.2,0.6,0.3,0.9,0.5c3.6,1.4,7.5-0.4,8.9-4l0.1-0.2l38.1,4.8c0.1,1.5,1,2.9,2.5,3.5c2,0.8,4.3-0.2,5.1-2.3
	c0.8-2-0.2-4.3-2.3-5.1c-2-0.8-4.3,0.2-5.1,2.3c-0.1,0.2-0.1,0.5-0.2,0.7l-37.9-4.8c0.4-1.8,0-3.5-0.9-5l25.3-22.5
	c0.2,0.1,0.5,0.3,0.7,0.4c2,0.8,4.3-0.2,5.1-2.3c0.8-2-0.2-4.3-2.3-5.1c-2-0.8-4.3,0.2-5.1,2.3c-0.6,1.5-0.2,3.1,0.9,4.1l-25.1,22.3
	c-0.7-0.9-1.7-1.6-2.8-2c-0.3-0.1-0.6-0.2-0.9-0.3l3.4-23.8c1.6,0,3.2-0.9,3.8-2.5c0.8-2-0.2-4.3-2.3-5.1c-2-0.8-4.3,0.2-5.1,2.3
	c-0.8,2,0.2,4.3,2.3,5.1l0.4,0.1l-3.4,23.8c-3-0.3-5.9,1.4-7,4.4c-1.1,2.9-0.1,6.1,2.3,7.9l-24.4,31.5c-0.9-0.6-1.9-1.2-2.9-1.6
	c-6.8-2.6-14.4,0.8-17,7.6c-2.6,6.8,0.8,14.4,7.6,17c4.5,1.7,9.4,0.8,12.9-2l46,49.6c-1.7,1.4-3,3.2-3.8,5.4
	c-2.6,6.8,0.8,14.4,7.6,17c2.4,0.9,5,1.1,7.4,0.6l10.2,70.3c-3,0.9-5.5,3.2-6.7,6.3c-1.9,5.1,0.3,10.7,5.1,13.1l-16.6,44.4
	c-3.2-0.6-6.4,1.2-7.6,4.3c-1.4,3.6,0.4,7.5,4,8.9c3.6,1.4,7.5-0.4,8.9-4c1.4-3.6-0.4-7.5-4-8.9l-0.4-0.1l16.6-44.2l0.2,0.1
	c5.4,2.1,11.5-0.6,13.6-6.1c0.4-1.1,0.6-2.3,0.7-3.4l73.3-6.1c0.6,4.7,3.6,8.9,8.4,10.7c4.1,1.6,8.5,0.9,12-1.3l0.8-0.5
	c1.9-1.4,3.4-3.4,4.3-5.7c2.6-6.8-0.8-14.4-7.6-17c-2.2-0.9-4.5-1-6.7-0.7l-9.1-46.8c2.1-0.5,3.9-2,4.7-4.2c1.2-3.2-0.1-6.8-3.1-8.4
	l14.4-30.5l0.1,0c2.3,0.9,4.7,0.4,6.5-0.9l17.8,21.1c-0.3,0.3-0.5,0.7-0.7,1.1c-0.8,2,0.2,4.3,2.3,5.1c2,0.8,4.3-0.2,5.1-2.3
	C743.2,169,742.2,166.7,740.2,165.9z M703.4,237c-4.1,1-7.7,3.9-9.3,8.1c-0.7,1.8-0.9,3.6-0.8,5.3l-73.2,6.1c-0.2-4-2.7-7.8-6.8-9.3
	c-2-0.8-4.1-0.9-6-0.4l-10.2-70.3c3.9-1.1,7.2-3.9,8.7-8c1.4-3.6,1-7.5-0.6-10.7l16-9.4c0.8,1.2,1.9,2.2,3.3,2.8
	c3.1,1.2,6.5,0,8.2-2.7l54.7,31.9c-0.1,0.2-0.2,0.4-0.3,0.6c-1.4,3.6,0.4,7.5,4,8.9c1.1,0.4,2.2,0.5,3.3,0.4L703.4,237z"/>
<path fill="#815A79" d="M1038,704.4c-1.8,0-3.4,1.1-4.1,2.7l-32.1-9.6c0.1-0.5,0.2-1,0.2-1.5c0.1-3.4-2.2-6.4-5.3-7.3l9.4-39.6
	c0.6,0.1,1.2,0.2,1.9,0.2c6.3,0.2,11.6-4.8,11.8-11.2c0.2-6.3-4.9-11.6-11.2-11.8c-1.7,0-3.3,0.3-4.8,0.9l-16.7-34.6
	c4.8-2.2,8.2-7,8.3-12.6c0.1-4.8-2.1-9.1-5.7-11.8l-0.8-0.6c-2.2-1.4-4.7-2.3-7.4-2.3c-4.6-0.1-8.7,1.9-11.4,5.2l-36.8-31.7
	c1.6-1.9,2.6-4.4,2.7-7.1c0.2-6.3-4.9-11.6-11.2-11.8c-2.5-0.1-4.9,0.7-6.8,2l-25.2-34.8c1.6-1.3,2.7-3.3,2.7-5.6
	c0.1-4.1-3.2-7.6-7.3-7.7c-4.1-0.1-7.6,3.2-7.7,7.3c0,0.4,0,0.8,0.1,1.2l-15.6,3.1c-0.5-1.7-2.1-2.9-4-3c-2.4-0.1-4.3,1.8-4.4,4.2
	c-0.1,2.4,1.8,4.3,4.2,4.4c2.4,0.1,4.3-1.8,4.4-4.2l0-0.4l15.6-3.1c0.8,3.1,3.6,5.5,7,5.5c1.5,0,3-0.4,4.2-1.1l25.2,34.8
	c-1.7,1.4-3,3.3-3.6,5.5l-33.1-9.9c0.1-0.3,0.1-0.6,0.2-1c0.1-2.4-1.8-4.3-4.2-4.4c-2.4-0.1-4.3,1.8-4.4,4.2
	c-0.1,2.4,1.8,4.3,4.2,4.4c1.7,0,3.1-0.9,3.9-2.3l33.2,9.9c-0.1,0.7-0.2,1.4-0.3,2.1c-0.2,6.3,4.8,11.6,11.2,11.8
	c3.3,0.1,6.3-1.2,8.4-3.4l36.8,31.7c-1.6,2.3-2.6,5-2.6,7.9c-0.2,7.9,6,14.5,14,14.7c1.9,0,3.8-0.3,5.5-0.9l16.7,34.6
	c-3.5,1.9-5.9,5.5-6,9.8c-0.1,2.7,0.8,5.1,2.3,7.1l-59.2,47.9c-2-2.1-4.9-3.5-8-3.6c-3.1-0.1-5.9,1.1-8,3l-49.1-39.8
	c1.1-1.7,1.8-3.8,1.9-6c0.2-6.3-4.9-11.6-11.2-11.7c-6.3-0.2-11.6,4.8-11.8,11.2c-0.2,6.3,4.9,11.6,11.2,11.8
	c3.8,0.1,7.1-1.6,9.3-4.4l49,39.7c-1.8,2-2.9,4.6-3,7.4c-0.1,2.5,0.7,4.7,1.9,6.6L897.2,726c-1.3-1.5-3.2-2.4-5.4-2.5
	c-1.1,0-2.2,0.2-3.2,0.7l-15.2-28.8c1.1-0.8,1.9-2,1.9-3.5c0.1-2.4-1.8-4.3-4.2-4.4c-2.4-0.1-4.3,1.8-4.4,4.2
	c-0.1,2.4,1.8,4.3,4.2,4.4c0.6,0,1.1-0.1,1.6-0.3l15.2,28.8c-2,1.2-3.4,3.4-3.5,5.9l-30.3,0.1c0-2.3-1.9-4.2-4.2-4.2
	c-2.4-0.1-4.3,1.8-4.4,4.2c-0.1,2.4,1.8,4.3,4.2,4.4c2.1,0.1,3.9-1.4,4.3-3.3l30.4-0.1c0.3,3.8,3.4,6.9,7.3,7
	c4.1,0.1,7.6-3.2,7.7-7.3c0-1.6-0.5-3.1-1.3-4.4l24.6-19.3c2,2.6,5.2,4.2,8.7,4.3c6.3,0.2,11.6-4.8,11.8-11.2
	c0.1-2.8-0.9-5.4-2.5-7.4l59.2-47.9c1.4,1.6,3.3,2.8,5.5,3.4l-9.3,39.6c-0.3-0.1-0.7-0.1-1-0.1c-4.1-0.1-7.6,3.2-7.7,7.3
	c-0.1,4.1,3.2,7.6,7.3,7.7c3.3,0.1,6.1-2,7.2-4.9l32.2,9.6c0,0.2-0.1,0.4-0.1,0.6c-0.1,2.4,1.8,4.3,4.2,4.4c2.4,0.1,4.3-1.8,4.4-4.2
	C1042.2,706.4,1040.4,704.5,1038,704.4z"/>
</svg>
